<?xml version="1.0" encoding="UTF-8"?>
<svg id="Layer_1" data-name="Layer 1" xmlns="http://www.w3.org/2000/svg" viewBox="0 0 179.33 95.23">
  <defs>
    <style>
      .cls-1 {
        fill: #9f5559;
      }

      .cls-2 {
        fill: #178876;
      }
    </style>
  </defs>
  <path class="cls-1" d="M161.3,66.18c2.98-1.16,5.91-2.11,6.3-1.46.41.69-2.45,2.64-2,3.52.75,1.49,9.85-2.27,10.89-.5.69,1.17-3.15,3.08-3.2,6.43-.06,4.47,6.7,7.62,5.99,8.85-.47.82-3.24-1.02-5.4.15-3.52,1.91-1.79,9.85-3.87,10.34-1.25.29-1.96-2.55-4.2-2.76-3.17-.3-5.37,5.08-7.19,4.42-.92-.33-1.17-1.98-1.14-2.95.1-3.57,4.23-5.91,3.91-6.34-.25-.32-2.56,1.17-6.09,2.56-3.17,1.25-4.86,1.91-5.69,1.25-1.8-1.44,1.57-8.25,2.65-10.43,1.62-3.26,4.37-7.97,9.04-13.08Z"/>
  <path class="cls-2" d="M103.2,49.51c-11.67-4.37-28.59-8.95-48.75-7.96-28.85,1.43-46.67,13.41-52.07,6.88-4.69-5.67,3.07-21.57,13.35-31.43C35.87-2.29,72.55-5.01,97.72,8.06c6.78,3.52,17.94,14.84,39.96,37.34,10.5,10.73,19.06,19.8,24.99,26.18-3.9,3.77-7.8,7.54-11.7,11.31-15.92-11.12-31.84-22.25-47.76-33.37Z"/>
  <path class="cls-1" d="M83.58,42.09c8.07.95,9.98.64,13.66,2.08,2.48.96,8.19,3.18,8.62,7.12.35,3.19-2.88,6.49-6.03,8.06-4.51,2.24-7.77.37-23.45-2.79-10.09-2.03-13.56-2.23-17.33-1.84-4.54.47-4.45,1.27-10.97,2.7-13.18,2.9-15.34.03-24.82,3.03-6.91,2.19-8.1,4.46-12.59,3.92C5.87,63.78.39,60.34.02,56.26c-.53-5.91,9.86-10.64,13.12-12.12,8.2-3.73,15.97-3.81,23.18-3.81,9.84,0,9.03,1.59,18.14,1.23,8.09-.31,10.78-1.65,18.73-.97,3.96.34,3.29.67,10.4,1.51Z"/>
</svg>