<?xml version="1.0" encoding="UTF-8"?>
<svg id="Layer_1" data-name="Layer 1" xmlns="http://www.w3.org/2000/svg" viewBox="0 0 604.13 323.09">
  <defs>
    <style>
      .cls-1 {
        fill: #9e9598;
      }

      .cls-2 {
        fill: #a7a0a2;
      }

      .cls-3 {
        fill: #89797b;
      }

      .cls-4 {
        fill: #212021;
      }

      .cls-5 {
        fill: #666150;
      }

      .cls-6 {
        fill: #383f28;
      }

      .cls-7 {
        fill: #988e91;
      }

      .cls-8 {
        fill: #ada4a7;
      }

      .cls-9 {
        fill: #a59da0;
      }

      .cls-10 {
        fill: #178876;
      }

      .cls-11 {
        fill: #7a696b;
      }

      .cls-12 {
        fill: #938184;
      }

      .cls-13 {
        fill: #c69c6d;
        font-family: OpenSans-Bold, 'Open Sans';
        font-size: 46.6px;
        font-weight: 700;
      }

      .cls-14 {
        fill: #98898d;
      }

      .cls-15 {
        fill: #a39c9e;
      }

      .cls-16 {
        fill: #4a4c3b;
      }
    </style>
  </defs>
  <rect class="cls-10" width="604.13" height="323.09" rx="7.54" ry="7.54"/>
  <text class="cls-13" transform="translate(141.21 89.25)"><tspan x="0" y="0">You got eaten!</tspan></text>
  <g>
    <path class="cls-6" d="M215.28,282.38c1.17.21,2.93.39,4.14.46s2.45-.02,3.66-.02l.74-2.26c1.2.34,2.12.83,3.42.9.4.02,1.04.07,1.38,0v.92h-.91s-.01.92-.01.92c-.26.13-.79.32-.92.46-.88-.15-1.08.04-.92.92-.75.08-1.55-.08-2.3,0-3.49.36-6.13.69-9.68-.2-2.68-.68-6.79-2.56-7.79-5.31,3.35.87,5.63,2.58,9.19,3.21Z"/>
    <path class="cls-16" d="M230.45,279.63c0,.3.04.64,0,.92-.71-.09-1.43.83-1.84.92-.34.07-.98.02-1.38,0l-1.38-.92v-1.37c.26-.25,2.63.96,3.23-2.07.21-1.08-.44-.54-.93-.69-1.23-.37-2.47-.22-3.37-.46-.54-.15-.26-.87-.31-.92.13-.45.53-.42.92-.46.44-.04,1.02.09,1.38,0,.71-.18,1.09-1.55,2.07-.46.65.73,1.62,4.45,1.61,5.51Z"/>
    <path class="cls-3" d="M226.32,264.93c-.12.99-.06,2.59-1.38,2.3.67-2.82.92-1.67,1.38-2.3Z"/>
    <path class="cls-3" d="M226.78,270.44c.45.12,1.58.28,1.77.54.26.35-.03,1,.07,1.3-.9-.36-1.88-.7-1.84-1.84Z"/>
    <path class="cls-5" d="M230.45,280.54c-.28,1.93-1.27,1.36-1.84,1.84-.2.16.62.16-.92.92v-.91s.92-.01.92-.01v-.92c.41-.08,1.13-1.01,1.84-.92Z"/>
    <path class="cls-3" d="M225.86,270.44c-.38-.11-.87.02-1.17-.45-.21-.28-.18-.61-.21-.93.93-.04,1.42.47,1.38,1.38Z"/>
    <path class="cls-5" d="M226.78,283.76c-.3.32.77.74-.92.92-.16-.88.04-1.07.92-.92Z"/>
    <path class="cls-16" d="M288.4,266.3c.74.03,1.28.52,1.84.92.02.15-.02.31,0,.46.03.3,0,.62,0,.92,0,.46,0,.92,0,1.38v1.84c-.32.29-.63.6-.92.92-1.07.05-1.78.75-1.84,1.84-.63.54-1.48,1.05-1.84,1.38-.88-.15-1.07.03-.92.92-.29.05-.64-.05-.92,0-.9.17-2.07.3-2.76.92-.35-.03-1.77-.06-1.84,0h-.92s0,.92,0,.92c-.4.05-.98.04-1.38,0-3.37-.34-3.96.27-6.9.46-1.22.08-2.46-.05-3.68,0-.61.03-1.23-.02-1.84,0s-1.23-.05-1.84,0l-.92-.46c-.58-.07-1.31.11-1.84,0-2.71-.56-11.36-2.73-12.41-5.29-.74-1.8,3.59.52,4.01.59,2.35.43,5.59.86,7.94,1.02.3.02.62-.02.92,0v.92s1.38,0,1.38,0c.73.08,1.61-.11,2.3,0,.89.15,2.66,1.23,3.68,0,6.52.81,11.6.23,17.45-2.79l.03-1.35-1.84-.91c.65-.1,5.68-1.15,4.6-2.3-.42-.08-1.04.1-1.38,0-.47-.15-1.15-.81-.92-1.38.31-.1.64-.4.92-.46.54-.12,1.39-.48,1.84-.46Z"/>
    <path class="cls-5" d="M289.32,272.74c-.93,1.04-.65.82-1.84,1.84.06-1.09.77-1.78,1.84-1.84Z"/>
    <path class="cls-11" d="M279.2,277.79c-.31.24.8.72-.92.92v-.92s.92,0,.92,0Z"/>
    <path class="cls-6" d="M204.7,275.49c.05.13-.05.32,0,.46.32.88.83,1.45.92,2.29-1.84.3-2.42-1.45-2.76-2.98l1.85.22Z"/>
    <path class="cls-11" d="M226.78,274.57c-.36.09-.94-.04-1.38,0,0-.31,0-.61,0-.92,0-2.31-.56-.91-1.28-1.46-.26-.2-.04-.79-.1-.83,1.4.25,2.89,1.69,2.76,3.22Z"/>
    <path class="cls-5" d="M228.16,276.41c.49.15,1.14-.4.93.69-.6,3.02-2.97,1.82-3.23,2.07v1.37s1.38.92,1.38.92c-1.3-.07-2.22-.56-3.42-.9l-.74,2.26c-1.21,0-2.45.09-3.66.02-.04-2.24,3.62-1.95,4.47-2.89.3-.33.17-1.21.56-1.49,1.36-.99,4.46,1.27,3.71-2.05Z"/>
    <path class="cls-5" d="M225.4,273.65c0,.31,0,.61,0,.92-.39.04-.79,0-.92.46-.15-.13-1.24.26-.92-.92.61-.22,1.14-.54,1.84-.46Z"/>
    <path class="cls-11" d="M267.7,275.95c-1.02,1.23-2.79.15-3.68,0,1.24-1.22,2.72-.12,3.68,0Z"/>
    <path class="cls-5" d="M285.64,267.22c-.23.57.45,1.23.92,1.38-.17.99-2.11-.25-2.3-.69v-.68c.42-.08,1.04.11,1.38,0Z"/>
    <path class="cls-11" d="M260.35,275.03c.46.03.92-.04,1.38,0v.92s-1.38,0-1.38,0v-.92Z"/>
    <path class="cls-11" d="M215.74,188.22c.76.22.18,1.72.69,1.84,2.09.49.28-1.75,2.06-1.38l-.05,4.09-1.79.05c-.48,1.35,1.42,2.02,1.4,2.97-.02.65-.89,1.16-.92,1.84-.04.93,1.75,3.96.91,5.75l1.77.06c.58,2.74,3.44,9.17,5.16,3.64l1.35-.03,1.84,8.73c2.93-.5.76-3.47.48-4.85-.47-2.39.28-3.81-2.12-5.72-.87-.5-3.27,2.86-3.87,2.3l-.46-2.29,2.29-.69c-.51-.59-2.15-2.22-2.23-2.84s.82-1.03.78-1.68c-.04-.68-1.31-1.9-.84-3.06l1.42.26c.28.4.58,4.99,1.79,3.87.57-.72-.64-6.29,1.87-4.39.68.51.69,3.1,1.01,4.04.22.65.94.94,1.13,1.56.1.33-.28.91-.08,1.51.37,1.11,1.73,2.3,2.98,2.33.01.3-.03.62,0,.92.04.39,0,.79.46.92-.14,2.02.09,3.5,2.3,4.13.57,2.99-1.8,3.42-3.68,4.83.07,1.53,2.28,1.13,1.85,2.75-1.36-.02-1.68,1.36-1.94,1.52-.77.48-3.73-.94-4.26-1.79-.36-.58-.1-2.34-1.66-1.13-.6.46.11,2.16-1.81,1.63-.78-2.38-1.89-4.94-1.84-7.35-1.02-.07-1.48-.18-1.38.92h-.92c-.67-1.06-1.65-3-1.82-4.88-.09-.91.58-3.22.44-3.39-.86-1.03-.79,1.19-1.37.91v-3.21c-1.33-.24-.91.49-.92,1.38h-.92c-.08-.9.1-1.87,0-2.76-.22-1.86-.32-3.65-.46-5.51-.02-.3.02-.61,0-.92,1.84.25.91-2.08.92-2.76,0-.31-.02-.61,0-.92.06-1.14.44-2.68.46-3.22Z"/>
    <path class="cls-11" d="M217.12,212.1h-1.84c-.15-1.47-.06-3.53,0-5.05.02-.5-.14-1.16.46-1.38.18,2.11.95,4.37,1.38,6.43Z"/>
    <path class="cls-1" d="M214.82,201.54c.1.89-.08,1.86,0,2.76h.92c0,.45-.04.93,0,1.37-.6.22-.44.87-.46,1.38-1.49.26-.77-.75-.9-1.6-.12-.8-1.3-4.28.44-3.91Z"/>
    <path class="cls-5" d="M346.34,190.05c1.01,2.6,2.66,4.86,2.78,7.93.15.4.54.39.9.34,1.17,3.82,2.38,8.35,3.83,12.02.66,1.67,2.56,3.96,2.87,4.94,2.84,9.05,4.52,18.73,8.94,26.67.32.57,1.07,5.57,2.57,6.85l3.41,3.25c-.44-.04-1.67-.65-1.84-.46v1.36c1.01.11,1.95.42,2.97.49,3.81.27,11.72-.61,15.41-1.64,2.71-.76,4.79-2.77,7.37-3.43.13.77-1.7,1.95-2.23,2.24-4.63,2.53-16.3,4.47-21.48,3.76-.49-.07-4.39-1.25-4.57-1.4-1.06-.85-4.95-9.53-5.64-11.36-2.4-6.44-4.05-15.99-7.11-21.83-.66-1.27-1.9-2.12-2.67-3.77-2.75-5.88-4.15-15.23-5.84-21.75-.21-.8.28-1.73-1.05-1.46.09-.16-.14-.71.03-1.02.26-.45,1.2-.94,1.35-1.74Z"/>
    <path class="cls-16" d="M384.97,230.02c.86.49,1.92,1.91,2.3,2.76.4.9-.59,1.4,1.38,1.84.68.15,2.16.05,2.76.46.04.03-.13.62.11.79,2.59,1.85,4.06.71,7.25,4.26.5,1.84.47,3.22,0,5.05-.36,1.4-.7,1.42-1.38,2.3h-.92s0,.92,0,.92c-.29.05-.66-.07-.92,0-2.58.67-4.66,2.67-7.37,3.43-3.69,1.03-11.6,1.91-15.41,1.64-1.02-.07-1.96-.38-2.97-.49v-1.36c.16-.19,1.4.42,1.83.46,1.26.11,4.17.21,5.28,0,.95-.19,1.24-1.02,1.97-1.25,1.64-.52,3.78-.3,5.2-.78,1.12-.37,1.26-1.58,1.67-1.67.87-.19,1.81.45,2.59.34,1.51-.2,4.58-2.72,6.06-3.53l-1.35-.45c-1.3-2.33,2.22-1.41,2.95-2.76h-3.68s0-1.38,0-1.38l3.22-.92c-2.42-.53-4.84-1.13-7.25-1.73-.78-.19-1.99.03-2.4-.12-.18-.06-2.69-2.36-2.76-2.53-.31-.78,1.3-1,1.84-1.14.39-.11,1.86.34,1.38-.68-.22-.46-.85-.78-1.34-1.9-.36-.83.52-1.37-1.42-1.09-.04-.29.03-.62,0-.92.34.17.88.17,1.38.46Z"/>
    <path class="cls-5" d="M340.82,195.11c.09.11-.08,1.5.7,1.83,1.06.3.35-1.22,1.6-.91-3.19,5.83-9.46,11.5-16.1,13.32-1.5.41-5.43.46-5.8,2.29-.13.63.27.81.28.92.03.34,0,.96-.46.92-.67-1.09-2.05-2.28-2.76-3.67-.35-.69-1.56-2.23-.22-2.75.87-.34.46,1.43,2.76,1.42s2.08-1.23,2.53-1.43c5.28-2.35,7.89-4.2,12.42-7.81,1.18-.94,2.06-1.43,3.22-2.76.38-.43.78-.78.92-1.38.15.11.83-.11.92,0ZM341.28,197.87l-2.3-.46c.18,2.23,1.13,2.51,2.3.46Z"/>
    <path class="cls-11" d="M321.51,212.56c.98-.21,1,.53,1.38,1.13,2.43,3.84,6.99,10.28,8.74,14.03.06.13-.06.33,0,.46,1.95,4.21,2.98,7.97,3.22,12.4l-1.38-.46c.09-3-1.11-3.74-1.84-5.97-2.21-6.76-3.36-7.19-6.44-12.4-1.32-2.23-2.56-5.71-4.14-8.27.46.04.49-.58.46-.92Z"/>
    <path class="cls-16" d="M346.34,190.05c-.15.79-1.09,1.28-1.35,1.74-.18.31.06.86-.03,1.02-.53.99-1.25,2.13-1.84,3.22-1.25-.31-.54,1.21-1.6.91-.78-.33-.61-1.73-.7-1.83.28-.48.65-.9.92-1.38.45-.8.59-1.65.92-2.3.46-.91.89-1.89,1.38-2.76.05-.09.59-.38.92-.92,1.89-.08,1.1,1.57,1.38,2.3Z"/>
    <path class="cls-5" d="M282.88,210.26c.36.37,1.18,1.13,1.38,1.38s.15,1.02.92,1.84c4,4.25,12.28,11.68,15.18,16.08.1.15-.24,1.01.09,1.29.23.19.94-.02,1.16.17.3.26.24,1.35.64,1.91,1.85,2.64,4.81,6.44,6.84,9.02h-.92c.1.67-.17,1.74,0,2.3h-.46c-.06-1.96-1.34-2.86-2.3-4.13-1.71-2.28-3.69-4.28-5.52-6.43-.16-.18-.36-.73-.92-1.38-.35-.41-.56-.97-.92-1.38-.68-.78-1.32-.86-1.38-.92-.48-.54-.73-.72-.92-.92-.78-.84-1.89-2.22-2.76-3.22-.14-.16.07-1.07-.75-1.33-.9-.29-1.87.13-2.73.39-5.71,1.71-13.15,5.93-18.14,9.21-.96.63-2.69.85-3.22,2.3-.14.04-.32-.04-.46,0-1.17.36-2.23,1.53-3.22,2.3-.14.11-.68,0-.92.22-1.52,1.21.68,2.49.92,2.99.16.34.23.89.46,1.38.07.16-.14.68.05.87.2.21.78-.03.87.05.07.06-.06.32,0,.46.64,1.44,1.09,4.46,2.76,4.59.15.39.25.85.46,1.38.34.88.07,2.13,1.38,1.84.04.15-.05.33,0,.46.79,2.25,2.15,3.71,3.68,5.51.29.35.45.88.92,1.38l.46,3.21c1.22.06,2.46-.06,3.68,0,2.59.13,3.95.37,6.44.92.05.01.2.31.92.46.4.08.95-.07,1.38,0l.46,1.84c-.45-.02-1.3.34-1.84.46-2.23-3.23-15.13-.02-16.37-1.82-.32-.46.34-1.53.2-2.42-.95-6.18-6.41-13.38-8.78-19.29-.34-.85-1.32-1.19-1.26-2.19,0-.08.63-.47.46-.92h-1.38c-.34-.6-.42-1.32-.46-1.38,1.53.2.76-.55.7-1.38-.2-2.65.08-4.36-2.99-5.05.44-1.23-.38-2.5-.46-3.22-.32-2.71-.4-5.4-1.34-8l2.72-.27c-.16,1.46.34,2.17.46,3.22.25,2.27.43,2.35.92,4.13.07.26-.08.67,0,.92.48,1.61,1.23,3.45,1.84,5.05l-.45.23c-.44,1.52.85,1.06.91,1.15.1.13-.1,1.26.43,1.64,1.24.91,5.17-2.84,6.51-3.67,2.64-1.63,5.93-2.91,8.24-4.86l14.26-5.52c.48-2.06-2.05-2.44-2.76-3.21-.26-.28-.45-.89-.92-1.38-1.04-1.09-2.1-2-3.22-3.22-.42-.45-.63-1.15-1.38-1.38.18-1.24-4.27-3.84-4.82-5.05-.22-.48.23-.83.22-.92,2.93-.68,2.73.83,3.94,1.83.45.37,1.08.43,1.12.47Z"/>
    <path class="cls-6" d="M330.24,250.69v.92c-1.25,1.12-2.2,2.3-3.68,3.22l-.46.92c-.42.22-1.7.81-1.84.92-.93-.01-1.42.45-1.38,1.38-.75.41-2.12.79-2.76,1.38-.88-.15-1.07.03-.92.92-3.25,1.15-3.91,1.97-7.55,2.79-1.65.37-4.24,1.97-5.33-.04.03-.14,0-.31,0-.46,0-.34.07-1.28,0-1.38.17-.12.3-.37.46-.46.39-.23,1.3-.9,1.38-.92.22-.06.64,0,.92,0,2.07.04,4.53.92,6.44-1.16.46-.5.36-1.39.52-1.53.2-.18,3.79-.56,5.13-1.1.49-.2.69-.77.78-.81.99-.47,2.21-.7,3.22-1.38h1.37s.01-.92.01-.92c.08-.07-.08-.39,0-.46h1.37s0-.92,0-.92c.08-.1.65-.99.92-1.38.5-.23,1.28.46,1.38.46Z"/>
    <path class="cls-16" d="M332.54,243.8h1.38c-.07.2-.04,1.06,0,1.38-.61.23-.43.88-.46,1.38-.02.3.04.63,0,.92-.84-.17-1.06.09-.92.92-.82.62-.63,1.18-.92,1.84-.43-.05-1.14.47-1.38.46-.1,0-.88-.69-1.38-.46.79-1.12,2.66-6.05,2.88-6.32.19-.23.78-.07.8-.11Z"/>
    <path class="cls-5" d="M334.84,240.58c.02.3,0,.61,0,.92l-.46,1.84c-.09.08-.45.43-.46.46h-1.38c.53-1.1.88-2.42.92-3.67l1.38.46Z"/>
    <path class="cls-12" d="M264.48,238.74l-.48,1.57.94.27c-.03.3.05.64,0,.92s-.18.4-.46.46c-.24-.5-2.44-1.78-.92-2.99.24-.21.79-.11.92-.22Z"/>
    <path class="cls-5" d="M324.27,256.66c-.13.1.24.49-1.38,1.38-.04-.92.45-1.39,1.38-1.38Z"/>
    <path class="cls-5" d="M331.62,250.23c-.79,1.79-.84.9-1.38,1.38v-.92c.24,0,.95-.51,1.38-.46Z"/>
    <path class="cls-11" d="M333.92,245.17c.02.15.75.71.46,1.38h-.92c.03-.5-.15-1.15.46-1.38Z"/>
    <path class="cls-5" d="M326.57,254.82l.46.92c-.28.07-.75-.09-.92,0l.46-.92Z"/>
    <path class="cls-5" d="M320.13,259.41c-.4.37.82.3-.92.92-.15-.88.04-1.07.92-.92Z"/>
    <path class="cls-11" d="M372.55,168.46c-.18.19-.22.88-.6,1.22-1.9,1.7-4.57,3.33-7.22,2.91-.19.18.71,3.23.93,3.8.18.48.88.29.91.33.1.18.25,3.23.46,4.13.16.72.19,1.4.92,1.84,0,.15,0,.31,0,.46.01,3.32,1.97,5.85,2.92,8.84.4,1.26.63,3.63,1.22,4.94.36.92-.92.89-.93,1.18-.04,1.27.7,4.86,2.77,3.87-.02.16.03.33,0,.46-.07.32-.74.79-.83,1.26-.35,1.84,6.44,17.18,7.87,19.73l2.61,2.9c.55,1.3,1.77,2.03,1.38,3.67-.5-.29-1.04-.29-1.38-.46-2.64-1.33-1.48-3.13-3.68-4.13-.15-.07-.29-.39-.46-.46-.24-2.53-1.77-4.69-2.76-6.89-4.92-10.91-7.85-20.46-10.58-32.15-1-4.28-1.42-8.77-2.99-12.87l-5.75-1.37c-.11-.89-.5-.69-.46-2.3,2.01-.65,3.07.91,4.48,1.27,2.91.75,7.41,1.14,8.86-2.19h2.3Z"/>
    <path class="cls-3" d="M373.93,202.46l2.3,4.36c1.18,2.81,2.28,5.6,3.22,8.5.39,1.21.36,3.94,1.84,3.67.03.15-.03.31,0,.46.51,2.3,1.42,4.82,2.3,6.89l-2.61-2.9c-1.44-2.55-8.23-17.9-7.87-19.73.09-.47.75-.94.83-1.26Z"/>
    <path class="cls-3" d="M373.93,202c-2.07.99-2.8-2.6-2.77-3.87,0-.29,1.29-.26.93-1.18.77,1.72,2.14,2.02,1.84,5.05Z"/>
    <path class="cls-5" d="M215.74,204.29c.02-.88-.4-1.62.92-1.38v3.21c.59.27.52-1.94,1.38-.91.14.17-.53,2.48-.44,3.39.18,1.88,1.16,3.82,1.82,4.88.28.44-.41,3.74.92,4.59-.05.22-.02.65,0,.92.02.39.02.79.46.92-.04.26-.02.64,0,.92.04.5.32.64.46.92.39.8.14.66.92,1.38.26,1.65-.06,4.62,1.38,5.51,0,.31,0,.61,0,.92,0,.22.4.87.46,1.38.07.58-.12,1.34,0,1.84.2.89,1.08,3.41,1.52,4,5.01,6.64,8.2,15.81,13,23.07.68,1.02,2.39,2.19,2.49,2.34s.16.53.46.92c.54.7,1.07,2.52,1.84,3.22v1.38s-.92,0-.92,0c-2.77-4.08-5.42-8.39-8.28-12.4-.26-.36-.32-.91-.51-1.32l-1.33-.06c-.1.55.13,1.37,0,1.84-.11.37-.32,1.06-.46,1.38-.06.13-1.19,2-1.38,2.3-.1.15-.34.28-.46.46-1.01,1.53-2.54,3.51-3.68,5.05-.46.63-.71-.53-1.38,2.3-.14.59-.54,1.03-.46,1.84.03.32,0,.65.21.93.29.47.79.34,1.17.45.26.07.66-.07.92,0-.04,1.14.94,1.48,1.84,1.84.47,1.5,2.08,2.37,2.65,5.4.15.77.66,2.25-.81,1.95,0-1.06-.96-4.78-1.61-5.51-.97-1.1-1.36.28-2.07.46.13-1.52-1.36-2.97-2.76-3.22-.49-.41-1.31-.42-1.41-.75-1.12-3.86,1.63-6.35,3.25-9.36.25-.47.73-.92.92-1.38.76-.22.96-.91,1.38-1.38,1.81-2.02,2.69-4.21,4.09-6.6-1.91-2.47-3.39-6.13-5.27-8.53-.73-.94-2.25-1.75-2.53-2.2-.18-.29-1.31-5.14-1.8-6.56-.38-1.07-1.2-2.68-1.32-3.09-.28-.98.76-2.56-.06-3.96l-1.15-.3c-1.52,1.46-1.4,3.26-2.04,4.86-.8,2.01-1.23,3.47-1.87,5.25-.03.09-.29.41-.46.92-.08.24.08.67,0,.92-.05.15-1.27,2.76-1.35,2.9-3.05,4.64-6.17,9.92-8.08,15.48-1.43,4.17-1.92,8.94-3.48,13.1-.21,1.91,1.12,3.06,1.87,4.82l-1.85-.22c.35,1.53.92,3.28,2.76,2.98-.08-.85-.6-1.42-.92-2.29,1.46-.06,1.55,1.46,2.33,2.04,1.45,1.08,5.07,2.51,6.87,3.27.68.29,1.66-.17,1.38,1.13-3.57-.64-5.85-2.34-9.19-3.21.99,2.74,5.11,4.63,7.79,5.31,3.55.9,6.19.56,9.68.2.22,1-.48,1.12-1.25,1.26-3.11.56-8.16-.38-11.17-1.26-.76-.22-1.64-.61-2.76-.92-.14-.04-.32.04-.46,0-.73-1.99-2.98-3.72-4.6-5.05-.16-.13-.29-.33-.46-.46-.66-1.96-1.46-3.93-1.84-5.97-.08-.41.05-.94,0-1.38.73-1.96.89-4.4,1.38-6.43,1.46-6.07,4.23-12.1,6.44-17.91.23-.62,1.03-.9,1.38-2.76l1.33-1.27c.04-1.85,1.23-3.2,1.89-4.7,1.61-3.68,6.27-13.27,5.86-16.64-.32-2.64-1.6-6.27-2.18-9.08-.43-2.06-1.2-4.33-1.38-6.43-.04-.45,0-.93,0-1.38Z"/>
    <path class="cls-11" d="M243.33,266.3c.07.07.7-.16.85.04.17.24.92,6.21,3.04,3.62,1.99-2.44-2.7-5.93-2.98-8.03-.17-1.29,1.67-.61,2.2-.35,2.31,1.16,1.31,3.11,1.59,4.37.55,2.45,3,3.67,5.02,4.65,2.48,1.2,6.43,1.25,6.38,4.42-2.35-.16-5.59-.6-7.94-1.02-.41-.07-4.75-2.39-4.01-.59,1.05,2.56,9.7,4.72,12.41,5.29-.59.87-1.96.44-2.78.25-4.96-1.15-9.87-3.11-12.78-7.45-.86-1.28-1.17-2.73-1.91-3.83h.92s0-1.38,0-1.38Z"/>
    <path class="cls-12" d="M275.06,259.87c.07.08.93.01,1.41.66.89,1.19-.29,2.1,2.73,1.64v.92c-1.22-.06-2.46.06-3.68,0l-.46-3.21Z"/>
    <path class="cls-12" d="M270.46,252.98l1.87,1.11,1.81,4.4c-1.53-1.8-2.89-3.26-3.68-5.51Z"/>
    <path class="cls-12" d="M265.86,244.72c1.53.05,2.22,3.19,2.76,4.59-1.67-.13-2.12-3.16-2.76-4.59Z"/>
    <path class="cls-14" d="M232.29,255.74c.13-.47-.1-1.28,0-1.84l1.33.06c.19.41.25.96.51,1.32l-1.84.46Z"/>
    <path class="cls-12" d="M270.46,252.52c-1.31.29-1.04-.96-1.38-1.84,1.62-.03,1.14.97,1.38,1.84Z"/>
    <path class="cls-12" d="M264.94,243.34h.92s0,.92,0,.92c-.1-.08-.67.15-.87-.05-.19-.19.03-.71-.05-.87Z"/>
    <path class="cls-11" d="M344.5,128.5c-2.07.39-4.69.44-6.26.83-1.75.43-4.63,2.61-6.43,2.85-1.02.13-1.95-.57-2.66-.48-.3.04-.24.85-.6.94-1.94.48-4.95-.58-7.05.47-.33,1.88,2.47.47,3.47.44,2.77-.09,2.36,1.32,2.51,1.39-.66.43-1.56.69-2.3.92-1.44.45-2.26.55-3.68,1.38,0-1.47.52-1.27-.93-1.17-2.05.15-3.63.74-5.51,1.17-4.04.91-8.72,2-12.42,3.67.36-1.02.6-1.34.91-2.07.59-1.39-3.07.48-3.35.67-.52.36-.57,1.18-1.26,1.61-1.72,1.09-6.41,3.03-7.34,4.85h-1.52s-.32-.92-.32-.92c2.44-.32,2.28-1.61,3.91-2.75,1.4-.98,8.38-5.61,9.43-5.97,1.87-.65,5.04-1.29,6.9-1.84,2.54-.75,7.72-2.39,10.12-2.76.98-.15,2.21.13,3.22,0,.3-.04.62.03.92,0,.15-.02.31.01.46,0s.31.01.46,0c.97-.08,2.32-.18,3.22-.46.15-.05.34.05.46,0,.24-.03.41-.45.46-.46.91-.16,2.27.64,2.77.27l.44-2.1c3.09.09,5.34-1.31,7.82-1.38.8-.02,3.29.53,4.14.92Z"/>
    <path class="cls-5" d="M287.48,145.04c-.57.35-1.08.62-.92,1.38-4.38-.08-13.33,4.69-19.31,5.51-3.44.47-6.38.19-9.66.46l-.23-.46-.69.46c-1.13.09-2.12.31-3.22.46-.89-.18-.8-1.22-.92-1.38.61-.02,1.23.03,1.84,0,3.49-.17,7.1-.51,10.58-.92.44-.05.96.07,1.38,0,.73-.13.96-.34,1.38-.46.36-.1,1.24.12,1.38,0h.92s0-.92,0-.92c.43-.07.99.09,1.38,0l.92.46v-.92c6.32-1.66,8.47-3.88,15.18-3.67Z"/>
    <path class="cls-11" d="M257.59,150.09c1.22-.09,7.05.21,7.36,0v.46c-3.47.41-7.09.74-10.58.92-.38-1.35,2.09-1.3,3.22-1.38Z"/>
    <path class="cls-16" d="M289.78,145.04l.32.92h1.52c-.12.23.1.99,0,1.37-1.08-.16-2.13-.34-3.22-.46-.67-.07-1.61-.46-1.84-.46-.16-.76.35-1.02.92-1.38.71.02,1.63.09,2.3,0Z"/>
    <path class="cls-9" d="M266.78,149.63l-.46.92c-.41.07-.94-.05-1.38,0v-.46c.31-.21-.86-1.44,1.84-.46Z"/>
    <path class="cls-11" d="M267.7,150.09c-.41.12-.65.33-1.38.46l.46-.92c.32.12.72.05.92.46Z"/>
    <path class="cls-11" d="M272.3,148.71v.92s-.92-.46-.92-.46c.05-.01.34-.31.92-.46Z"/>
    <path class="cls-11" d="M270,149.17v.92s-.92,0-.92,0c.33-.29-.83-.63.92-.92Z"/>
    <path class="cls-12" d="M321.97,160.2c.15.43,1.83.44,0,2.29l.93.23c.34,1.29-.64.96-.92,1.47-.17.31.09.93,0,1.06-1.41,1.9-2.73,1.33-3.78,1.88-7.45,3.9-14.15,7.96-21.92,11.26-.45.19-.77.85-1.3,1.02-1.35.42-2.51-.37-3.81-.37v2.76c2.8.76,3.44-1.4,5.97-1.38l-.92,1.83c1.12-.48,1.45.88,1.69.93,1.89.41,2.72-1.92,4.12-2.71,6.09-3.45,13.55-6.1,19.9-9.52,1.41-.76,2.57-2.1,4.18-2.48.38,1.47.13.47,1.2,1.09.33.19.51.68.64.74v.46c-.11-.1-.68.09-.92,0-.35-.14-.68-.72-1.38-.46l-.46,2.76c-.95.4-1.72.6-2.76.46-.03-.07-1.02-.12-1.2-.92-1.86.73-5.23,2.14-4.78,4.6-1.87-.18-1.91-1.26-3.95-.53-1.22.43-2.86,3.2-3.4,3.52-1.19.71-4.66-.53-5.06,1.83-.15.88.21.76.92.68.38-2.46,1.52.02,1.67.04.35.05,5.72-1.81,6.57-2.14,3.18-1.24,6.16-3.05,9.24-4.32,2.36-.97,4.85-1.59,7.19-2.69.74-.35,1.65-.08,1.55-1.44.83.76,1.15.88.92,2.3-.94.16-1.38.23-1.38,1.38-.15,0-.31,0-.46,0-1.04-.01-1.63-.84-3.11-.13-1.39.66-.82,1.67-1.03,1.97-1.07,1.51-1.91,1.1-2.3,1.38-1.7-2.38-2.16-.21-2.77.19-.82.54-2.49.51-3.62,1s-2.58,2.28-3.09,2.38c-.78.16-2.07-.76-3.1-.68-3.02.24-2.46,3.61-3.75,4.91-.89.89-3,.06-2.52,2.3,3.25.44,4.71-2.95,7.82-2.29.53,1.72-1.14,1.35-1.61,2.29-1,2-1.08,3.55-1.15,5.52-1.72-.29-2.83,1.79-4.01,2.2-1.61.56-2.26-.93-2-2.35.11-.58,1.77-.49,1.41-1.69l-2.75.91c-.48-1.27,1.33-2.58,2.45-2.25.87.25,1.3,3.42,2.6,2.25.34-.3-2.07-3.48-2.61-3.6s-1.18.34-1.67.24c-.71-.14-1.48-1.18-2.61-.78v1.56c-.18,1.44-3.87-2.16-3.67-3.14.21-.97,3.35-.35,2.75-2.32-.56-1.83-3.33.45-4.01.58-.37.07-.49-.33-.58-.35l.93-2.52c.34-1.62-3.43-.26-3.69.55-.13.4.06,1.04,0,1.51l1.83-.91c.04.45-.05.93,0,1.38.12,1.08-.01,2.17.46,3.22-.52,0-.92.32-1.38.46l-1.19-2.68-3.43.58-.91,3.47h-1.37s.46-1.83.46-1.83c-2.37-.61-.46,1.58-2.29,1.37l-.93-2.75c-1.41-.38-.63.78-1.03,1.23-.22.25-1.35.89-1.72,1.07-.86.39-5.08,2.26-5.37,2.31-1.55.28-2.18-.39-5.06.31-.46.11-1.1-.44-1.43-.25-.12.07-1.82,1.98-1.47,2.23,1.33-.6,2.75.92,3.46.93.81.01,1.19-1.05,1.93-1.3.79-.26,1.64,0,2.43-.09.67,1.85,2.57,1.81,1.84,4.6h-1.38c-.08-.35.2-1.06-.07-1.31-.42-.38-2.14.12-1.78-1.91h-.91c-.1,1.43-2.23.89-3.43,2.33-.5.6-.65,1.75-.73,1.81-.27.2-1.44-.58-1.99-.5-.4.06-.34,1.03-1.06,1.33-.97.41-2.48.18-3.71.9-1.38.82-1.13,1.98-2.27,2.81l-4.76-.41.92,3.67-5.9-.86-1.91,4.08c1.31.24,1.23-1.46,2.14-1.77,1.21-.41,2.4.44,3.09.29.53-.11.83-.9,1.18-1.03.59-.22,1.34.44,2.31,0,.67-.3.9-1.45,2.11-1.64.81-.13,2.4.2,3.21.46.65.2.81-.27.67.93-2.22.58-5.28,1.21-7.34,2.09-.54.23-.86,1.08-1.43,1.33-1.13.5-7.49,2.73-7.79,3.02-.22.22-.35.98.58.81,1.13-.21,2.47-.18,3.3-.39,1.02-.25,4.22-1.13,5.02-1.43s.67-1.99,2.57-1.28l.95,2.95-.45.48c-2.53.62-5.86,2-8.08,3.41-.89.56-1.32.5-1.12,1.87-.32-.19-1.14.24-1.81-.72s-.49-2.34-.5-3.42c-1.94-.44-2,1.03-3.41,1.86-1.05.62-3.14,1.33-4.4,1.36-.25-1.51,1.65-1.16,2.08-1.82.91-1.35.23-3.23-1.65-2.09-.49.3-.12,1.44-1.12,1.15-1.5-1.46-1.87-2.99-1.61-5.05-.55-.1-1.37.14-1.84,0-2.21-.63-2.43-2.11-2.3-4.13,0-.05.64-.43.46-.92h-.92c-.03-.3.01-.62,0-.92s.02-.62,0-.92c1.17.47,1.91.49,3.13.16,1.29-.35,7.93-3.2,7.91-4.52l-2.47-1.59c-1.42,1.64-2.35,2-4.57,1.9l-4,2.66c-.04-.75-.05-1.58-.07-2.49-.03-1.42-.35-3.1-.35-4.55.36-1.25,5.59-1.4,5.01-4.44-2-.07-3.69,2.41-5.67,1.78-2.63-.84,1.75-3.03,1.08-3.62l-1.83-.92c2.45-.76,2.69,1.41,4.71.8,1.31-.39,2.18-1.88,3.14-2.38,1.03-.53,4.33-.89,4.84-1.63l-.27-2.77c2.3-.51.74,2.66,3.82,1.85.44-.12.38-1,1.09-1.3,1.43-.59,9.71-2.94,10.2-3.41.19-.19-.09-.99.34-1.32.71-.55,3.64.15,4.71-.96.24-.25,0-.66.07-.83,1.06.09,2.16-.06,3.22,0l-.45-3.02-2.32.27.48,1.58c-1.13.42-.71.6-.94,1.18-1.28-.11-2.35-.75-3.9-.45-1.85.35-1.67,2.9-4.55.97l-1.95,3.11-1.55.03-.25-1.37-5.74,1.38c.27-2.85,4.89-1.05,4.14-4.59l2.75.46-1.81-.96-.02-1.34h-1.38s0,1.84,0,1.84c-2.53.64-.39-1.66-2.06-1.84-1.67,2.91-5.18,2.4-8.04,2.78l-.02,1.35,1.83-.46c-.75,1.7,3.94,3.08,1.61,4.13-.52.23-3.16-3.25-4.36-2.29-.21,1.61.12,2.39,1.84,2.3.99,1.01-5.99,3.41-6.78,3.56-2.46.47-2.82-.1-3.36-2.39l.97-.52c-.81-1.63-.41-3.09.03-4.74,2.95.62,2.34-1.56,3.17-2.13.9-.62,6.49-3.12,7.8-3.68.68-.29,1.83-.05,2.35-.42.49-.35.3-1.38.49-1.56.3-.29,2.39.12,3.3-.15,1.14-.34,1.68-1.79,4.46-2.21-.22,1.58-3.36,1.57-3.22,3.67l2.75-.91v2.06s.91.23.91.23c.11-1.4,1.82-2.95,3.09-3.12.59-.08,1.09.76,1.78.85,1.56.21,2.45-2.09,3.7-2.72s2.18-.27,3.1-.59c.48-.17,1.51-2.19,3.5-1.54l-.45,2.53c1.86.14,1.54-1.86,2.09-2.73.73-1.14,2.87-1.23,2.03-.03-.09.13-1.38-.27-.91,1.38.97.15,1.84-.3,2.76-.46l.23,2.3,5.26-.04.02-1.35c2.63,1.24,3.22-.14,5.06-.92v.92s.92,0,.92,0c-3.46,1.44-7.26,2.94-10.46,4.94l-6.05,1.54-.05,1.79c1.73-.63,4.01-.9,5.64-1.4.4-.12.34-.84.65-.9,1.43-.29,2.78,1.33,4.29.93-.34-3.93,6.68-3.97,9.66-5.06-.39,1.83,2.78.51,3.22.92l-.92,3.21c2.31-.83.72,2.35,2.06,1.83,1.55-.59,2.62-2.47,2.54-4.13l3.35,1.33c.91-1.57,3.65-1.29,4.47-2.02.51-.45.34-1.38.51-1.54.29-.27,2,.09,2.84-.16,1.23-.37,4.07-2.12,4.92-2.66.15-.1.92.02,1.37-.22,1.07-.57,1.95-1.48,3.23-1.63l-.23-.92c-1.58,1.21-2.91-.8-1.61-1.62.81-.51,1.66.36,2.45.18.67-.16,1.07-1.2,1.72-1.52.96-.47,2.57-.45,3.66-.71ZM251.15,178.11h-.91v.91h.91v-.91ZM274.12,179.96h-1.35c.32.89-1.83,3.54-2.3,2.4l-.04-.98c-2.83-.69-1.83.62-3,1.74-.82.78-6.15,2.6-7.23,2.34-.13-.03-1.52-1.99-2.15-.92s1.24,1.42-2.17,2.58c-2.12.72-2.31,1.09-4.16,1.9-1.61.7-4.55,1.15-5.88,1.93-.32.19-1.64,1.41-.89,1.87,1.78.08,3.13-1.66,4.46-2.02.96-.26,1.76.26,2.34.1.64-.17.94-1.05,1.58-1.23,1.12-.32,4.03.61,5.35.36,1.01-.35.44-1.6,1.06-2.3.69-.78,2.61-1.02,3.63-.92,1.09.1.21,1.32,1.58.96v-2.08c1.06-.67,3.63,1.26,4.15-2.05l.91.28c.23.99.75,2.47-.13,3.26-.28.25-6.22,2.98-6.74,3.13-5.72,1.72-8.34,3.1-13.72,5.58-.61.28-1.58.13-2.3.47-1.33.64-.44,2.18-2.85,1.05-.41.44,1.16,3.41,2.04,3.2,1.21-1.88,2.5-1.07,4.07-1.37.16-.03,1.55-1.93,2.49-2.19,1.02-.28,2.15,0,3.36-.32,3.11-.82,14.29-5.87,17.24-7.59.4-.23,1.94-1.37,2.01-1.66-.57-4.02-2.61.82-3.62-.17l-.43-2.93,3.11-1.74-.4-2.66ZM300.81,187.76h-.92c.54,2.69.81.09.92,0,.13-.11,1.18.44,1.85.27.41-.11,5.04-2.23,4.12-3.02-1.05-.91-2.45,1.6-3.22.91.63-1.23.36-3.66-1.38-3.67.14,2.34-.78,3.54-1.38,5.51Z"/>
    <path class="cls-3" d="M235.05,212.1c.47.13,1.29-.1,1.84,0-.26,2.06.11,3.6,1.61,5.05,1.01.3.64-.85,1.12-1.15,1.88-1.14,2.55.73,1.65,2.09-.44.65-2.34.31-2.08,1.82,1.27-.03,3.35-.74,4.4-1.36,1.41-.83,1.47-2.29,3.41-1.86,0,1.09-.16,2.48.5,3.42s1.49.53,1.81.72c.04.03.3.63.46.92,1.4,2.58,2.26,8.39,6.44,7.35.08.72.9,1.99.46,3.22-.03.08-1.08.4-.91,1.11.1.43,1.17.88,1.31,1.51.16.68-.54,1.51-.34,1.9.07.13,1.79,1.28,2.24,1.92.04.06.12.78.46,1.38.24.42.44.74.92.92-.06,1,.92,1.34,1.26,2.19,2.37,5.91,7.84,13.11,8.78,19.29.14.89-.52,1.96-.2,2.42,1.24,1.8,14.14-1.41,16.37,1.82-.28.06-.61.36-.92.46-.33.11-.96-.07-1.38,0v.68c.19.44,2.12,1.69,2.3.69.34.11.96-.08,1.38,0,1.08,1.15-3.94,2.2-4.6,2.3l1.84.91-.03,1.35c-5.86,3.01-10.94,3.59-17.45,2.79-.96-.12-2.44-1.22-3.68,0-.69-.11-1.57.08-2.3,0v-.92c-.46-.04-.92.03-1.38,0-.3-.02-.62.02-.92,0,.05-3.17-3.9-3.22-6.38-4.42-2.02-.98-4.47-2.2-5.02-4.65-.28-1.26.72-3.22-1.59-4.37-.52-.26-2.37-.94-2.2.35.28,2.09,4.97,5.59,2.98,8.03-2.12,2.59-2.87-3.38-3.04-3.62-.15-.21-.78.02-.85-.04-.77-.69-1.3-2.51-1.84-3.22,1.2.38,1.95-2.63,1.84-2.75-.64-.74-1.74,1.82-2.3,1.83-.1-.14-1.81-1.31-2.49-2.34-4.81-7.25-7.99-16.43-13-23.07-.44-.59-1.32-3.11-1.52-4l2.5-.93c1.03,1.19,1.67,2.77,3.48,2.31l-1.84,4.59c3.21-.06,2.51,1.11,3.67,2.88.26.39.88.43,1.27,1.13.31.56.87,3.05,1.11,3.27,5.86.54,2.4-1.17,1.5-3.08-2.57-5.47-5.52-9.79-7.18-15.35-.66-2.2-4.37-5.88-4.96-7.68,1.92.53,1.21-1.17,1.81-1.63,1.56-1.2,1.3.56,1.66,1.13.53.85,3.49,2.27,4.26,1.79.26-.16.58-1.54,1.94-1.52.44-1.62-1.78-1.22-1.85-2.75,1.87-1.41,4.25-1.84,3.68-4.83ZM244.24,235.99c-2.54-.17-2.3-2.79-3.01-4.1-.31-.58-2.51-4.05-2.74-4.15-.63-.28-1.2-.24-1.16.69.03.49,1.38,5.6,1.62,6.2,2.02,5.27,7.62,12.33,10.49,17.78.25.48,1.98.78,1.25,2.89h1.38c.01-.52.06-1.06-.02-1.58-.17-1.07-2.42-4.76-2.99-6.22-.52-1.33.38-2.26-1.59-3.01l1.16-2.06,2.33,3.2c.3,1.82,1.55,4.51,2.74,5.97.7.86,2.95,1.13,3.85,1.66,1.32.78,1.05,2.42,2.8,2.03.63-.57-2.76-5.65-3.48-6.41-.42-.45-1.22-.35-1.46-.59-.32-.31-.46-2.22-.86-3.05-.64-1.35-1.87-3.32-2.94-4.42,0-1.73,2.65.93,2.75-1.37l-4.14-.9c-1.68-2.28-3.93-7.86-5.99-2.56ZM251.15,259.42c-2.66.14-1.95-2.41-2.65-4.02-.53-1.21-2.65-4.61-4.26-3.58s1.67,3.01,2.03,3.5c1.14,1.57,2.3,4.09,3.04,5.92l1.82-.93v-.9ZM260.34,267.22l-3.67-6.66-1.84-.22c.3,1.11.31,2.47.9,3.46.45.77,3.64,4.28,4.62,3.42Z"/>
    <path class="cls-3" d="M245.17,160.2c-.15.16-.29.32-.46.46-1.28,1.03-4.05,2.08-5.48,3.02-.98.64-2.09,1.72-1.87,2.95l3.21-.45-.93,2.08.46,1.39c2.36-.16,5.29.27,7.47-.74.56-.26.6-1.05,1.39-1.47s2.05-.48,2.92-.79l1.11,1.82c-.3.03-.63-.04-.92,0-2.77.41-3.32,1.87-4.46,2.21-.91.27-3-.13-3.3.15-.19.18,0,1.21-.49,1.56-.52.37-1.67.13-2.35.42-1.3.56-6.89,3.06-7.8,3.68-.83.57-.22,2.75-3.17,2.13-.44,1.65-.84,3.11-.03,4.74l-.97.52c.55,2.29.91,2.86,3.36,2.39.79-.15,7.77-2.55,6.78-3.56-1.72.09-2.04-.69-1.84-2.3,1.2-.96,3.84,2.52,4.36,2.29,2.33-1.05-2.36-2.44-1.61-4.13l-1.83.46.02-1.35c2.85-.38,6.37.13,8.04-2.78,1.67.18-.47,2.48,2.06,1.84v-1.84s1.38,0,1.38,0l.02,1.34,1.81.96-2.75-.46c.75,3.54-3.87,1.74-4.14,4.59l5.74-1.38.25,1.37,1.55-.03,1.95-3.11c2.88,1.93,2.69-.62,4.55-.97,1.55-.3,2.62.35,3.9.45.23-.58-.19-.76.94-1.18l-.48-1.58,2.32-.27.45,3.02c-1.06-.06-2.16.09-3.22,0-.07.17.17.58-.07.83-1.07,1.11-3.99.41-4.71.96-.44.34-.15,1.13-.34,1.32-.49.47-8.77,2.82-10.2,3.41-.71.29-.65,1.18-1.09,1.3-3.08.81-1.52-2.36-3.82-1.85l.27,2.77c-.51.73-3.81,1.09-4.84,1.63-.96.5-1.83,1.99-3.14,2.38-2.02.6-2.26-1.56-4.71-.8l1.83.92c.67.58-3.71,2.78-1.08,3.62,1.98.63,3.67-1.85,5.67-1.78.58,3.04-4.65,3.2-5.01,4.44,0,1.46.32,3.13.35,4.55.02.9.03,1.73.07,2.49.02.46-.03.92,0,1.38.02.3-.01.61,0,.92-1.25-.03-2.61-1.21-2.98-2.33-.2-.6.18-1.18.08-1.51-.19-.62-.91-.91-1.13-1.56-.32-.95-.33-3.53-1.01-4.04-2.51-1.9-1.3,3.66-1.87,4.39-1.21,1.13-1.51-3.47-1.79-3.87l-1.42-.26c-.47,1.16.8,2.38.84,3.06.04.65-.85,1.07-.78,1.68s1.72,2.25,2.23,2.84l-2.29.69.46,2.29c.61.56,3.01-2.8,3.87-2.3,2.4,1.91,1.65,3.33,2.12,5.72.27,1.38,2.45,4.34-.48,4.85l-1.84-8.73-1.35.03c-1.71,5.54-4.58-.89-5.16-3.64l-1.77-.06c.84-1.79-.94-4.82-.91-5.75.03-.68.9-1.19.92-1.84.02-.96-1.88-1.63-1.4-2.97l1.79-.05.05-4.09c-1.78-.37.03,1.88-2.06,1.38-.51-.12.06-1.62-.69-1.84.07-2.15-.45-4.27,0-6.43.03-.01.13-.27.46-.46s1.07.07,1.33-.75c.37-1.17-.64-2.42-.35-3.51.19-.7,1.32-1.26,1.72-1.99.43-.79.39-1.75.79-2.43,2.03-3.48,9.21-8.85,12.6-11.07.43,1.31,1.42,1.4.92,3.22,1.57.45,2.08-.81,3.09-1.28.67-.31,1.59-.3,2.07-.57,1.14-.65,2.31-2.58,4.4-3.09,1.56-.38,1.97.33,2.4.34Z"/>
    <path class="cls-12" d="M220.34,213.48c-.11-1.1.36-.99,1.38-.92-.04,2.41,1.06,4.97,1.84,7.35.59,1.8,4.31,5.47,4.96,7.68,1.66,5.56,4.62,9.87,7.18,15.35.9,1.91,4.36,3.62-1.5,3.08-.24-.21-.8-2.71-1.11-3.27-.39-.7-1.01-.73-1.27-1.13-1.16-1.77-.46-2.94-3.67-2.88l1.84-4.59c-1.82.46-2.46-1.12-3.48-2.31l-2.5.93c-.12-.5.07-1.26,0-1.84h.92s0-1.38,0-1.38h-1.38c0-.31,0-.61,0-.92,0-.21.11-1.6.15-1.99.1-.95,1.55-1.42-.37-3.1-.44-.38-1.09-.36-1.16-.42-.78-.72-.53-.58-.92-1.38l.46-.23v-.68s-.92,0-.92,0c-.02-.28-.04-.66,0-.92,0-.06.65-.39.46-.92h-.92c-.02-.27-.05-.7,0-.92.02-.08.72-.45.79-1.19.09-.9-.48-2.49-.79-3.41Z"/>
    <path class="cls-3" d="M220.34,213.48c.31.92.88,2.51.79,3.41-.07.74-.77,1.1-.79,1.19-1.33-.85-.64-4.15-.92-4.59h.92Z"/>
    <path class="cls-3" d="M232.29,207.05h.92c.19.49-.45.87-.46.92-.45-.13-.42-.53-.46-.92Z"/>
    <path class="cls-14" d="M267.24,151.93c.65,4.28-4.47,5.01-7.53,5.99-.32-.07-.27-.78-.37-.85-.44-.31-7.21,3.48-8.79,2.77-1.81,1.15-3.91,1.49-5.85,2.19v-1.38c.17-.14.31-.3.46-.46,3.15.12,4.35-2.08,7.36-1.84l-.75-1.87-4.76,1.41-.7-2.76c-1.51,1.39-3.64,1.5-5.08,2.26-1.32.7-2.97,2.3-4.35,3.01-.86.44-1.57.62-1.36-.67,5.74-3.44,7.72-4.98,14.72-6.43.41-.08.96.08,1.38,0,.68-.12,1.54-.42,1.84-.46,1.1-.15,2.09-.37,3.22-.46.04,0,.21.34.55.31.17-.01.27-.3.37-.31,3.28-.27,6.22.01,9.66-.46Z"/>
    <path class="cls-12" d="M235.51,159.74c-.21,1.3.51,1.11,1.36.67,1.38-.71,3.03-2.31,4.35-3.01,1.44-.76,3.57-.88,5.08-2.26l.7,2.76,4.76-1.41.75,1.87c-3-.24-4.21,1.96-7.36,1.84-.43-.02-.84-.73-2.4-.34-2.09.51-3.25,2.44-4.4,3.09-.48.27-1.4.26-2.07.57-1.01.47-1.52,1.73-3.09,1.28.5-1.82-.49-1.91-.92-3.22,1.09-.71,2.16-1.2,3.22-1.84Z"/>
    <path class="cls-5" d="M250.23,153.31l-1.38-.46c-.57-.36,1.47-.91,2.07-.92.23,0,.46,0,.69,0v1.38c-.42.08-.97-.08-1.38,0Z"/>
    <path class="cls-11" d="M251.15,151.01c.68.07.84-.23,1.38.46.12.16.03,1.2.92,1.38-.3.04-1.16.34-1.84.46v-1.38c-.23,0-.46-.02-.69,0-.6.02-2.64.57-2.07.92l1.38.46c-7,1.45-8.98,2.99-14.72,6.43-1.06.64-2.13,1.13-3.22,1.84-3.4,2.22-10.57,7.59-12.6,11.07-.4.68-.36,1.64-.79,2.43-.4.74-1.53,1.3-1.72,1.99-.29,1.09.72,2.34.35,3.51-.26.83-1,.56-1.33.75v-1.84c-.76.02-1.54-.04-2.3,0-.25-1.08.91-.96,1.29-1.68.52-.99.58-2.49,1.11-3.5,3.85-7.23,11.66-13.58,18.75-17.79.49-.29,1.2-.82,1.38-.92,2.64-1.39,9.05-4.07,11.96-4.59.63-.11,2.07-.07,2.76,0Z"/>
    <path class="cls-5" d="M211.14,180.41c1.42,3.34.27,5.7-3.15,6.5l-.07,2.23,3.19-.91c.9,2.04,1.32,4.83,4.16,4.13-.01.67.92,3.01-.92,2.76,0-.15.02-.31,0-.46-.04-.29.03-.62,0-.92h-.68s-.23.92-.23.92c-.94.07-1.82.4-2.76.46.28-1.38-1.23-.78-1.88-1.56-.88-1.06-.36-4.39-2.26-4.41-.31-2.42.86-6.89,2.97-8.3.72-.48,1.3-.28,1.63-.43Z"/>
    <path class="cls-16" d="M213.9,179.49c.76-.04,1.54.02,2.3,0v1.84c-.33.19-.43.45-.46.46-2.14.89-3.18-.47-3.25,3-.04,2.02.79,1.44.92,1.93.3,1.06.18,4.67,1.87,4.71-.02.3,0,.61,0,.92-2.84.7-3.27-2.09-4.16-4.13l-3.19.91.07-2.23c3.42-.79,4.57-3.16,3.15-6.5.3-.14.64-.38.92-.46.39-.11.81-.44.92-.46.27-.05.62.02.92,0Z"/>
    <path class="cls-11" d="M206.54,189.14c1.9.01,1.38,3.35,2.26,4.41.65.78,2.16.19,1.88,1.56h-.46c-.65-.37-2.02-.3-2.53-1.38-.1-.21-1.09-4.14-1.15-4.59Z"/>
    <path class="cls-1" d="M213.44,194.65c.3-.02.61.02.92,0,.02.15,0,.31,0,.46.02.3-.02.62,0,.92-1.14-.18-2.83.27-3.84.01-.5-.13-.26-.91-.3-.93h.46c.94-.06,1.82-.39,2.76-.46Z"/>
    <path class="cls-11" d="M212.98,179.49c-.11.02-.53.35-.92.46v-.92s.69,0,.69,0l.23.45Z"/>
    <path class="cls-5" d="M215.74,181.79c-.45,2.16.07,4.28,0,6.43-.02.54-.4,2.08-.46,3.22-1.69-.04-1.57-3.65-1.87-4.71-.14-.49-.97.09-.92-1.93.08-3.47,1.12-2.12,3.25-3Z"/>
    <path class="cls-11" d="M213.44,194.65l.23-.92h.68c.03.3-.04.63,0,.92-.3.02-.62-.02-.92,0Z"/>
    <path class="cls-12" d="M354.62,192.35c3.81-.06,4,1.53,4.61,5.04,3.07-.9,5.63,3.27,4.58,5.98l1.82.03c.02,1.37,1.11,3.48,1.88,4.65s3.02,1.47-.47,2.21c-.08-2.54-1.64-1.82-2.65-2.42-1.6-.96-1.88-4.05-2.61-5.43-.66-.43-3.28-1.03-3.04.28.25,1.42,3.75,3.06,1.69,3.9l-.3.91,2.76.47-.89,2.01c.4.67,1.15,1.03,1.53,1.72.95,1.71.8,3.77,3.04,3.17l-.86,4.56,1.26.07.7,2.77,3.03,1.11-1.83.22.92,3.21.45-1.37c2.41-.69,1.1,3.18,3.68,3.21.2-.21-1.26-4.97-1.51-5.61-.56-1.43-2.53-2.16-1.26-4.23l.93-.26.09,1.29c1.97-.12,1.3,1.81,2.02,3.26,1.58,3.17,1.42,3.31,2.48,6.48-1.65-.21-.36,1.71-.86,3.02-.19.51.21.8-.75.65-.63-1.95-2.39-1.55-3.27-2.25-.3-.24-.96-1.59-2.03-2.56-.58-.53-.37-2.09-2.07-.71v2.32c.6,1.15,1.96.66,2.45,1,.14.1,1.35,2.85,1.38,3.01.21,1.08-.88,2.81.12,4.24l2.74-.45.22,1.84,1.62.45c.88-1.99-1.69-3.59-1.8-3.93-1.15-3.58,4.28.56,5.22.76.73.47.77,2.16,2.11,1.07v-2.04c1.52.15,2.81.52,2.75,2.29h-1.38c.63,3.54,1.46,1.32,2.76-.46.41.15,1.62-.08,2.4.12,2.41.6,4.83,1.2,7.25,1.73l-3.22.92v1.37s3.68,0,3.68,0c-.73,1.35-4.25.42-2.95,2.76l1.35.45c-1.47.81-4.54,3.34-6.06,3.53-.78.1-1.72-.53-2.59-.34-.41.09-.55,1.29-1.67,1.67-1.42.47-3.56.26-5.2.78-.73.23-1.01,1.07-1.97,1.25-1.12.22-4.02.11-5.28,0l-3.41-3.25c-1.5-1.28-2.25-6.28-2.57-6.85.06-1.31-.52-1.4.95-1.17,2.76.43,1.32.88,2.24,1.87.63.68,1.85.81,1.89,2.04,3.33-.53-.89-3.73-1.3-5.39-.34-1.35.32-2.14.17-3.34-4.43-.85-3.35-2.78-4.93-5.68-.13-.24-2.24-2.22-2.24-2.39-.02-3.26-.38-3.36-1.26-6.5-.34-1.2-.08-2.34-1.06-3.55l.93-.9c-1.03-.94-1.35-2.24-1.83-3.46-.87-2.25-1.48-4.64-2.3-6.89,3.18.33.45-3.12.13-4.04-.79-2.32-1.1-6.97-4.27-6.99-.17-.45-.3-.92-.46-1.38.73.6,1.37-1.41,1.38-1.84.31,0,.61,0,.92,0Z"/>
    <path class="cls-3" d="M350.02,198.32s-.05-.67.68-.45c.82.24,3.7,8.56,4.5,10.21.49,1.01,1.7,2.22,2.13,3.02.52.97-.26,2.87,1.89,2.38.48,1.23.8,2.53,1.83,3.46l-.93.9c.98,1.21.72,2.36,1.06,3.55.88,3.14,1.25,3.25,1.26,6.5,0,.16,2.1,2.14,2.24,2.39,1.58,2.9.51,4.84,4.93,5.68.15,1.2-.51,1.99-.17,3.34.42,1.65,4.63,4.85,1.3,5.39-.05-1.23-1.26-1.36-1.89-2.04-.92-.99.52-1.44-2.24-1.87-1.47-.23-.89-.14-.95,1.17-4.42-7.94-6.1-17.63-8.94-26.67-.31-.98-2.21-3.27-2.87-4.94-1.44-3.67-2.66-8.2-3.83-12.02Z"/>
    <path class="cls-11" d="M347.72,187.76c1.08.63,1.53,2.46,2.17,3.59.42.75-.23,1.31,1.51,1,.17.49.64,1.07.92,1.84.16.46.29.93.46,1.38,1.25,3.36,2.79,7.32,4.14,11.02.82,2.25,1.43,4.64,2.3,6.89-2.15.49-1.37-1.42-1.89-2.38-.43-.8-1.63-2.01-2.13-3.02-.8-1.64-3.68-9.96-4.5-10.21-.73-.21-.64.45-.68.45-.37.05-.75.07-.9-.34-.11-3.07-1.77-5.33-2.78-7.93-.28-.73.51-2.38-1.38-2.3.14-.23-.27-.95.24-.93l2.52.93Z"/>
    <path class="cls-3" d="M379.91,225.42c2.2,1.01,1.04,2.8,3.68,4.13.03.3-.04.63,0,.92.3,1.98,1.79,1.7,1.38,3.67-.53.15-2.15.36-1.84,1.14.07.17,2.58,2.47,2.76,2.53-1.3,1.77-2.13,4-2.76.46h1.38c.05-1.78-1.23-2.14-2.76-2.3v2.04c-1.34,1.08-1.38-.61-2.11-1.07-.94-.2-6.37-4.35-5.22-.76.11.34,2.68,1.94,1.8,3.93l-1.62-.45-.22-1.84-2.74.45c-1-1.43.09-3.16-.12-4.24-.03-.16-1.24-2.92-1.38-3.01-.49-.34-1.85.15-2.44-1v-2.32c1.7-1.39,1.49.18,2.07.71,1.07.98,1.73,2.33,2.03,2.56.88.7,2.64.3,3.27,2.25.95.15.55-.14.75-.65.49-1.31-.79-3.23.86-3.02.02.06.51.18.65.51.92,2.09,2.18,4.77,4.87,5l-3.68-8.26,1.38-1.38Z"/>
    <path class="cls-11" d="M383.59,230.48c1.94-.27,1.06.27,1.42,1.09.48,1.12,1.12,1.43,1.34,1.9.48,1.02-.98.57-1.38.68.41-1.98-1.08-1.7-1.38-3.67Z"/>
    <path class="cls-11" d="M387.27,232.77c1.16-.12,1.21.92,1.38,1.84-1.97-.44-.98-.94-1.38-1.84Z"/>
    <path class="cls-3" d="M295.3,185.92c.09.03.22.42.58.35.68-.13,3.45-2.41,4.01-.58.6,1.97-2.54,1.35-2.75,2.32-.19.98,3.5,4.58,3.68,3.14v-1.56c1.12-.4,1.9.64,2.6.78.5.1,1.14-.36,1.67-.24s2.95,3.3,2.61,3.6c-1.3,1.16-1.73-2-2.6-2.25-1.13-.33-2.93.98-2.45,2.25l2.75-.91c.36,1.2-1.3,1.1-1.41,1.69-.26,1.42.38,2.91,2,2.35,1.19-.41,2.3-2.49,4.01-2.2,0,.3.06.68,0,.92-.05.19-1.15,1.21-.92,1.37h2.76s0,2.76,0,2.76c.3.02.61-.01.92,0-.13.46.15,1.13-.22,1.83-.5.93-2.13.59-1.61,2.3l3.22-.92,1.4,3.65c2.12,1.06,4.49-1.87,5.74-1.82s.81,1.82,2.05,2.31c-.45.2-.28,1.42-2.53,1.43s-1.89-1.76-2.76-1.42c-1.34.52-.13,2.06.22,2.75-1.67-.17-.16,1.96-2.3,1.38-.33.31,1.66,4.44,2.08,5.03,2,2.8,1.95,1.31,3.43,5.53-.44-.06-.98.08-1.38,0-.09-.02-1.06-1.29-.92.23l.46.23c-.22.69.49,1.11-1.15.93l-.23-.93c.96-.24-.56-1.18-.76-1.31-2.42-1.49-4.26-2.41-7.05-2.83-.96,1.34.54,3,.37,3.84-.15.75-1.75,1.16-1.32,3.27l1.42.53c.88,1.96-.79,2.99-.01,4.75-1.99-.65-2.46-2.53-5.06-1.83-.52,2.75,2.3,1.56,1.84,4.82l-.91.23c-.89-1.57-3.92-5.41-5.99-4.13l-.22-1.85c.73.04,2.08.92,2.52-.23.71-1.84-1.59-.89-1.84-1.14.48-3.05-.56-1.88-1.22-2.42-1.32-1.1-3.85-6.21-5.87-5.88-.36.06-1.9,4.06-2.6-1.07l.97-.51c-.47-2.63-2.09-1.64-3.23-2.29-.55-.31-.72-1.63-1.66-2.02-1.83-.75-.28,2.05-2.48,1.33-.77-.82-.72-1.6-.92-1.84l.37-.28-.37-1.56h-1.14s-.24.46-.24.46c-.04-.04-.67-.1-1.12-.47-1.21-.99-1.01-2.51-3.94-1.83-.08-.5-.5-1.24-.47-1.57.03-.37,1.03.16.92-1.33-.18-2.42-1.76-4.15-2.28-6.28h1.38c.73-2.79-1.17-2.74-1.84-4.59.15-.02.31,0,.46,0,.42,0,1.04-.48,1.54-.36.76.19,1.34,1.8,2.53,1.2l2.83-2.45c.18-.77-1.09-1.62-1.84-1.6v-.92c.38-.17,1.5-.82,1.72-1.07.4-.45-.39-1.61,1.03-1.23l.93,2.75c1.83.21-.08-1.99,2.29-1.37l-.46,1.83h1.37s.91-3.47.91-3.47l3.43-.58,1.19,2.68c-1.08.34-2.34,1.41-2.76,1.38-.06,0,0-.77-.88-.41-.14.25.03.8-.04.87-.07.07-.59-.1-.81.11-.26.24-.08.79-.11.81-.25.16-1.35-.16-1.81.02l-.49,2.73-2.53-1.37c-1.07,2.44,2.98,2.13,4.17,3.18.33.29,2.16,3.47,2.04,3.93-.59,2.27-4.19-3.01-5.74-2.08-.14.03-1.04,2.38-1.28,2.62-.49.48-2,.17-1.71,1.53h1.84c-.35,1.1,1.09,5.31,2.08,5.51,1.58.32.7-3.82,2.75-3.67.67,1.29,1.83,1.76,2.77,2.74.76.79,1.13,2.01,1.73,2.63,1.33,1.38,2.35.15,2.63,3.81.08,1.02.4,2.53-.91,2.3v.91c2.09-.4,4.53,1.12,4.6,3.21h1.35s.51-2.44.51-2.44c-1.52-.44-2.05-2.51-2.79-3.07,1.06-1.88-1.82-3.43-1.38-5.51,1.53-.43.56,1.22,1.14,1.39,1.97.56,1.13-1.15,2.53-.93v1.38s4.6-1.38,4.6-1.38l.22,2.31,1.62.44c-1.49-1.86,1.39-4.75,0-5.74-1.22-.86-3.62-1.07-5.05-.69v-1.85s-1.85,0-1.85,0c-.56-2.02,1.03-1.43.92-2.75-1.98-.15-1.15-1.64-1.39-2.91-.06-.35-1.45-.39-.91-1.69,1.58-.63,3.27,3.81,3.67,1.61l-4.14-5.74-.9.34-.05.97-1.8.06c-.12-.11.32-2.17.46-2.29s1.23.33.89-.63l-.97-2.06c-.23-.18-.56-.07-.84-.07-.47-1.04-.34-2.14-.46-3.22.29.05.67-.07.92,0ZM309.09,211.18c.6-.56-1.2-1.96-1.83-1.37s1.2,1.96,1.83,1.37ZM287.02,210.73h-.91v.91h.91v-.91ZM309.09,214.4h-1.37v.91h1.37v-.91Z"/>
    <path class="cls-14" d="M339.44,174.44l-.92,2.29c1.06.34,2.03-.8,2.76-.92.54-.08,1.25.02,1.84,0l.19,3.7,1.68.69c-.01,2.27-1.63,3.3-1.87,5.45l1.38,1.19c-.14.17-.19.36-.46.46-.29.11-1.14-.19-1.33.04-.15.18,0,1.2-.28,1.78-.62,1.26-2.09.96-2.52,2.78-.03.12-.01.33,0,.46-1.07.05-1.78.75-1.84,1.84-.25,0-.86-.05-.92,0-.67,0-1.18.26-1.38.92-.07.04.07.42,0,.46-.29.15-.84-.45-.96.67-.11,1.02.06,2.42.96,3.01-4.53,3.6-7.13,5.46-12.42,7.81-1.24-.49-.75-2.26-2.05-2.31s-3.63,2.88-5.74,1.82l-1.4-3.65c.47-2.97,5.33-4.61,7.81-5.98l-.23-.91-4.83.69c1.21-2.15,4.98-.85,5.06-4.36l-6.31,1.96c-.8,2.38-3.64,2.04-5.64,1.26.06-.24,0-.62,0-.92.07-1.97.15-3.52,1.15-5.52.47-.94,2.14-.57,1.61-2.29-3.1-.66-4.56,2.73-7.82,2.29-.48-2.25,1.63-1.41,2.52-2.3,1.29-1.29.73-4.67,3.75-4.91,1.03-.08,2.32.84,3.1.68.5-.1,2.01-1.91,3.09-2.38s2.8-.46,3.62-1c.61-.4,1.08-2.58,2.77-.19-.06.04,0,.86-.45,1.14-.81.51-3.84.18-3.69,2.07,5.57-1.28,10.92-3.78,16.28-5.93l-.19-1.88c1.18,0,2.54-.11,3.68,0ZM319.21,182.25c-2.78-.17-2.21,2.75,0,.68v-.68Z"/>
    <path class="cls-12" d="M318.29,209.81c.71,1.39,2.09,2.59,2.76,3.67,1.58,2.56,2.82,6.03,4.14,8.27-1.62.76.21,3.5-1.16,3.22-1.84-.38-2.07-1.94-2.52-3.22-1.48-4.22-1.43-2.72-3.43-5.53-.42-.59-2.41-4.72-2.08-5.03,2.14.58.63-1.55,2.3-1.38Z"/>
    <path class="cls-12" d="M335.76,195.57v.92c1.6.35,1.89-2.34,3.22,0-1.16,1.33-2.04,1.81-3.22,2.76-.9-.59-1.07-1.99-.96-3.01.12-1.12.68-.52.96-.67Z"/>
    <path class="cls-3" d="M338.06,194.19c1.56,0,1.16.43,1.84.92-.14.59-.54.95-.92,1.38-1.33-2.34-1.61.35-3.22,0v-.92c.06-.04-.07-.42,0-.46.16-.09.88.22,1.26-.12.23-.21.07-.75.12-.8.06-.05.66,0,.92,0Z"/>
    <path class="cls-12" d="M339.9,192.35c.12,1.36.5,1.03,1.84,1.38-.27.48-.64.9-.92,1.38-.09-.11-.77.11-.92,0-.68-.49-.28-.92-1.84-.92.06-1.09.77-1.78,1.84-1.84Z"/>
    <path class="cls-16" d="M341.28,197.87c-1.17,2.05-2.11,1.77-2.3-.46l2.3.46Z"/>
    <path class="cls-14" d="M309.09,259.87c-.14-1.01.28-1.42.9-2.09,1.18-1.27,6.83-5.62,7.15-6.18.42-.74.03-1.77.3-2.22.12-.19,1.26-.38,1.74-.78,2.14-1.79,3.27-4.24,6.45-4.37l-1.36-3.86c4.2-2.69.3-3.36-2.72-3.55.25-1.99-1.04-.95-2.15-1.72-1.77-1.23-2.64-4.28-2.91-6.29l-2.34-.65c.46-2.97.6-4.93-.46-7.8,2.07.08,2.12.71,3.02,2.26l1.58-.42.23.93c1.65.18.93-.24,1.15-.93.04-.12.36-.28.46-.46.4.08.94-.06,1.38,0,.45,1.28.68,2.84,2.52,3.22,1.37.28-.47-2.46,1.16-3.22,3.08,5.21,4.23,5.64,6.44,12.4l-4.14-.92c-.03,1.46,1.5,1.51,2.16,2.66.46.79.49,1.63.87,2.37.25.48,1.6.28,1.11,2-.13.45-1.38.58-1.66,1.67-.2.75.44,1.47.06,2.3-.41.9-4.02,5.84-4.84,6.7-.98,1.03-3.78,1.55-3.23,4.34-.09.04-.29.61-.78.81-1.34.54-4.94.92-5.13,1.1-.16.14-.06,1.03-.52,1.53-1.92,2.07-4.37,1.2-6.44,1.16Z"/>
    <path class="cls-7" d="M331.62,234.15c.73,2.23,1.93,2.97,1.84,5.97-.04,1.25-.39,2.57-.92,3.67-.02.04-.6-.12-.8.11-.23.27-2.09,5.2-2.88,6.32-.27.38-.84,1.28-.92,1.38-.06.07-.71.3-1.38.92-.08.07.08.39,0,.46-.07.06-1.11.74-1.38.92-1.01.68-2.23.91-3.22,1.38-.55-2.79,2.25-3.31,3.23-4.34.82-.86,4.43-5.8,4.84-6.7.37-.83-.26-1.55-.06-2.3.29-1.09,1.53-1.22,1.66-1.67.49-1.72-.86-1.52-1.11-2-.38-.74-.42-1.58-.87-2.37-.66-1.14-2.19-1.2-2.16-2.66l4.14.92Z"/>
    <path class="cls-12" d="M344.04,187.3v1.38c-.49.87-.92,1.85-1.38,2.76l-2.76.46c.43-1.82,1.9-1.52,2.52-2.78.28-.57.13-1.59.28-1.78.19-.23,1.04.07,1.33-.04Z"/>
    <path class="cls-3" d="M342.66,191.43c-.33.65-.47,1.49-.92,2.3-1.34-.35-1.71-.02-1.84-1.38-.01-.13-.03-.34,0-.46l2.76-.46Z"/>
    <path class="cls-3" d="M344.5,186.84c.93-1.17.14-3.56,2.76-3.22-.79,2.18,1.78,2.28.46,4.13l-2.52-.93c-.51-.02-.1.7-.24.93-.33.53-.87.83-.92.92v-1.38c.26-.1.32-.28.46-.46Z"/>
    <path class="cls-5" d="M310.93,244.72h1.38c.01.31,0,.61,0,.92.03.88.42,1.18.37,1.51-.02.16-.98,2.9-1.07,3.07-.7,1.42-7.58,3.94-6.2,7.82-1.21.99-1.06,1.94-.46,3.22-1.65.45-1.25-.79-1.38-.92v-4.59c1.13-.92.62-1.77.92-2.3.73-1.28,2.6-2.74,3.66-3.92.62-.68,1.7-2.88,1.85-2.97,1.01-.62,1.72,1.35.92-1.84Z"/>
    <path class="cls-16" d="M305.41,258.04c.19-.15,3.07-1.53,3.22-1.38l-.46,2.75c-.84-.25-1.24.2-1.84.46-.2.09-.8-.12-.9.02-.92,1.27.84,1.27.9,1.36.07.1,0,1.04,0,1.38-.64-.29-1.08-.75-1.38-1.38-.6-1.27-.75-2.23.46-3.22Z"/>
    <path class="cls-16" d="M309.09,241.96c.11.14.32.35.46.46-.15,1.07.07.9.92.92.14.45.36.99.46,1.38.8,3.18.09,1.22-.92,1.84-.12-.61-.57-.94-.92-1.38-.3-.38-.9-.86-.92-.92-.17-.56.1-1.63,0-2.3h.92Z"/>
    <path class="cls-14" d="M249.31,220.83c-.2-1.36.23-1.3,1.12-1.87,2.22-1.41,5.56-2.79,8.08-3.41l.45-.48-.95-2.95c-1.9-.71-1.8,1-2.57,1.28s-4.01,1.18-5.02,1.43c-.83.2-2.17.18-3.3.39-.93.17-.8-.59-.58-.81.3-.29,6.65-2.52,7.79-3.02.57-.25.89-1.1,1.43-1.33,2.06-.88,5.12-1.51,7.34-2.09.14-1.2-.02-.72-.67-.93-.81-.25-2.41-.58-3.21-.46-1.21.19-1.44,1.33-2.11,1.64-.97.44-1.72-.21-2.31,0-.35.13-.64.91-1.18,1.03-.69.15-1.88-.7-3.09-.29-.91.31-.83,2.02-2.14,1.77l1.91-4.08,5.9.86-.92-3.67,4.76.41c1.14-.83.88-1.99,2.27-2.81,1.23-.73,2.74-.5,3.71-.9.72-.3.65-1.27,1.06-1.33.56-.08,1.72.7,1.99.5.08-.06.23-1.21.73-1.81,1.21-1.44,3.33-.9,3.43-2.31h.91c-.36,2.02,1.36,1.52,1.78,1.9.27.25-.02.96.07,1.3.52,2.13,2.1,3.87,2.28,6.28.11,1.49-.88.96-.92,1.33-.03.33.4,1.07.47,1.57.01.09-.44.44-.22.92.54,1.22,5,3.82,4.82,5.05,0,.03-.44-.07-.46.23-.05,1.02,1,1.25,1.84,1.14,1.12,1.21,2.18,2.13,3.22,3.22-1.18,1.13-2.1,1.49-3.77,1.52-1.83,1.11-4.34,1.48-3.59,3.99-2.33-1.08-3.25.56-4.48.83-1.56.33-1.49-1.15-3.28,1.32-.6.82-.15,1.96-1.67,1.54-.17-.05-.29-1.49-1.59-.92-.01.83-.2,2.02-1.39,1.83l-1.15-2.29c-1.61,1.98-.67,4.6-2.81,6.46-1.4.23-2.62-1.74-1.91-2.71.16-.22,1.21.22.8-1h-3.22c-.08-.25.07-.66,0-.92,2.47-.2-.03-1.12-.03-1.21-.06-1.34,1.59-3.39-.89-2.93-.12-1.04-.62-1.75-.46-3.22.02-.15.77-.68.46-1.38-4.29-.43-5.38-1.94-8.28,2.29-.16-.29-.42-.89-.46-.92Z"/>
    <path class="cls-12" d="M318.29,222.21l-1.58.42c-.9-1.55-.95-2.18-3.02-2.26,1.07,2.86.92,4.82.46,7.8l2.34.65c.27,2.01,1.14,5.05,2.91,6.29,1.11.78,2.4-.26,2.15,1.72,3.02.2,6.91.86,2.72,3.55l1.36,3.86c-3.18.13-4.31,2.58-6.45,4.37-.48.4-1.62.59-1.74.78-.28.45.12,1.48-.3,2.22-.32.56-5.98,4.92-7.15,6.18-.62.67-1.04,1.08-.9,2.09-.28,0-.7-.06-.92,0v-.46l.46-2.75c-.14-.15-3.03,1.22-3.22,1.38-1.38-3.88,5.5-6.4,6.2-7.82.09-.18,1.05-2.91,1.07-3.07.05-.33-.34-.63-.37-1.51.75-.89,6.75-6.55,5.98-7.34-.93.04-2.24-.74-2.91-1.37-.52-.49-1.76-2.34-2.57-3.04-.62-.53-1.01-.8-1.88-.65-.54,1.6,1.08,1.37,1.28,2.1.13.47-.39,1.73.1,2.48-.98.84-2.88-2.61-4.14-2.29-.17.19.33,3.78.56,4.03.59.67,2.82.35,2.67,3.54.01.41-.61.24-.93.24-.52-1.68-.34-.49-.92-.92-.14-.11-.35-.32-.46-.46-2.03-2.58-5-6.37-6.84-9.02-.4-.57-.34-1.65-.64-1.91-.22-.2-.93.02-1.16-.17-.34-.28,0-1.14-.09-1.29h.46c2.07-1.28,5.09,2.56,5.99,4.13l.91-.23c.46-3.26-2.37-2.07-1.84-4.82,2.6-.7,3.07,1.18,5.06,1.83-.78-1.77.89-2.79.01-4.75l-1.42-.53c-.43-2.11,1.16-2.52,1.32-3.27.17-.85-1.33-2.5-.37-3.84,2.79.42,4.63,1.34,7.05,2.83.21.13,1.73,1.06.76,1.31Z"/>
    <path class="cls-12" d="M287.94,219.91l-.92,1.84c-1.9-.77-2.4.88-2.54.92-1.49.42-2.17-3.28-2.9-.07,2.72.56-1,1.65-1.33,2.02-1.37,1.53-1.13,1.51-3.35,2.87-.43.27-1.8.32-.45,1.13-2.31,1.95-5.6,3.23-8.24,4.86-1.34.83-5.26,4.58-6.51,3.67-.53-.38-.32-1.51-.43-1.64.24-.67-.33-1.03-.46-1.38-.61-1.6-1.36-3.44-1.84-5.05h3.22c.41,1.22-.64.78-.8,1-.71.97.51,2.94,1.91,2.71,2.14-1.86,1.19-4.48,2.81-6.46l1.15,2.29c1.19.19,1.38-1,1.39-1.83,1.3-.57,1.42.88,1.59.92,1.52.42,1.07-.72,1.67-1.54,1.79-2.47,1.72-.98,3.28-1.32,1.23-.26,2.15-1.9,4.48-.83-.75-2.52,1.76-2.89,3.59-3.99,1.67-.03,2.59-.39,3.77-1.52.47.49.66,1.1.92,1.38Z"/>
    <path class="cls-11" d="M285.18,213.48c2.2.72.66-2.08,2.48-1.33.94.39,1.11,1.71,1.66,2.02,1.14.65,2.76-.34,3.23,2.29l-.97.51c.69,5.13,2.23,1.13,2.6,1.07,2.02-.33,4.55,4.78,5.87,5.88.66.55,1.7-.62,1.22,2.42.25.25,2.55-.7,1.84,1.14-.44,1.15-1.79.27-2.52.23l.22,1.85h-.46c-2.9-4.4-11.17-11.83-15.18-16.08Z"/>
    <path class="cls-12" d="M249.77,221.75c2.9-4.23,3.99-2.72,8.28-2.29.31.69-.44,1.22-.46,1.38l-2.72.27c.94,2.6,1.02,5.3,1.34,8-4.18,1.04-5.04-4.77-6.44-7.35Z"/>
    <path class="cls-14" d="M287.94,219.91c.71.77,3.24,1.15,2.76,3.21l-14.26,5.52c-1.34-.81.02-.86.45-1.13,2.22-1.37,1.98-1.35,3.35-2.87.34-.37,4.05-1.46,1.33-2.02.74-3.21,1.41.49,2.9.07.15-.04.64-1.69,2.54-.92l.92-1.84Z"/>
    <path class="cls-11" d="M256.67,232.31c3.08.69,2.79,2.4,2.99,5.05.06.83.84,1.58-.7,1.38-.45-.63-2.17-1.79-2.24-1.92-.2-.38.5-1.21.34-1.9-.14-.63-1.21-1.08-1.31-1.51-.17-.7.88-1.03.91-1.11Z"/>
    <path class="cls-12" d="M258.05,224.05c2.48-.46.83,1.59.89,2.93,0,.09,2.5,1,.03,1.21-.49-1.78-.67-1.86-.92-4.13Z"/>
    <path class="cls-11" d="M282.88,210.26l.24-.45h1.14s.37,1.55.37,1.55l-.37.28c-.2-.25-1.02-1.01-1.38-1.38Z"/>
    <path class="cls-3" d="M283.8,215.32c-.84.1-1.89-.12-1.84-1.14.02-.3.45-.21.46-.23.75.22.96.93,1.38,1.38Z"/>
    <path class="cls-11" d="M261.27,235.53c-.07-.09-1.35.37-.91-1.15l.45-.23c.13.35.7.71.46,1.38Z"/>
    <path class="cls-11" d="M259.43,240.12h1.38c.17.45-.45.84-.46.92-.48-.17-.68-.5-.92-.92Z"/>
    <path class="cls-14" d="M308.17,259.41v.46c-.08.02-.99.69-1.38.92l-.46-.92c.6-.26,1-.71,1.84-.46Z"/>
    <path class="cls-12" d="M306.33,259.87l.46.92c-.16.09-.29.34-.46.46-.06-.09-1.81-.09-.9-1.36.1-.13.7.07.9-.02Z"/>
    <path class="cls-16" d="M326.57,252.98v.91s-1.38.01-1.38.01c.27-.18,1.31-.86,1.38-.92Z"/>
    <path class="cls-16" d="M327.95,251.61v.91s-1.38.01-1.38.01c.67-.62,1.32-.85,1.38-.92Z"/>
    <path class="cls-1" d="M358.3,146.42c-.16,1.11.28,1.37.95,2.04,3.84,3.8,8.74,7.66,12.4,11.5.35.37,1.53,1.23.45,1.62-.27-.1-.96.04-1.38,0-.29-.03-.62-.02-.92,0-2.24.12-3.82.41-4.95,2.64-1.25,2.48.48,2.42,1.73,3.79.1.11-.13.79,0,.92.32.32.86-.45.91-.46.9-.07,1.85,0,2.76,0-1.44,3.33-5.95,2.94-8.86,2.19-1.41-.36-2.47-1.92-4.48-1.27.01-.61,0-1.23,0-1.84l-2.22.08c-.76.76-.91,3.1-.08,3.6-.15.14-.29.35-.46.46-.41.25-1.12.79-1.38.92-.99.47-2.33.59-3.22.92l.92-2.29c-2.62.43-5.18,1.03-7.82,1.38-.15.02-.31-.02-.46,0,.95-1.61,1.79-4.11,4.14-3.68.12-.62-.17-1.12-.77-1.31-2.23-.71-8.99,3.98-9.8,3.15-.46-3.34,3.91-3.37,5.32-4.56.87-.74.46-1.43.66-1.86,1.85-3.99,7.12-7.43,10.81-10.56.68-.58,1.98-.66,2.58-1.59s-.09-1.39.05-2.19c.18-1.09.27-.92.36-2.19.01-.15,0-.31,0-.46l1.26-1.32,1.49.41Z"/>
    <path class="cls-14" d="M366.11,185.92c2.73,11.7,5.66,21.25,10.58,32.15l-.92,1.38,1.32.04.93,5.21c.31.57,1.13.14,1.43.27.17.07.31.39.46.46l-1.38,1.38,3.68,8.26c-2.69-.23-3.94-2.91-4.87-5-.14-.32-.63-.44-.65-.51-1.07-3.17-.9-3.31-2.48-6.48-.73-1.45-.06-3.38-2.02-3.26l-.09-1.29-.93.26c-1.27,2.07.7,2.8,1.26,4.23.25.64,1.71,5.4,1.51,5.61-2.58-.03-1.27-3.9-3.68-3.21l-.45,1.37-.92-3.21,1.83-.22-3.03-1.11-.7-2.77-1.26-.07.86-4.56c-2.25.6-2.1-1.45-3.04-3.17-.38-.69-1.13-1.04-1.53-1.72l.89-2.01-2.76-.47.3-.91c2.06-.84-1.44-2.48-1.69-3.9-.24-1.31,2.39-.71,3.04-.28.73,1.39,1,4.47,2.61,5.43,1,.6,2.57-.12,2.65,2.42,3.49-.74,1.24-1.06.47-2.21s-1.86-3.28-1.88-4.65l-1.82-.03c1.05-2.72-1.51-6.89-4.58-5.98-.61-3.51-.8-5.09-4.61-5.04.22-2.34,3.42-.77,4.8-2.29l1.66,3.21,1.83-.28c.73,1.76,1.4,3.37,3.66,3.03.34-1.29-1.48-1.52-1.72-1.95-.09-.16-.55-2.66-.53-2.91.06-1.1,1.8-1.94,1.79-2.26,0-.22-3.21-2.43,0-2.99ZM360.14,196.02c1.81,0,1.83-1.82,0-1.83v1.83ZM366.57,200.16h-.91s0,2.3,0,2.3h1.38s-.46-2.3-.46-2.3Z"/>
    <path class="cls-7" d="M366.11,185.92c-3.22.56,0,2.77,0,2.99,0,.32-1.73,1.16-1.79,2.26-.01.26.44,2.75.53,2.91.24.42,2.07.66,1.72,1.95-2.26.34-2.93-1.27-3.66-3.03l-1.83.28-1.66-3.21c-1.38,1.52-4.58-.05-4.8,2.29-.31,0-.61,0-.92,0,.01-.8-.61-2.39-.92-3.22-.81-2.13-3.43-5.75-2.79-7.99.11-.37,1.31-.42,1.91-.93.49-.41.77-1.45.96-1.56.65-.37,2.02.15,3.12-.33.53-.23,2.14-2,2.31-2.74l-7.36,2.06v-2.3c2.37.42,1.57-.55,1.84-.92.07-.1.37-.39.46-.46,1.48-1.03,4.48.57,4.14-2.3l5.75,1.37c1.56,4.1,1.99,8.59,2.99,12.87Z"/>
    <path class="cls-6" d="M369.79,161.57c.02,2.14-1.68.73-2.29,1.13-.46.31-.74,1.58-1.74,1.71l-.11,1.01c.08.32.66.5.93.75,1.12,1.07,1.73,1.57,3.4,1.37,2.39-.29,1.62-1.35,2.12-2.28.11-.21.88-.41.93-.79.2-1.58-.8-2.35-2.31-1.97v-.92c.42.04,1.11-.1,1.38,0,.14.06,2.14,1.88,2.22,2.16.34,1.1-.11,2.3-.38,3.36-.45.47-.92.92-1.38,1.38h-2.3c-.91,0-1.86-.07-2.76,0l-.92-.46c-1.25-1.37-2.98-1.31-1.73-3.79,1.13-2.24,2.71-2.53,4.95-2.64Z"/>
    <path class="cls-12" d="M354.62,171.22c-.84-.5-.68-2.83.08-3.6l2.22-.08c0,.61.01,1.22,0,1.84-.04,1.61.35,1.4.46,2.3.34,2.86-2.66,1.26-4.14,2.3l-.46-1.38c.26-.12.97-.66,1.38-.92v.92c1.16.13,2.43.02,2.3-1.37-.47-.11-1.59.15-1.84,0Z"/>
    <path class="cls-12" d="M379.45,224.96c-.3-.12-1.12.3-1.43-.27l-.93-5.21-1.32-.04.92-1.38c.99,2.2,2.51,4.36,2.76,6.89Z"/>
    <path class="cls-3" d="M216.2,237.37c.65-1.78,1.07-3.24,1.87-5.25.64-1.59.52-3.4,2.04-4.86l1.15.3c.83,1.4-.21,2.98.06,3.96.11.41.94,2.01,1.32,3.09l-2.25.51.42,2.9c-.39.64-1.98,3.24-2.28,4.2-.83,2.64.41,3.01.45,4.54.03.91-.71,1.98-.49,3.01,1.41.27.9-1.28,2.12-1.78,2.58-1.07-.09,2.37-.16,2.59-.41,1.15-.29,2.74-.69,3.9-.32.93-1.64,1.34-1.26,2.64,3.09.43,2.98,5.02,7.36,4.14-1.61,3.01-4.37,5.49-3.25,9.36.1.33.92.34,1.41.75.05.05-.16.63.1.83.72.55,1.28-.85,1.28,1.46-.7-.08-1.23.23-1.84.46-.26.1-.94-.24-.93.24l.92,2.52-2.29-.91c.39,4.42-2.06,2.42-3.84,2.73-.33.06-.27.92-.58.97-.24.03-4.56-.61-4.78-.71-1.5-.71-2-3.89-1.72-5.41.16-.89,2.16-6.31,3.57-4.94l.68,1.84c2.68-1.93.93-4.45,1.11-6.66.08-.89,1.37-2.47.96-2.98-.89-1.1-1.76,3.5-3.21,2.3-.09-2.13-.11-3.33-2.31-3.92,1.57-1.64-.12-3.45.6-5.16.16-.38,3.51-3.83,4.47-3.33.23-1.2-.96-1.77-.92-2.93.07-2.06,2.36-4.65,2.31-6.94-1.32-.26-1.36-.45-1.85-1.62.08-.25-.08-.68,0-.92h.92s-.46-.92-.46-.92Z"/>
    <path class="cls-11" d="M215.74,239.2c.49,1.16.54,1.36,1.85,1.62.05,2.29-2.24,4.88-2.31,6.94-.04,1.15,1.15,1.72.92,2.93-.95-.5-4.31,2.96-4.47,3.33-.73,1.71.97,3.52-.6,5.16,2.2.59,2.22,1.78,2.31,3.92,1.46,1.2,2.33-3.4,3.21-2.3.41.5-.89,2.09-.96,2.98-.19,2.21,1.57,4.73-1.11,6.66l-.68-1.84c-1.41-1.37-3.41,4.05-3.57,4.94-.27,1.52.22,4.7,1.72,5.41.22.1,4.54.74,4.78.71.31-.04.25-.91.58-.97,1.78-.31,4.23,1.69,3.84-2.73l2.29.91-.92-2.52c-.02-.48.67-.14.93-.24-.32,1.18.77.79.92.92.06.05-.23.77.31.92.9.24,2.13.1,3.37.46.75,3.32-2.35,1.06-3.71,2.05-.4.29-.27,1.17-.56,1.49-.85.94-4.51.65-4.47,2.89-1.21-.07-2.97-.25-4.14-.46.28-1.3-.69-.84-1.38-1.13-1.8-.75-5.42-2.19-6.87-3.27-.78-.58-.87-2.1-2.33-2.04-.05-.14.05-.33,0-.46-.75-1.75-2.08-2.91-1.87-4.82,1.56-4.16,2.05-8.93,3.48-13.1,1.91-5.55,5.02-10.83,8.08-15.48.09-.13,1.3-2.74,1.35-2.9Z"/>
    <path class="cls-12" d="M222.64,234.61c.49,1.41,1.62,6.27,1.8,6.56.28.45,1.8,1.26,2.53,2.2,1.88,2.4,3.37,6.06,5.27,8.53-1.4,2.38-2.29,4.58-4.09,6.6h-1.37c-.14.42.1,1.1-.01,1.38-.19.46-.67.91-.92,1.38-4.37.89-4.27-3.71-7.36-4.14-.37-1.3.94-1.71,1.26-2.64.4-1.16.28-2.75.69-3.9.08-.22,2.75-3.66.16-2.59-1.22.5-.71,2.05-2.12,1.78-.22-1.03.51-2.09.49-3.01-.04-1.53-1.29-1.89-.45-4.54.3-.96,1.89-3.56,2.28-4.2l-.42-2.9,2.25-.51Z"/>
    <path class="cls-3" d="M223.56,228.64c-1.44-.9-1.12-3.86-1.38-5.51.07.07.72.04,1.16.42,1.93,1.68.48,2.15.37,3.1-.04.39-.15,1.78-.15,1.99Z"/>
    <path class="cls-11" d="M241.03,262.17c.56-.01,1.65-2.58,2.3-1.83.11.13-.63,3.13-1.84,2.75-.3-.39-.35-.77-.46-.92Z"/>
    <path class="cls-3" d="M223.56,229.56h1.38s0,1.38,0,1.38h-.92c-.06-.5-.45-1.15-.46-1.38Z"/>
    <path class="cls-3" d="M228.16,258.5c-.42.47-.62,1.16-1.38,1.38.11-.28-.13-.96.01-1.36h1.37Z"/>
    <path class="cls-3" d="M220.34,218.99h.92c.19.53-.45.86-.46.92-.44-.13-.44-.53-.46-.92Z"/>
    <path class="cls-3" d="M220.8,220.83h.92s0,.68,0,.68l-.46.23c-.13-.28-.42-.42-.46-.92Z"/>
    <path class="cls-11" d="M216.2,237.37l.46.92h-.92c.17-.5.43-.83.46-.92Z"/>
    <path class="cls-2" d="M325.19,131.72c-.15.01-.31-.01-.46,0l.46-.46v.46Z"/>
    <path class="cls-7" d="M315.07,137.23c1.88-.42,3.46-1.02,5.51-1.17,1.45-.1.93-.31.93,1.17-.14.08-.29.33-.46.46-.1.08-.8-.23-.92.31-.69,1.2-.09,1.8,0,2.45s.44,1.25.46,1.38c.11.87-.08,1.87,0,2.76.31,3.27-.36,5.01-.46,7.81-2.58-.05-6.84.45-6.9,3.67l3.25-.19.43-2.1h3.68c.05.44-.08.97,0,1.38l-1.84,2.29,2.3-.92c.11.42.32.89.46,1.38-.85.02-1.55.45-1.38,1.38h1.84c.08.25-.08.69,0,.92-1.09.26-2.7.24-3.66.71-.64.32-1.04,1.37-1.72,1.52-.79.18-1.64-.69-2.45-.18-1.3.82.03,2.83,1.61,1.62l.23.92c-1.27.15-2.15,1.05-3.23,1.63-.45.24-1.22.12-1.37.22v-2.75c-1.73-.5-2.32,2.18-3.82,1.79-1.89-.5-.66-2.6-.78-2.71-2.32,0-5.43.33-5.56,3.18l-.65.04c-1.5.11-.45-2.32.25-2.96.35-.32,3.58-2.26,4.26-2.63,2.32-1.27,6.03-1.56,6.75-4.51-.28-.25-5.66,1.22-6.4,1.64-1.12.63-1.56,2.07-2,2.36-.96.62-3.42.28-4.47.81s-1.06,2.62-3.96,2.5c-.87-.03-1.02-.86-1.1-.89.35-2.18,2.12-1.55,3.11-2.16,1.29-.79,2.86-2.96,4.7-2.9.37-1.36-1.13-1.01-2.03-.87-1.14.17-6.9,2.52-7.17,2.25-.93-.95,1.32-1.94,1.84-2.29,3.93-2.69,9.3-7.74,12.89-11.24.41-.4.37-1.32.93-1.82.9-.81,3.42-1.52,4.6-2.75.68-.7,1.63-2.55,2.27-3.47ZM317.83,156.52h-.91v.91h.91v-.91Z"/>
    <path class="cls-14" d="M315.07,137.23c-.64.93-1.59,2.77-2.27,3.47-1.19,1.23-3.7,1.95-4.6,2.75-.57.5-.52,1.42-.93,1.82-3.59,3.5-8.96,8.55-12.89,11.24-.49-2.13,1.92-1.99,2.34-2.59.51-.73.19-1.92.43-2.58.06-.17,1.2-1.75,1.73-2.98.23-.54.92-1.01,1.02-1.28.46-1.3-1.98.12-1.38-1.83.94-.55,3.57-2.31,4.03-3.11.3-.5.03-1,.12-1.25,3.7-1.68,8.38-2.76,12.42-3.67Z"/>
    <path class="cls-5" d="M291.62,145.96c.94-1.82,5.62-3.76,7.34-4.85.69-.43.73-1.25,1.26-1.61.28-.19,3.94-2.06,3.35-.67-.31.74-.56,1.06-.91,2.07-3.6,1.63-8.7,5.09-11.04,8.27l-1.77.06c-.5.88-.45,1.77-.07,2.7h-.46l-2.76-.92.46,1.83c-4.21-1.35-2.85,4.14-5.98,3.44,0-.43,1.1-3,1.39-3.44,1.21-1.83,6.04-2.71,5.98-5.97,1.09.12,2.14.3,3.22.46.1-.38-.12-1.15,0-1.38Z"/>
    <path class="cls-5" d="M346.34,128.5c.03.3-.02.62,0,.92-.23.07-.65.72-.92.92-1.19-.02-3.82.28-5.06.46-1.05.15-1.16.07-2.3.46s-1.79.99-2.76,1.38c-3.23,1.28-3.3.84-6.44,3.22.34-1.48-.95-.7-1.38-.92-.15-.07.26-1.48-2.51-1.39-.99.03-3.8,1.45-3.47-.44,2.1-1.05,5.1.01,7.05-.47.36-.09.3-.9.6-.94.72-.09,1.64.62,2.66.48,1.8-.23,4.67-2.42,6.43-2.85,1.57-.38,4.19-.44,6.26-.83.54-.1,1.26.07,1.84,0Z"/>
    <path class="cls-12" d="M325.19,135.85c-.23.76.88,1.64.92,1.84.06.26-.03.62,0,.92l-3.21-.26-2.31,3.47c-.02-.13-.37-.73-.46-1.38l.92-2.76c.17-.13.32-.38.46-.46,1.42-.83,2.24-.93,3.68-1.38Z"/>
    <path class="cls-12" d="M327.49,134.93c.43.22,1.72-.56,1.38.92-.83.63-1.81,1.4-2.76,1.84-.04-.19-1.15-1.08-.92-1.84.74-.23,1.64-.49,2.3-.92Z"/>
    <path class="cls-8" d="M328.86,131.26s.36-.36.46-.46c-.05,0-.22.43-.46.46Z"/>
    <path class="cls-3" d="M286.56,146.42c.23,0,1.17.39,1.84.46.06,3.26-4.77,4.14-5.98,5.97-.33-.45-2.68-2.27-3.22-1.83-.97.78,1,.96.92,1.14-.3.32-.56.67-.96.88-4.27,2.34-9.1,3.04-13.3,4.86-3.48-.25-6.9,2.67-10.12,3.68l1.59.91.24.92c-1.78-.12-1.08,2.3-2.07,2.76-.2.09-1.27.21-1.14-.35l-.04-.99-1.79-.09-.25-1.34c-1.45-.29-1.98.95-2.76.94-.35,0,.02-1.46-1.15-.93-.5,5.65-2.45,1.51-3.08,1.35-1.02-.25-2.29.58-3.36.48l.05-2.24c1.05-.02,1.83-.65,2.71-.97,1.94-.71,4.04-1.05,5.85-2.19,1.57.71,8.35-3.08,8.79-2.77.1.07.04.78.37.85,3.06-.98,8.18-1.71,7.53-5.99,5.98-.82,14.93-5.59,19.31-5.51Z"/>
    <path class="cls-11" d="M257.59,152.39c-.09,0-.2.3-.37.31-.35.03-.51-.31-.55-.31l.69-.46.23.46Z"/>
    <path class="cls-3" d="M302.65,140.9c-.09.26.18.75-.12,1.25-.47.79-3.09,2.56-4.03,3.11-.6,1.95,1.85.53,1.38,1.83-.1.27-.78.74-1.02,1.28-.53,1.22-1.66,2.81-1.73,2.98-.24.66.08,1.85-.43,2.58-.42.6-2.83.45-2.34,2.59-.52.35-2.76,1.34-1.84,2.29.26.27,6.02-2.08,7.17-2.25.9-.13,2.39-.49,2.03.87-1.85-.07-3.41,2.11-4.7,2.9-1,.61-2.76-.02-3.11,2.16-.97-.35-3.13,1.75-4.03,2.17-1.75.83-4.17,1.6-6.09,2.42s-2.42,2.16-5.06.92l-.02,1.35-5.26.04-.23-2.3c.75-.13,1.42-.39,1.84-.46,1.94-.32,4.08.97,3.68-2.29-.44.04-.99-.09-1.38,0l7.36-8.5c.53-1.32,1.11-2.55,2.76-2.53.02.9-.37,1.64.92,1.38l.93-2.76h.46c1.47-.34,1.41-2.17,1.84-2.76,2.33-3.18,7.44-6.63,11.04-8.27Z"/>
    <path class="cls-14" d="M293.92,162.49c.08.03.23.85,1.1.89,2.89.12,2.94-1.99,3.96-2.5s3.52-.19,4.47-.81c.45-.29.88-1.73,2-2.36.74-.42,6.12-1.89,6.4-1.64-.72,2.95-4.43,3.24-6.75,4.51-.68.37-3.92,2.32-4.26,2.63-.7.64-1.75,3.07-.25,2.96l.65-.04c.13-2.85,3.24-3.18,5.56-3.18.12.11-1.11,2.21.78,2.71,1.5.39,2.08-2.28,3.82-1.79v2.75c-.85.54-3.69,2.3-4.92,2.66-.84.25-2.55-.11-2.84.16-.17.16,0,1.09-.51,1.54-.82.73-3.56.46-4.47,2.02l-3.35-1.33c.08,1.66-.99,3.54-2.54,4.13-1.34.51.25-2.66-2.06-1.83l.92-3.21c-.44-.41-3.61.91-3.22-.92.83-.3,2.4-1.64,3-1.83,1.25-.4-.05,2.17,2.06,1.38-.61-4.21,5.36-1.84,4.6-5.51-2.07.99-5.57-.03-5.52,2.75-.97.36-1.78-.93-2.43-.83-.57.09-4.37,1.79-5.38,2.21h-.92s0-.92,0-.92c1.92-.82,4.34-1.59,6.09-2.42.9-.43,3.06-2.52,4.03-2.17Z"/>
    <path class="cls-14" d="M274.12,179.96l.4,2.66-3.11,1.74.43,2.93c1,.99,3.05-3.85,3.62.17-.07.3-1.61,1.43-2.01,1.66-2.94,1.72-14.12,6.77-17.24,7.59-1.21.32-2.34.04-3.36.32-.94.26-2.33,2.16-2.49,2.19-1.57.31-2.86-.5-4.07,1.37-.88.21-2.45-2.76-2.04-3.2,2.41,1.13,1.53-.41,2.85-1.05.71-.34,1.68-.19,2.3-.47,5.39-2.48,8.01-3.87,13.72-5.58.52-.16,6.46-2.89,6.74-3.13.88-.79.36-2.27.13-3.26l-.91-.28c-.52,3.31-3.09,1.38-4.16,2.05v2.08c-1.36.36-.48-.86-1.57-.96-1.02-.09-2.95.15-3.63.92-.62.7-.05,1.95-1.06,2.3-1.33.25-4.23-.68-5.35-.36-.64.18-.93,1.06-1.58,1.23-.58.16-1.38-.36-2.34-.1-1.32.36-2.67,2.1-4.46,2.02-.75-.46.57-1.68.89-1.87,1.33-.78,4.28-1.23,5.88-1.93,1.85-.81,2.04-1.18,4.16-1.9,3.4-1.16,1.56-1.54,2.17-2.58s2.02.88,2.15.92c1.08.26,6.42-1.56,7.23-2.34,1.17-1.11.17-2.43,3-1.74l.04.98c.47,1.14,2.62-1.51,2.3-2.4h1.35Z"/>
    <path class="cls-14" d="M323.35,165.25l.46,2.3h.91s0-.92,0-.92c.33.44.75-.61,1.38,1.84-1.61.38-2.77,1.72-4.18,2.48-6.36,3.42-13.81,6.07-19.9,9.52-1.39.79-2.22,3.12-4.12,2.71-.23-.05-.57-1.41-1.69-.93l.92-1.83c-2.53-.02-3.17,2.14-5.98,1.38v-2.76c1.3,0,2.46.79,3.81.37.53-.16.85-.82,1.3-1.02,7.78-3.31,14.48-7.36,21.92-11.26,1.05-.55,2.37.03,3.78-1.88.44-.05.97.08,1.38,0Z"/>
    <path class="cls-14" d="M277.36,160.2c-.19.27-.12,1.39-.92,2.3-.06.07-.78-.27-.94.3s.12,1.39.02,1.99c-.05.34-.81,1.09-.46,1.84-.42.07-1.09.33-1.84.46-.91.16-1.79.61-2.76.46-.47-1.65.81-1.25.91-1.38.84-1.2-1.31-1.11-2.03.03-.55.87-.23,2.87-2.09,2.73l.45-2.53c-2-.66-3.02,1.37-3.5,1.54-.92.32-1.82-.04-3.1.59s-2.14,2.93-3.7,2.72c-.68-.09-1.18-.93-1.78-.85-1.28.17-2.99,1.72-3.09,3.12l-.91-.23v-2.06s-2.75.91-2.75.91c-.15-2.11,2.99-2.09,3.22-3.67.29-.04.62.03.92,0,.6-.07,1.93.2,2.23-.07l.77-1.77,2.73.92.72-2.28h2.95s.28-1.34.28-1.34c.9-.15,1.82-.02,2.73-.05.3,0,.62.03.92,0,.45-.04.93.04,1.38,0v-1.38c2.49,1.22,2.74-1.09,3.68-2.3,1.73-2.22,4.24-2.14,5.98,0Z"/>
    <path class="cls-11" d="M323.35,144.12c1.58,1.61-.41,1.82-.83,2.59-1.4,2.57.34,9,1.29,11.64.14.4.37.69.46.92.11.29-.15.94.03,1.34.44.14.91,0,1.35.03.14.01.31.01.46,0v.92l-.92.23c-.25.7.85.96.92,1.14,1.65,4.19,3.35,7.06,8.16,8.62.66.21,1.54-.06,2.08.11s.33,1.17,1.46,1.39c1.71.33,2.98-.3,4.39-.47.15-.02.31.02.46,0-.35.49,1.63,1.75,1.75,1.79,1.7.67,2.67.47,4.36-.08.53-.17.74-.77.79-.79.89-.32,2.23-.45,3.22-.92l.46,1.38c-.09.07-.39.36-.46.46-1.67-.22-4.12,1.52-5.37,1.69-.85.11-2.93-.36-4.29-.31-.59.02-1.3-.08-1.84,0,0-1.44-.76-1.27-1.84-1.38-1.14-.11-2.5,0-3.68,0-.91,0-1.85-.06-2.76,0-.3.02-.65-.05-.92,0,.23-1.41-.09-1.54-.92-2.3-.46-.42-1.2-.93-1.84-.92l-.03-.89c-.39-.17-1.12.09-1.35-.02-.13-.06-.31-.55-.64-.74-1.07-.62-.82.37-1.2-1.09-.63-2.45-1.05-1.4-1.38-1.84-.11-.15.12-1.13-.44-1.64-.51-.5-.82.24-.94.26-.41.08-.94-.05-1.38,0,.09-.12-.16-.75,0-1.06.28-.52,1.26-.18.92-1.47l-.93-.23c1.83-1.85.15-1.85,0-2.29-.08-.24.08-.67,0-.92-.15-.47-.32-.9-.46-1.38s-.35-.96-.46-1.38c-.12-.48-.39-1.02-.46-1.38-.08-.41.05-.94,0-1.38-.04-.33-.48-.84-.46-1.38.1-2.79.77-4.54.46-7.81h.62c.49.72.35,1.13,1.45.93.16-.05.49-1.01.69-1.39Z"/>
    <path class="cls-3" d="M284.72,168.01c1.02-.42,4.81-2.13,5.38-2.21.65-.1,1.45,1.19,2.43.83-.05-2.79,3.45-1.76,5.52-2.75.76,3.67-5.21,1.31-4.6,5.51-2.1.8-.81-1.78-2.06-1.38-.6.19-2.16,1.53-3,1.83-2.98,1.09-10,1.13-9.66,5.06-1.51.4-2.86-1.23-4.29-.93-.31.06-.25.78-.65.9-1.63.5-3.91.78-5.64,1.4l.05-1.79,6.05-1.54c3.2-2,7-3.51,10.46-4.94Z"/>
    <path class="cls-14" d="M322.43,176.27c-3.08,1.27-6.06,3.08-9.24,4.32-.85.33-6.23,2.19-6.57,2.14-.15-.02-1.29-2.49-1.67-.04-.71.08-1.07.2-.92-.68.41-2.36,3.87-1.12,5.06-1.83.54-.32,2.19-3.09,3.4-3.52,2.04-.72,2.08.35,3.95.53-.45-2.46,2.92-3.86,4.78-4.6.17.8,1.17.85,1.2.92.21.51-.15,2.04,0,2.76Z"/>
    <path class="cls-1" d="M335.76,174.44l.19,1.88c-5.36,2.15-10.72,4.65-16.28,5.93-.15-1.89,2.88-1.57,3.69-2.07.45-.28.39-1.1.45-1.14.39-.27,1.23.14,2.3-1.38,1.25-.62,4.34-.08,4.14-1.84.15,0,.31,0,.46,0,1.22.02,2.31.17,2.3-1.38.91-.06,1.85,0,2.76,0Z"/>
    <path class="cls-7" d="M232.29,203.83l4-2.66c2.21.09,3.15-.27,4.57-1.9l2.47,1.59c.02,1.32-6.62,4.16-7.91,4.52s-1.96.31-3.13-.16c-.03-.46.02-.92,0-1.38Z"/>
    <path class="cls-14" d="M281.04,190.05v.92c-.99.02-5.32,1.55-5.06,3.22-.15,0-.31-.02-.46,0-.79.09-1.63-.17-2.43.09-.74.24-1.12,1.31-1.93,1.3-.71-.01-2.13-1.53-3.46-.93-.35-.25,1.35-2.16,1.47-2.23.33-.19.97.37,1.43.25,2.88-.7,3.51-.03,5.06-.31.3-.05,4.51-1.92,5.37-2.31Z"/>
    <path class="cls-1" d="M327.95,170.76c.07.06-.22.89.29.96.58.08,1-.5,1.09-.51.64,0,1.38.5,1.84.92.1,1.36-.81,1.09-1.55,1.44-2.34,1.1-4.83,1.72-7.19,2.69-.15-.72.21-2.24,0-2.76,1.04.14,1.81-.06,2.76-.46,1.43-.6,1.34-.67,1.84-2.3.24.09.81-.1.92,0Z"/>
    <path class="cls-7" d="M294.84,189.14c.27,0,.61-.11.84.07l.97,2.06c.35.96-.75.5-.89.63-1.54-2.43-4.28,1.92-6.2,2.3-1.06.21-.85-1.61-.7-1.85.03-.04.63.15.82-.1.21-.27.03-.74.1-.82.06-.07.77-.08.92-.46.42.03,1.68-1.04,2.76-1.38.45-.14.86-.45,1.38-.46Z"/>
    <path class="cls-14" d="M300.81,187.76c.61-1.98,1.52-3.17,1.38-5.51,1.74.02,2.01,2.44,1.38,3.67.76.69,2.16-1.82,3.22-.91.92.8-3.72,2.92-4.12,3.02-.67.18-1.72-.38-1.85-.27Z"/>
    <path class="cls-14" d="M294.38,185.92c-.05-.45.04-.92,0-1.38l-1.83.91c.05-.48-.14-1.11,0-1.51.27-.81,4.03-2.16,3.69-.55l-.93,2.52c-.25-.07-.63.05-.92,0Z"/>
    <path class="cls-14" d="M330.24,175.81c.2,1.76-2.89,1.22-4.14,1.84.21-.3-.36-1.3,1.03-1.97,1.48-.71,2.07.12,3.11.13Z"/>
    <path class="cls-14" d="M327.03,170.76c-.5,1.63-.41,1.7-1.84,2.3l.46-2.76c.69-.26,1.02.32,1.38.46Z"/>
    <path class="cls-14" d="M332.08,174.44c.27-.05.62.02.92,0,0,1.54-1.08,1.39-2.3,1.38,0-1.15.44-1.21,1.38-1.38Z"/>
    <path class="cls-14" d="M327.95,170.3c.23.11.96-.14,1.35.02l.03.89c-.09,0-.5.58-1.09.51-.51-.07-.23-.9-.29-.96v-.46Z"/>
    <rect class="cls-3" x="250.23" y="178.11" width=".91" height=".91"/>
    <path class="cls-3" d="M300.81,187.76c-.11.09-.38,2.69-.92,0h.92Z"/>
    <path class="cls-12" d="M244.24,235.99c2.06-5.3,4.3.28,5.99,2.56l4.14.9c-.1,2.3-2.75-.37-2.75,1.37,1.06,1.1,2.3,3.07,2.94,4.42.39.84.54,2.74.86,3.05.24.23,1.04.14,1.46.59.72.77,4.11,5.84,3.48,6.41-1.75.4-1.48-1.25-2.8-2.03-.9-.53-3.15-.8-3.85-1.66-1.19-1.46-2.44-4.15-2.74-5.97l-2.33-3.2-1.16,2.06c1.97.75,1.07,1.69,1.59,3.01.57,1.46,2.82,5.14,2.99,6.22.08.52.04,1.06.02,1.57h-1.38c.73-2.1-.99-2.4-1.25-2.88-2.87-5.45-8.47-12.5-10.49-17.78-.23-.6-1.59-5.71-1.62-6.2-.05-.93.52-.97,1.16-.69.23.1,2.43,3.57,2.74,4.15.71,1.31.47,3.93,3.01,4.1Z"/>
    <path class="cls-11" d="M251.15,259.42v.9s-1.83.93-1.83.93c-.74-1.83-1.9-4.35-3.04-5.92-.36-.49-3.7-2.44-2.03-3.5s3.73,2.37,4.26,3.58c.7,1.61-.01,4.16,2.65,4.02Z"/>
    <path class="cls-11" d="M260.34,267.22c-.98.87-4.17-2.65-4.62-3.42-.58-1-.59-2.35-.9-3.46l1.84.22,3.67,6.66Z"/>
    <path class="cls-12" d="M265.86,157.9c-.42.18-1.14,1.04-1.84,1.38-.5.25-1.4.19-1.95.56l-4.02,2.65c1.86-.91,3.15.47,4.34.5,1.13.02,2.83-1.47,3.01.89-.91.03-1.83-.1-2.73.05l-.28,1.36h-2.95s-.72,2.27-.72,2.27l-2.73-.92-.77,1.77c-.3.27-1.64,0-2.23.07l-1.11-1.82c-.87.31-2.15.37-2.92.79s-.83,1.22-1.39,1.47c-2.18,1.01-5.11.58-7.47.74l-.46-1.39.93-2.08-3.21.45c-.22-1.23.89-2.31,1.87-2.95,1.43-.94,4.2-1.99,5.48-3.02v1.38c-.87.32-1.65.95-2.71.97l-.05,2.24c1.07.1,2.33-.74,3.36-.48.63.16,2.59,4.3,3.08-1.35,1.17-.53.8.93,1.15.93.78,0,1.31-1.24,2.76-.94l.25,1.34,1.79.09.04.99c-.14.56.94.44,1.14.35.99-.46.28-2.88,2.07-2.76l-.24-.92-1.59-.91c3.22-1.01,6.63-3.93,10.12-3.68Z"/>
    <path class="cls-1" d="M373.47,147.79c.31,1.66.48,3.99.31,5.68-.08.81-1.89,3.75.15,3.51-.11.35-.46,1.31-.46,1.38-.78-.09-1.49-.39-2.08-.91-2.36-2.08-4.86-4.87-7.12-6.9,3.82.15,5.34-3.38,9.2-2.76Z"/>
    <path class="cls-3" d="M365.19,133.1c.55.13,1.13.03,1.73.31.69.33.66,1.65,2.41,1.07.19.28.28.64.46.92l-.46.91h.92c.36.42.86,1.04,1.38,1.84,1.88,2.87,2.43,5.56,2.84,7.68.37,1.9.72,4.71.43,8.13-.32,1.01-.65,2.02-.97,3.03-2.04.24-.23-2.7-.15-3.51.16-1.69,0-4.02-.31-5.68-.4-2.14-1.65-8.49-6.87-13.47-.58-.56-1.09-.97-1.4-1.23Z"/>
    <path class="cls-3" d="M364.27,150.55c2.26,2.03,4.76,4.83,7.12,6.9.59.52,1.3.82,2.08.91-.13,2.47,1.7,2.34,1.88,3.43.15.92-.05,4.23-.49,4.99-.32.56-.87.24-.93.31.28-1.06.72-2.26.38-3.36-.09-.28-2.08-2.1-2.22-2.16,1.08-.38-.1-1.25-.45-1.62-3.65-3.85-8.56-7.7-12.4-11.5-.67-.67-1.11-.93-.95-2.04,2.52.68,4.03,2.39,5.98,4.13Z"/>
    <path class="cls-11" d="M365.65,124.83c.27-.02.85.06.92,0,2.01,1.95,1.12,4.11,1.38,6.43-3.69-.88,1.15-5.94-5.06-5.05l.92,1.82-1.37.7c1.04.73,2.24,2.12,3.24,2.74,1.68,1.05.95-.03,2.73,2.08.23.27.55.37.92.92-1.75.59-1.72-.74-2.41-1.07-.6-.29-1.18-.19-1.73-.31-.14-.03-.31.03-.46,0-.25-1.11-1.25-.71-1.84-.92-.54-.19-1.77-.4-1.84-.46-.44-.41,1.02-.59-1.38-.92-.44-.06-.98.08-1.38,0-1.01-.21-3.26-1.32-4.6-1.38.66-.55,1.68-.28,1.38-1.38.3-.03.62.04.92,0,.91-.12,1.74.21,2.75-.24.9-.4,2.08-2.47,3.57-2.87,1.1-.29,2.23-.02,3.34-.11Z"/>
    <path class="cls-3" d="M367.95,131.26c.05.4.89,1.42.46,2.3-1.77-2.11-1.05-1.03-2.73-2.08-1-.62-2.2-2.01-3.24-2.74l1.37-.7-.92-1.82c6.2-.89,1.36,4.18,5.06,5.05Z"/>
    <path class="cls-11" d="M370.25,136.31h-.92s.46-.92.46-.92c.25.38.32.69.46.92Z"/>
    <path class="cls-14" d="M352.78,195.57c3.18.02,3.48,4.67,4.27,6.99.31.92,3.04,4.37-.13,4.04-1.34-3.71-2.89-7.67-4.14-11.02Z"/>
    <path class="cls-14" d="M351.4,192.35c-.13-.37.14-1.28-.09-1.96-.19-.58-1.78-1.74-1.29-2.18.9-.8,1.71,1.59,2.76.92.31.83.93,2.42.92,3.22,0,.42-.65,2.43-1.38,1.84-.28-.77-.75-1.35-.92-1.84Z"/>
    <path class="cls-12" d="M352.78,174.44c-.26.36.53,1.34-1.84.92v2.3s7.36-2.06,7.36-2.06c-.17.74-1.78,2.51-2.31,2.74-1.1.49-2.47-.03-3.12.33-.2.11-.47,1.15-.96,1.56-.61.51-1.81.56-1.91.93-.64,2.24,1.98,5.86,2.79,7.99-1.05.67-1.86-1.71-2.76-.92-.5.44,1.09,1.6,1.29,2.18.23.68-.04,1.59.09,1.96-1.74.3-1.09-.26-1.51-1-.64-1.13-1.09-2.96-2.17-3.59,1.32-1.86-1.26-1.96-.46-4.13-2.62-.34-1.83,2.05-2.76,3.22l-1.38-1.19c.24-2.15,1.86-3.17,1.87-5.45l-1.68-.69-.19-3.7c1.36-.04,3.44.43,4.29.31,1.24-.17,3.69-1.91,5.37-1.69Z"/>
    <path class="cls-12" d="M290.7,190.97c-.15.37-.86.39-.92.46-.07.08.11.55-.1.82-.19.25-.79.05-.82.1-.16.23-.36,2.06.7,1.85,1.92-.38,4.66-4.73,6.2-2.3-.14.13-.58,2.18-.46,2.29l1.8-.06.05-.97.9-.34,4.14,5.74c-.4,2.2-2.09-2.24-3.67-1.61-.55,1.29.84,1.33.91,1.69.23,1.27-.6,2.76,1.39,2.91.11,1.31-1.48.73-.92,2.75h1.85s0,1.84,0,1.84c1.44-.39,3.84-.18,5.05.69,1.39.99-1.49,3.88,0,5.74l-1.62-.44-.22-2.31-4.6,1.38v-1.38c-1.41-.22-.56,1.49-2.53.93-.59-.17.38-1.82-1.14-1.39-.45,2.08,2.44,3.63,1.38,5.51-.38-.28-2.15-.66-2.76-.92-.28-3.66-1.3-2.43-2.63-3.81-.6-.63-.97-1.84-1.73-2.63-.94-.99-2.11-1.45-2.77-2.74-2.04-.15-1.17,3.99-2.75,3.67-.99-.2-2.42-4.41-2.08-5.51h-1.84c-.29-1.36,1.22-1.05,1.71-1.53.24-.24,1.14-2.6,1.28-2.62,1.55-.93,5.15,4.35,5.74,2.08.12-.45-1.71-3.63-2.04-3.93-1.19-1.05-5.24-.74-4.17-3.18l2.53,1.37.49-2.73c.47-.19,1.56.13,1.81-.02.04-.02-.15-.57.11-.81.22-.21.74-.04.81-.11.07-.07-.1-.62.04-.87.88-.36.82.4.88.41ZM300.81,207.97c.22-4.08-2.48-3.43-5.51-2.75-.03,2.1,2.19,1.1,3.36,1.36.57.13.62,1.96,2.16,1.39Z"/>
    <path class="cls-12" d="M310.01,195.57c2,.78,4.83,1.12,5.64-1.26l6.31-1.96c-.08,3.51-3.85,2.21-5.06,4.36l4.83-.69.23.91c-2.48,1.37-7.35,3.01-7.81,5.98l-3.22.92c-.52-1.71,1.12-1.36,1.61-2.3.37-.71.09-1.38.22-1.83,1.84.06,3.26-.7,3.22-2.75-2.51-.19-2.68.9-3.22,2.75-.31-.01-.61.03-.92,0v-2.76s-2.76,0-2.76,0c-.23-.17.87-1.18.92-1.37Z"/>
    <path class="cls-11" d="M298.05,214.86c.74.56,1.27,2.63,2.79,3.07l-.51,2.44h-1.35c-.07-2.08-2.51-3.6-4.61-3.21v-.91c1.31.22,1-1.28.92-2.3.61.26,2.38.63,2.76.92Z"/>
    <path class="cls-12" d="M281.04,190.97c.75-.01,2.02.83,1.84,1.6l-2.83,2.45c-1.18.61-1.77-1.01-2.53-1.2-.5-.12-1.12.35-1.54.36-.27-1.67,4.07-3.2,5.06-3.22Z"/>
    <path class="cls-12" d="M309.09,211.18c-.63.59-2.44-.81-1.83-1.37.63-.59,2.44.81,1.83,1.37Z"/>
    <rect class="cls-12" x="307.71" y="214.4" width="1.37" height=".91"/>
    <rect class="cls-11" x="286.1" y="210.73" width=".91" height=".91"/>
    <path class="cls-12" d="M320.13,221.75c-.1.18-.42.34-.46.46l-.46-.23c-.15-1.51.82-.24.92-.23Z"/>
    <path class="cls-3" d="M341.28,175.81c-.72.11-1.69,1.25-2.76.92l.92-2.29c1.08.11,1.84-.07,1.84,1.38Z"/>
    <path class="cls-1" d="M319.21,182.25v.68c-2.21,2.07-2.78-.85,0-.68Z"/>
    <path class="cls-12" d="M337.14,194.19c-.05.05.11.59-.12.8-.38.34-1.1.03-1.26.12.2-.66.71-.91,1.38-.92Z"/>
    <path class="cls-14" d="M310.47,243.34c.31,0,.94.17.93-.24.16-3.19-2.07-2.87-2.67-3.54-.22-.25-.72-3.84-.56-4.03,1.26-.32,3.15,3.13,4.14,2.29-.49-.76.03-2.02-.1-2.48-.2-.73-1.82-.51-1.28-2.1.86-.15,1.26.13,1.88.65.81.69,2.06,2.55,2.57,3.04.66.62,1.97,1.41,2.91,1.37.77.8-5.23,6.46-5.98,7.34,0-.31.01-.61,0-.92h-1.38c-.1-.4-.32-.93-.46-1.38Z"/>
    <path class="cls-5" d="M309.55,242.42c.58.43.4-.76.92.92-.85-.02-1.06.15-.92-.92Z"/>
    <path class="cls-7" d="M353.7,129.42c1.34.06,3.59,1.16,4.6,1.38.29,2.22-3.74,2.13-4.59,3.91-.69,1.7,4.04-.44,4.36-.24,1.21.09-2.51,3.16-3.23,3.24-2.26.24-2.48-3.27-5.91.49-.43.47-.45,1.45-1.15,2.07-.59.52-1.68.57-1.8.71-.09.11-.54,2.54-.54,2.68-.74.3-1.53.33-2.3.46-.05,0-.24-.56-.88-.26-1.2.57-2.84,3.82-3.25,5.09-.48,1.5,2.22-.26,2.75.22l-1.85,3.92.22.67c1.39.7,2.14,1.58,2.09,3.21,1.39.36,1.12-1.44,1.48-1.74.33-.27,1.39,0,2.25-.74.79-.68,2.19-3.59,3.37-4.45.68-.5,1.51-.25,1.98-.54.33-.21.37-1.09,1.36-1.62.83-.44,1.96-.56,2.9-.55,0,.15.01.31,0,.46-1.01.66-2.81,1.84-3.64,2.56-.76.67-3.56,3.23-3.97,3.84-.63.94-.62,1.67-1.09,2.6-2.82-.67-2.45.7-3.92,1.58-.75.45-1.59.43-2.33.88-1.48.9-1.53,2.8-4.35,1.4h-.46c.16-.23,1.05-2.17.92-2.29h-1.84s-.46-1.38-.46-1.38c.48-.22,1.41-.67,1.84-.92l1.13.44c.68-.21.54-1.13.71-1.36.14-.19.8-.36.92-.69v-.68c-.72.08-1.62-.13-2.3,0l-.92-2.3c0-1.73,4.3-5.21,3.61-6.37l-1.31-1.2c1.54-1.18,2.15-2.8,2.76-4.59-2.23-3-5.19,3.77-5.98,2.97l.46-2.29h-1.05s-.33-.91-.33-.91c1.53.16,3.11-1.62,3.24-3.03.07-.76-2.41-1.59-1.86-3.41.97-.38,1.64-.99,2.76-1.38.37.75,1.57.42,2.3.46v-.92c1.24-.18,3.87-.48,5.06-.46.2,0,.95.76,2,.48.49-.13.26-.91.3-.94.2-.12,1.75.05,2.3,0,.3-.03.62.02.92,0,.92-.06,2.19-.48,2.76-.46ZM338.98,137.69c2.87.53,5.65-2.01,1.84-3.21.22,1.37-.29,1.6-1.56,1.79l-.28,1.42Z"/>
    <path class="cls-15" d="M359.68,130.8v.92s1.38,0,1.38,0c.07.06,1.3.27,1.84.46.23.79.71.78,1.38.92.81,3.04-4.47,3.32-5.53,4.35-.7.68-.31,1.42-.44,2.08-.04.18-.49.47-.5,1.12,0,1.82,2.01,4.96,4.17,4.39.18-1.42-.17-2.93-.92-4.13l5.52-1.38c.24,1.71-3.19.94-2.76,2.75,1.11,1.16,5.21.14,5.51,1.16.59,2.03-2,1.33-2.66,1.7-.32.18-1,2.29-2.34,2.27l-.05,3.14c-1.95-1.75-3.46-3.45-5.98-4.13l-1.49-.41-1.26,1.32c-.94-.01-2.07.11-2.9.55-.99.53-1.03,1.42-1.36,1.62-.47.29-1.29.05-1.98.54-1.18.86-2.58,3.77-3.37,4.45-.86.74-1.92.47-2.25.74-.36.3-.09,2.09-1.48,1.74.04-1.63-.71-2.51-2.09-3.21l-.22-.67,1.85-3.92c-.53-.48-3.23,1.28-2.75-.22.41-1.28,2.05-4.53,3.25-5.09.64-.3.83.27.88.26-.06,1.85-.45,5.11,1.69,5.89.67.24,1.38,0,1.99.08.18.02.76.76,1.37.46l.91-2.94-2.74-.74c-.17-.65-.92-3.05-.92-3.22,0-.14.45-2.57.54-2.68.12-.15,1.21-.2,1.8-.71.71-.62.73-1.6,1.15-2.07,3.43-3.76,3.65-.25,5.91-.49.72-.08,4.44-3.15,3.23-3.24-.32-.2-5.05,1.95-4.36.24.86-1.78,4.88-1.69,4.59-3.91.4.08.94-.06,1.38,0Z"/>
    <path class="cls-12" d="M334.38,156.98l.46,1.38c.17,1.85,0,1.09-1.08,1.43-1.16.35-4.43,1.2-3.97,2.93.41,1.56,2.1-.21,2.75-.46,1.4-.55,2.31-.29,3.23-1.6h.46c.02.83.26,1.81-.78,2.22-.76.3-1.83-.47-1.51.99,2.7.47,4.88-1.59,7.82.47-.2.44.21,1.13-.66,1.86-1.41,1.2-5.77,1.23-5.32,4.56.81.82,7.57-3.86,9.8-3.15.6.19.89.69.77,1.31-2.35-.43-3.18,2.06-4.14,3.68-1.41.16-2.68.8-4.39.47-1.14-.22-.91-1.22-1.46-1.39s-1.42.11-2.08-.11c-4.81-1.56-6.51-4.43-8.16-8.62v-2.3c2.55-.22,1.53-.67,2.46-1.22,2.05-1.19,3.95-1.61,5.82-2.46Z"/>
    <path class="cls-14" d="M355.54,147.79c-.09,1.27-.17,1.1-.36,2.19-.14.8.54,1.29-.05,2.19s-1.9,1.01-2.58,1.59c-3.68,3.14-8.95,6.57-10.81,10.56-2.93-2.06-5.12,0-7.82-.47-.32-1.45.75-.69,1.51-.99,1.05-.41.8-1.39.78-2.22,2.82,1.4,2.87-.49,4.35-1.4.74-.45,1.58-.44,2.33-.88,1.47-.88,1.1-2.25,3.92-1.58.47-.93.47-1.67,1.09-2.6.41-.61,3.21-3.18,3.97-3.84.83-.73,2.64-1.9,3.64-2.56Z"/>
    <path d="M370.71,161.57v.92c1.51-.38,2.51.39,2.31,1.97-.05.38-.82.58-.93.79-1.99-.11-3.45,1.39-5.52.92-.26-.25-.85-.43-.93-.75l.11-1.01c1-.13,1.28-1.4,1.74-1.71.61-.4,2.31,1.01,2.29-1.13.3-.02.63-.03.92,0Z"/>
    <path class="cls-12" d="M342.66,172.6c2.64-.35,5.2-.94,7.82-1.38l-.92,2.29c-.05.02-.26.62-.79.79-1.69.55-2.66.75-4.36.08-.12-.05-2.1-1.3-1.75-1.79Z"/>
    <path class="cls-11" d="M354.62,171.22c.25.15,1.37-.11,1.84,0,.13,1.39-1.14,1.5-2.3,1.37v-.92c.17-.11.3-.32.46-.46Z"/>
    <path class="cls-11" d="M367.49,168.46c-.05,0-.6.78-.91.46-.13-.13.09-.81,0-.92l.92.46Z"/>
    <polygon class="cls-12" points="366.57 200.16 367.03 202.45 365.66 202.46 365.66 200.16 366.57 200.16"/>
    <path class="cls-12" d="M360.14,196.02v-1.83c1.83.01,1.81,1.83,0,1.83Z"/>
    <path class="cls-5" d="M372.09,165.25c-.5.93.28,2-2.12,2.28-1.67.2-2.28-.3-3.4-1.37,2.07.47,3.53-1.02,5.52-.92Z"/>
    <path class="cls-12" d="M326.11,138.61c.05.51.07,1.34,0,1.84-1.43-.05-1.5,1.11-1.38,2.3-.23.09-.61-.03-.94.22-.47.36-.3.89-.44,1.16-.19.38-.53,1.34-.69,1.39-1.11.2-.96-.21-1.45-.92h-.62c-.08-.9.11-1.9,0-2.76l2.31-3.47,3.21.26ZM321.28,142.74v.46c.3-.15.3-.31,0-.46Z"/>
    <path class="cls-14" d="M320.13,152.39c-.02.53.42,1.05.46,1.38h-3.68s-.43,2.1-.43,2.1l-3.25.19c.05-3.22,4.31-3.72,6.9-3.67Z"/>
    <path class="cls-14" d="M320.59,155.14c.07.36.34.9.46,1.38l-2.3.92,1.84-2.29Z"/>
    <path class="cls-11" d="M321.05,137.69l-.92,2.76c-.09-.65-.7-1.24,0-2.45.13-.54.83-.23.92-.31Z"/>
    <path class="cls-12" d="M321.51,157.9c.14.48.31.91.46,1.38h-1.84c-.17-.92.53-1.36,1.38-1.38Z"/>
    <rect class="cls-14" x="316.91" y="156.52" width=".91" height=".91"/>
    <path class="cls-11" d="M265.86,157.9c4.2-1.82,9.03-2.52,13.3-4.86.4-.22.65-.56.96-.88.08-.18-1.88-.36-.92-1.14.54-.44,2.89,1.38,3.22,1.83-.29.44-1.38,3-1.39,3.44,3.14.7,1.78-4.79,5.98-3.44l-.46-1.83,2.76.92-.93,2.76c-1.28.26-.89-.47-.92-1.38-1.65-.02-2.23,1.21-2.76,2.53l-7.36,8.5c-.14.03-.31-.02-.46,0h-.92s.46-1.84.46-1.84c.8-.91.73-2.02.92-2.3,1.26-1.85,3.26-2.79,3.22-5.51-.82-.71-8.32,2.71-9.79,3.33-.49.21-.73.78-.79.8-.22.09-.7-.09-.92,0-1.1.46-5.63,3.54-5.06.46.7-.34,1.42-1.19,1.84-1.38Z"/>
    <path class="cls-11" d="M291.62,149.17c-.43.58-.37,2.42-1.84,2.76-.37-.92-.43-1.81.07-2.7l1.77-.06Z"/>
    <path class="cls-12" d="M325.65,159.28c.03.46-.02.92,0,1.38-.44-.04-.91.1-1.35-.03-.17-.4.08-1.05-.03-1.34.45-.04.95.06,1.38,0Z"/>
    <path class="cls-12" d="M335.3,132.64c-.55,1.82,1.93,2.65,1.86,3.41-.13,1.4-1.71,3.19-3.24,3.03l.33.92h1.05s-.46,2.29-.46,2.29c.79.8,3.75-5.98,5.98-2.97-.61,1.79-1.22,3.41-2.76,4.59l1.31,1.2c.69,1.16-3.61,4.65-3.61,6.37-1.1.38-1.35,1.48-2.01,2.16-.39.4-1.78.03-1.67,2.43-1.06.47-2.14.39-3.1.81-1.34.59-1.69,2.16-3.34,2.4-.02-.3.03-.61,0-.92h-1.84c-.95-2.65-2.69-9.08-1.29-11.65.42-.77,2.41-.98.83-2.59.14-.27-.03-.8.44-1.16.32-.25.71-.13.94-.22,1.23-.49,1.14-.47,1.38-2.3.07-.5.05-1.32,0-1.84-.03-.3.06-.66,0-.92.95-.44,1.93-1.21,2.76-1.84,3.14-2.38,3.21-1.94,6.44-3.22Z"/>
    <path class="cls-12" d="M347.26,129.42c.23.02.41.24.46.46-.04.03.18.8-.3.94-1.04.28-1.8-.47-2-.48.27-.2.69-.85.92-.92.18-.06.67-.02.92,0Z"/>
    <path class="cls-12" d="M340.36,130.8v.92c-.73-.03-1.92.29-2.3-.46,1.14-.39,1.25-.31,2.3-.46Z"/>
    <path class="cls-11" d="M347.26,128.5v.92c-.25-.02-.74-.06-.92,0-.02-.3.03-.62,0-.92-.02-.16.03-.33,0-.46.34-.04.78.44.92.46Z"/>
    <path class="cls-12" d="M277.36,164.33c.39-.09.95.05,1.38,0,.4,3.26-1.74,1.97-3.68,2.29-.35-.75.41-1.5.46-1.84l1.35.42.03-.88c.15-.02.32.03.46,0Z"/>
    <path class="cls-12" d="M324.73,166.63v.92s-.92,0-.92,0l-.46-2.3c.12-.02.43-.77.94-.26.57.51.33,1.49.44,1.64Z"/>
    <path class="cls-3" d="M270,158.82c.06-.03.3-.6.79-.8,1.46-.62,8.96-4.03,9.79-3.33.05,2.72-1.96,3.65-3.22,5.51-1.74-2.14-4.25-2.22-5.98,0h-1.38s0-1.38,0-1.38Z"/>
    <path class="cls-3" d="M269.08,158.82c.49,2.21-.45,1.99-1.27,2.87-.26.28-.06.76-.11.81-.14.13-1.61-.02-1.38,1.38-.3.03-.62,0-.92,0-.18-2.36-1.88-.86-3.01-.89-1.19-.02-2.48-1.4-4.34-.5l4.02-2.65c.55-.37,1.45-.32,1.95-.56-.57,3.08,3.96,0,5.06-.46Z"/>
    <path class="cls-12" d="M270,158.82v1.38s1.38,0,1.38,0c-.94,1.2-1.18,3.52-3.68,2.3v1.38c-.45.04-.93-.04-1.38,0-.23-1.4,1.24-1.25,1.38-1.38.05-.05-.15-.53.11-.81.82-.88,1.76-.66,1.27-2.87.22-.09.7.09.92,0Z"/>
    <path class="cls-3" d="M276.44,162.49l-.46,1.83h.92s-.03.88-.03.88l-1.35-.42c.1-.6-.17-1.45-.02-1.99s.88-.23.94-.3Z"/>
    <path class="cls-3" d="M336.68,153.77c.68-.12,1.57.08,2.3,0v.68c-.12.33-.78.5-.92.69-1.17-.4-1.49.72-1.84.92-.43.25-1.36.7-1.84.92-1.87.85-3.77,1.27-5.82,2.46-.93.54.09,1-2.46,1.22-.15.01-.31.01-.46,0-.02-.46.03-.92,0-1.38,1.65-.25,2-1.81,3.34-2.4.96-.42,2.04-.34,3.1-.81,1.27-.56,3.7-2.13,4.6-2.3Z"/>
    <path class="cls-3" d="M323.81,158.36h1.84c.03.3-.02.62,0,.92-.43.06-.93-.04-1.38,0-.09-.23-.32-.52-.46-.92Z"/>
    <path class="cls-3" d="M326.11,161.57v1.38c-.07-.18-1.18-.44-.92-1.14l.92-.23Z"/>
    <path class="cls-2" d="M365.19,133.1c-.3,1.33.82.66,1.4,1.23,3.35,3.3,6.01,8.87,6.87,13.47-3.86-.63-5.38,2.9-9.2,2.76l.05-3.14c1.34.02,2.02-2.09,2.34-2.27.66-.37,3.25.32,2.66-1.7-.3-1.02-4.4,0-5.51-1.16-.43-1.81,3-1.04,2.76-2.75l-5.52,1.38c-.08-.13-.32-.31-.46-.46v-1.38s-.69,0-.69,0l-.23.45c-.29-.12-.98.08-1.38,0,.14-.66-.26-1.4.44-2.08,1.06-1.03,6.35-1.31,5.53-4.35.15.03.31-.03.46,0s.31-.03.46,0Z"/>
    <path class="cls-5" d="M351.4,128.04c.74,1.27,2.3.04,2.76,0,.3-.03.62.03.92,0,.3,1.1-.72.83-1.38,1.38-.56-.02-1.84.4-2.76.46l-.23-.92h-.68s0,.92,0,.92c-.55.05-2.1-.12-2.3,0-.05-.22-.23-.44-.46-.46v-.92c1.52.18,2.71-.14,4.14-.46Z"/>
    <path class="cls-3" d="M359.68,130.8c2.4.32.94.51,1.38.92h-1.38s0-.92,0-.92Z"/>
    <path class="cls-3" d="M364.73,133.1c-.15-.03-.31.03-.46,0-.67-.14-1.15-.12-1.38-.92.59.21,1.59-.19,1.84.92Z"/>
    <path class="cls-3" d="M300.81,207.97c-1.54.58-1.58-1.26-2.16-1.39-1.16-.27-3.39.73-3.36-1.36,3.03-.68,5.73-1.33,5.51,2.75Z"/>
    <path class="cls-14" d="M312.77,199.7c.53-1.85.71-2.95,3.22-2.75.05,2.06-1.38,2.82-3.22,2.75Z"/>
    <path class="cls-4" d="M345.42,143.66c0,.17.75,2.57.92,3.22.25.92,1.33,1.47.46,3.22-.61-.08-1.31.16-1.99-.08-2.14-.78-1.75-4.05-1.69-5.89.77-.13,1.56-.16,2.3-.46Z"/>
    <path class="cls-14" d="M334.84,158.36h1.84c.13.12-.76,2.07-.92,2.3-.92,1.31-1.83,1.05-3.23,1.6-.65.26-2.34,2.02-2.75.46-.46-1.73,2.81-2.58,3.97-2.93,1.09-.33,1.25.42,1.08-1.43Z"/>
    <path class="cls-14" d="M336.68,153.77c-.9.16-3.32,1.74-4.6,2.3-.1-2.4,1.29-2.03,1.67-2.43.65-.68.9-1.78,2.01-2.16l.92,2.3Z"/>
    <path class="cls-12" d="M338.98,137.69l.28-1.42c1.27-.19,1.79-.42,1.56-1.79,3.81,1.21,1.03,3.75-1.84,3.21Z"/>
    <path class="cls-14" d="M338.06,155.14c-.17.23-.03,1.15-.71,1.36l-1.13-.44c.35-.2.67-1.31,1.84-.92Z"/>
    <path class="cls-11" d="M350.02,129.88v-.92s.69,0,.69,0l.23.92c-.3.02-.62-.03-.92,0Z"/>
    <path class="cls-4" d="M359.68,139.53c.06.02.76.75.92.92.14.15.38.33.46.46.75,1.21,1.1,2.72.92,4.13-2.17.57-4.17-2.57-4.17-4.39,0-.65.46-.94.5-1.12.4.08,1.09-.12,1.38,0Z"/>
    <path class="cls-7" d="M346.34,146.88l2.74.74-.91,2.94c-.61.3-1.19-.43-1.37-.46.87-1.75-.21-2.29-.46-3.22Z"/>
    <path class="cls-11" d="M326.11,140.45c-.24,1.82-.15,1.81-1.38,2.3-.12-1.19-.05-2.35,1.38-2.3Z"/>
    <path class="cls-6" d="M321.28,142.74c.3.15.3.31,0,.46v-.46Z"/>
    <path class="cls-15" d="M359.68,139.53l.23-.45h.68s0,1.37,0,1.37c-.16-.17-.86-.89-.92-.92Z"/>
  </g>
</svg>