<?xml version="1.0" encoding="UTF-8"?>
<svg id="Layer_1" data-name="Layer 1" xmlns="http://www.w3.org/2000/svg" viewBox="0 0 72 110.96">
  <defs>
    <style>
      .cls-1 {
        fill: #fff;
      }

      .cls-2 {
        fill: #eb2027;
      }
    </style>
  </defs>
  <path class="cls-2" d="M27.14,16.13L.2,105.04c-.74,2.43.64,4.99,3.06,5.73s4.99-.64,5.73-3.06L35.92,18.85c.1-.31.21-.61.34-.91.46-1.12,1.05-2.15,1.76-3.1h0c1.29-1.72,2.97-3.13,4.96-4.13.47-.24.95-.45,1.43-.63,1.3-.49,2.64-.77,3.98-.86,1.7-.11,3.41.11,5.06.65.27.09.53.19.79.29,1.44.59,2.74,1.42,3.87,2.43,1.58,1.42,2.83,3.21,3.63,5.18.08.18.15.37.21.55.37,1.03.63,2.1.75,3.2.01.1.02.2.03.3.16,1.66.02,3.38-.45,5.06-.69,2.44.74,4.98,3.18,5.66,2.44.69,4.98-.74,5.66-3.18,1.32-4.72,1.12-9.67-.55-14.23-.08-.24-.18-.47-.27-.71-.3-.74-.63-1.46-1.01-2.18-.14-.27-.29-.54-.44-.8-.16-.28-.32-.55-.49-.81-2.45-3.88-5.94-6.9-10.08-8.72-.64-.28-1.29-.53-1.95-.75-.64-.21-1.29-.4-1.94-.55-3.5-.83-7.11-.81-10.6.05-1.27.31-2.53.74-3.76,1.27-.41.18-.81.37-1.21.57-2.58,1.3-4.85,3.02-6.74,5.08-.91.99-1.73,2.05-2.45,3.19-1.03,1.62-1.87,3.39-2.48,5.27l-.03.09Z"/>
  <polygon class="cls-1" points="4.12 92.08 2.76 96.6 9.54 104.94 9.92 104.63 11.12 100.68 4.12 92.08"/>
  <polygon class="cls-1" points="7.87 79.71 6.51 84.22 13.3 92.56 13.67 92.25 14.87 88.3 7.87 79.71"/>
  <polygon class="cls-1" points="11.62 67.33 10.26 71.85 17.05 80.19 17.42 79.88 18.62 75.93 11.62 67.33"/>
  <polygon class="cls-1" points="15.38 54.96 14.01 59.47 20.8 67.81 21.17 67.5 22.37 63.55 15.38 54.96"/>
  <polygon class="cls-1" points="19.13 42.58 17.76 47.1 24.55 55.44 24.92 55.13 26.12 51.18 19.13 42.58"/>
  <polygon class="cls-1" points="22.88 30.21 21.51 34.72 28.3 43.06 28.67 42.75 29.87 38.8 22.88 30.21"/>
  <polygon class="cls-1" points="26.63 17.83 25.26 22.35 32.05 30.69 32.42 30.38 33.62 26.43 26.63 17.83"/>
  <path class="cls-1" d="M29.66,10.77l6.14,7.54.46-.37c.46-1.12,1.05-2.15,1.76-3.1h0s-5.91-7.26-5.91-7.26c-.91.99-1.73,2.05-2.45,3.19Z"/>
  <path class="cls-1" d="M40.05,1.93l4.36,8.15c1.3-.49,2.64-.77,3.98-.86L43.8.66c-1.27.31-2.53.74-3.76,1.27Z"/>
  <path class="cls-1" d="M54.41.61l-.17,9.56c1.44.59,2.74,1.42,3.87,2.43l.19-10.68-3.89-1.3Z"/>
  <path class="cls-1" d="M61.71,17.64s.02.09.02.14c.08.18.15.37.21.55.37,1.03.63,2.1.75,3.2.01.1.02.2.03.3l.05.06,7.8-6.75c-.08-.24-.18-.47-.27-.71-.3-.74-.63-1.46-1.01-2.18-.14-.27-.29-.54-.44-.8l-7.15,6.19Z"/>
</svg>