<?xml version="1.0" encoding="UTF-8"?>
<svg id="Layer_1" data-name="Layer 1" xmlns="http://www.w3.org/2000/svg" xmlns:xlink="http://www.w3.org/1999/xlink" viewBox="0 0 248.54 398.64">
  <defs>
    <style>
      .cls-1 {
        stroke: #a05558;
        stroke-width: 1.33px;
      }

      .cls-1, .cls-2, .cls-3, .cls-4, .cls-5, .cls-6, .cls-7, .cls-8, .cls-9, .cls-10, .cls-11 {
        stroke-miterlimit: 10;
      }

      .cls-2 {
        stroke: #fff;
      }

      .cls-2, .cls-3, .cls-4, .cls-6, .cls-7, .cls-8, .cls-9, .cls-10, .cls-11 {
        fill: none;
      }

      .cls-2, .cls-7, .cls-8 {
        stroke-linecap: round;
      }

      .cls-2, .cls-11 {
        stroke-width: 1.77px;
      }

      .cls-12 {
        fill: #534741;
      }

      .cls-3 {
        stroke: url(#Gold_Dust-2);
      }

      .cls-3, .cls-6, .cls-9, .cls-10 {
        stroke-width: 1.79px;
      }

      .cls-13, .cls-5 {
        fill: #a05558;
      }

      .cls-14 {
        fill: #fff;
      }

      .cls-4 {
        stroke-width: .44px;
      }

      .cls-4, .cls-5, .cls-7, .cls-8 {
        stroke: #000;
      }

      .cls-5 {
        stroke-width: .3px;
      }

      .cls-6 {
        stroke: url(#Gold_Dust);
      }

      .cls-15 {
        fill: #c1272d;
      }

      .cls-16 {
        fill: #006837;
      }

      .cls-17 {
        fill: #deb299;
      }

      .cls-7 {
        stroke-width: 7.07px;
      }

      .cls-8 {
        stroke-width: 3.54px;
      }

      .cls-18 {
        fill: #ccc;
      }

      .cls-9 {
        stroke: url(#Gold_Dust-4);
      }

      .cls-19 {
        fill: #f7931e;
      }

      .cls-10 {
        stroke: url(#Gold_Dust-3);
      }

      .cls-11 {
        stroke: #c69c6d;
      }

      .cls-20 {
        fill: #e6e6e6;
      }
    </style>
    <linearGradient id="Gold_Dust" data-name="Gold Dust" x1="172.53" y1="191.74" x2="174.82" y2="191.74" gradientUnits="userSpaceOnUse">
      <stop offset="0" stop-color="#ff7300"/>
      <stop offset=".18" stop-color="#f97c00"/>
      <stop offset=".47" stop-color="#ea9502"/>
      <stop offset=".55" stop-color="#e59e03"/>
      <stop offset=".87" stop-color="#e5c500"/>
      <stop offset=".99" stop-color="#bf6f00"/>
    </linearGradient>
    <linearGradient id="Gold_Dust-2" data-name="Gold Dust" x1="160.63" y1="191.49" x2="186.22" y2="191.49" xlink:href="#Gold_Dust"/>
    <linearGradient id="Gold_Dust-3" data-name="Gold Dust" x1="163.54" y1="191.49" x2="183.81" y2="191.49" xlink:href="#Gold_Dust"/>
    <linearGradient id="Gold_Dust-4" data-name="Gold Dust" x1="161.32" y1="190.68" x2="183.94" y2="190.68" xlink:href="#Gold_Dust"/>
  </defs>
  <path class="cls-18" d="M117.58,56.1c-1.71-1.27-3.43-2.4-3.79-2.04-.39.38,1.11,2.15.67,2.65-.74.85-5.93-3.18-6.91-2.2-.65.65,1.49,2.56.93,4.76-.74,2.94-5.63,3.84-5.39,4.77.16.62,2.26-.11,3.44,1.03,1.92,1.86-.58,6.76.68,7.44.75.41,1.71-1.34,3.18-1.09,2.09.35,2.56,4.25,3.85,4.14.65-.06,1.1-1.1,1.25-1.74.56-2.36-1.69-4.6-1.4-4.83.22-.17,1.44,1.21,3.46,2.72,1.82,1.36,2.79,2.09,3.44,1.8,1.41-.63.43-5.68.12-7.29-.47-2.42-1.41-5.98-3.52-10.13Z"/>
  <path class="cls-17" d="M158.21,67.25c-7.52,6.81-8.5,18.42-8.76,21.5-.34,4.09-.96,11.44,3.4,18.19,2.6,4.03,5.74,5.93,11.72,9.45,11.06,6.51,16.59,9.77,22.91,9.11,13.71-1.43,21.11-17.94,22.23-20.44,1.72-3.85,6.31-14.08,2.56-24-7.05-18.65-39.95-26.59-54.06-13.83Z"/>
  <path class="cls-13" d="M157.81,55.17c8.26-.86,19.93-.95,32.7,3.17,18.28,5.9,27.63,16.82,32.24,13.47,4-2.91,1.8-14.66-3.08-22.89-9.56-16.11-32.65-24.2-51.09-19.97-4.97,1.14-14.11,6.64-32.19,17.6-8.62,5.22-15.7,9.7-20.63,12.86,1.85,3.14,3.69,6.28,5.54,9.43,12.17-4.55,24.34-9.1,36.51-13.65Z"/>
  <ellipse class="cls-15" cx="174.36" cy="106.92" rx="4.28" ry="3.09" transform="translate(8.39 226.44) rotate(-67.28)"/>
  <path class="cls-17" d="M211.9,99.39c4.38-3.5,5.63-3.9,5.94-3.6.65.63-2.02,5.04-4.56,8.13-1.69,2.05-2.44,2.44-3.25,4.22-.97,2.12-.87,3.67-1.98,4.11-.92.36-2.37-.16-2.7-1.04-.51-1.35,1.91-2.79,4.08-6.18,1.42-2.22,2.12-4.31,2.47-5.64Z"/>
  <path class="cls-17" d="M152.79,75.17c-1.24-5.52-1.96-6.62-2.39-6.59-.91.08-1.59,5.23-1.54,9.26.03,2.68.37,3.46-.11,5.37-.58,2.28-1.63,3.43-1.04,4.48.49.87,1.96,1.38,2.77.89,1.25-.74.26-3.4.7-7.43.28-2.64,1.05-4.72,1.62-5.99Z"/>
  <path class="cls-19" d="M159.96,63.28c-1.46,1.07-3.49,3.35-4.86,5.15-1.07,1.4-2.36,3.13-1.89,3.77.38.51,1.73.13,2.73-.23,1.31-.48,2.61-.97,3.92-1.45.45,1.84,2.04,2.81,3.08,2.55,1.13-.28,2.16-2.15,1.35-4.13,1.75,1.31,3.49,2.61,5.24,3.92.32-1.25.64-2.5.97-3.74.57,1.33,1.14,2.66,1.7,3.99,1.12-1.1,2.25-2.19,3.37-3.29,2.04,3.92,3.38,5.77,4.01,5.55.55-.19.57-1.94.05-5.27,2.6,5.56,4.3,8.22,5.1,7.97.63-.2.71-2.17.23-5.92,3.03,6.43,4.83,7.86,5.96,7.64,1.56-.29,2.3-3.8,2.84-3.65.57.16-.62,3.97.63,4.82.93.63,2.93-.58,4.97-2.21.73,1.61,1.45,3.22,2.18,4.83,1.34-.78,2.68-1.56,4.02-2.33-.37,1.26-.74,2.52-1.11,3.77,1.71-.75,3.41-1.49,5.12-2.24-.59,4.03-.5,5.22-.2,5.3.55.14,1.79-3.48,2.6-3.29.58.14.16,2.04,1.38,3.9.59.9,1.34,1.46,1.89,1.79-.17-2.44-.34-4.88-.5-7.32-1.26-2.7-3.46-6.56-7.23-10.18-6.57-6.31-14.27-7.73-29.67-10.57-6.75-1.24-13.85-2.08-17.87.86Z"/>
  <path class="cls-18" d="M171.7,53.68c-5.35-.77-6.52-1.29-9.14-.99-1.76.2-5.82.68-6.78,3.18-.78,2.03.71,4.75,2.47,6.32,2.5,2.24,4.93,1.58,15.55,2.21,6.83.4,9.1.87,11.45,1.77,2.83,1.09,2.64,1.6,6.57,3.66,7.96,4.17,9.85,2.66,15.41,6.25,4.05,2.62,4.42,4.31,7.4,4.73,3.2.45,7.32-.86,8.27-3.48,1.38-3.78-4.47-8.67-6.31-10.2-4.62-3.86-9.59-5.24-14.22-6.49-6.32-1.7-6.08-.51-11.86-2.31-5.14-1.6-6.64-2.94-11.86-3.86-2.6-.46-2.23-.13-6.94-.8Z"/>
  <g>
    <ellipse class="cls-20" cx="170.33" cy="84.05" rx="3.28" ry="6.2" transform="translate(20.82 201.19) rotate(-64.34)"/>
    <circle class="cls-12" cx="170.33" cy="84.05" r="1.5"/>
    <circle class="cls-14" cx="169.54" cy="82.21" r=".96"/>
    <path d="M168.91,80.46c-.76-.12-1.94-.22-3.39.04.27-.12.8-.33,1.49-.45,3.01-.54,6.06,1.14,7.75,3.13.71.84,1.24,1.82,1.2,1.85-.04.03-.61-.89-1.46-1.74-2.23-2.24-5.06-2.74-5.58-2.82Z"/>
  </g>
  <path class="cls-18" d="M90.86,263.76c-2.12,1.97-5.16,4.69-8.98,7.74-2.92,2.34-8.02,6.42-12.98,9.35-4.53,2.67-12.34,6.4-23.91,7.88.94,5.27,1.89,10.55,2.83,15.82,4.37-.97,8.18-1.68,11.24-2.2,8.62-1.46,10.55-1.29,14.05-3.06,1.26-.64,1.53-.93,8.58-6.63,2.71-2.19,5.44-4.34,8.13-6.54,3.99-3.26,10.79-8.62,23.08-17.67-7.35-1.57-14.7-3.13-22.05-4.69Z"/>
  <path class="cls-18" d="M121.4,267.72c2.53,10.48,4.44,19.23,5.77,25.61,3.11,14.86,3.56,19.01,3.78,21.75.84,10.36-.09,18.92-1.03,24.57,5.32.51,10.65,1.01,15.97,1.52.24-4.48.59-8.35.91-11.44.73-6.94,1.31-9.5,1.13-12.21-.03-.45-.18-1.38-.3-2.18-.57-3.91-1.14-6.72-1.24-7.24-.97-4.93-.35-11.81-.45-16.59-.09-4.41-.87-10.68-4.05-18.37-6.83-1.8-13.66-3.61-20.49-5.41Z"/>
  <g>
    <ellipse class="cls-20" cx="193.5" cy="94.1" rx="3.47" ry="6.56" transform="translate(24.9 227.78) rotate(-64.34)"/>
    <circle class="cls-12" cx="193.5" cy="94.1" r="1.58"/>
    <circle class="cls-14" cx="192.67" cy="92.16" r="1.02"/>
    <path d="M192.01,90.31c-.81-.13-2.06-.23-3.58.04.29-.13.84-.35,1.57-.48,3.19-.57,6.42,1.2,8.19,3.31.75.89,1.31,1.92,1.27,1.95-.04.03-.65-.94-1.54-1.84-2.36-2.37-5.36-2.89-5.91-2.98Z"/>
  </g>
  <path class="cls-5" d="M123.25,121.55c12.07.14,13.83,8.5,35.39,16.97,13.97,5.49,17.67,3.72,28.62,7.58,11.18,3.94,26.04,12.36,40.87,32.39-4.83,6.17-9.66,12.34-14.48,18.5-4-1.67-10.22-4.68-16.74-9.91-8.14-6.52-10.43-11.43-14.52-11.17-6.68.42-11.41,15.86-12.59,19.78-5.8,19.29-3.21,32.29-3.62,54.67-.16,8.42-.78,20.55-3,35.29-5.85,2.54-29.17,11.87-57.24,3.01-27.48-8.68-41.22-29.01-44.69-34.52.64-8.53,2.61-20.82,8.6-34.31,9.19-20.72,23.04-33.41,30.88-39.59,1.77,1.23,3.52,2.41,3.59,2.32.16-.22-10.7-5.48-14.82-14.82-4.46-10.11.24-21.07,1.21-23.32,5.4-12.62,18.96-23.03,32.55-22.87Z"/>
  <path class="cls-18" d="M227.7,179.51c-4.31,5.48-8.62,10.97-12.94,16.45,4.85,14.54,14.39,23.3,22.66,22.4,3.8-.41,8.31-2.96,9.57-6.93,1.79-5.65-3.08-13.93-13.32-18.37,6.31,3.45,13.25,6.73,14.62,5.02.48-.6.12-1.63-.08-2.18-2.53-6.96-17.64-14.9-20.52-16.39Z"/>
  <path class="cls-4" d="M111.43,150.56c-.61.38-3.8,2.44-4.12,5.75-.38,3.99,3.52,8.6,9.74,9.41"/>
  <path class="cls-5" d="M161.66,141.54c15.63,8.18,28.92,8.89,32.76,3.47,2.3-3.25,1.26-8.82-.9-12.5-3.84-6.54-11.35-7.28-19.9-10.32-4.8-1.71-12.35-6.97-27.47-17.49-10.52-7.32-25.53-17.77-34.33-25.73-9.54-8.64-27.19-28.3-35.95-68.99-12.82,2.3-25.65,4.6-38.47,6.91.69,5.97,2.39,14.81,7.2,24.25,5.53,10.85,12.2,16.68,24.7,28.55,23.51,22.33,19.17,20.01,30.15,29.64,13.13,11.51,33.45,27.21,62.22,42.22Z"/>
  <path class="cls-2" d="M178.88,124.97h-.02c-7.92,3.9-15.8,7.81-23.7,11.71"/>
  <path class="cls-2" d="M155.29,111.15h-.02c-7.92,3.9-15.8,7.81-23.7,11.71"/>
  <path class="cls-2" d="M135.61,97.32c-7.76,3.85-15.51,7.68-23.27,11.51"/>
  <path class="cls-2" d="M115.35,82.02c-7.34,3.62-14.66,7.24-22.01,10.88"/>
  <path class="cls-2" d="M77.55,77.61c7.16-3.51,14.31-7.06,21.49-10.6h.02"/>
  <path class="cls-2" d="M89.96,50.13c-10.86,2.72-21.7,5.46-32.52,8.2"/>
  <path class="cls-2" d="M81.77,31.1c-13.38,1.14-26.74,2.32-40.08,3.48"/>
  <g>
    <g>
      <path class="cls-7" d="M108.11,375.53c2.28,3.54,8.2,11.65,19.14,16.31,16.96,7.22,32.53.41,35.22-.82"/>
      <path class="cls-8" d="M126.73,387.89c1.24-4.6,2.49-9.2,3.73-13.8"/>
    </g>
    <path class="cls-8" d="M139.14,392.03c.93-4.67,1.86-9.35,2.79-14.02"/>
  </g>
  <g>
    <g>
      <path class="cls-7" d="M8.5,292.84c-1.94,3.74-6.05,12.91-4.69,24.74,2.12,18.34,15.72,28.55,18.12,30.29"/>
      <path class="cls-8" d="M6.98,315.17c4.6-1.19,9.21-2.38,13.81-3.57"/>
    </g>
    <path class="cls-8" d="M9.51,328.03c4.51-1.5,9.03-3,13.54-4.5"/>
  </g>
  <path d="M130.11,336.98l17.02,3.46c-2.56,5.55-4.73,12.54-1.62,17.01,1.65,2.36,3.51,2.21,9.71,5.52,6.57,3.5,13.81,7.36,13.78,12.14-.02,3.39-3.7,5.82-4.06,6.05-2.8,1.79-5.93,1.54-8.73,1.09-10.06-1.6-14.58-5.5-23.53-8.37-2.91-.93-7.47-2.14-13.47-2.62-.04-3.23.19-6.95.94-11,1.95-10.57,6.52-18.45,9.95-23.28Z"/>
  <path d="M50.11,287.79c2.06,5.42,4.12,10.85,6.18,16.27-6.05.8-13.11,2.7-15.21,7.73-1.11,2.66.01,4.15.54,11.18.56,7.43,1.18,15.63-2.87,18.16-2.87,1.8-6.89-.02-7.28-.21-3.01-1.41-4.47-4.2-5.59-6.81-4.03-9.38-3.16-15.29-5.52-24.41-.77-2.96-2.19-7.47-4.99-12.8,2.7-1.76,5.96-3.55,9.78-5.09,9.95-4,19.04-4.34,24.95-4.02Z"/>
  <path class="cls-1" d="M41.77,18.18c-1.27-5.47-2.53-10.94-3.8-16.41"/>
  <path class="cls-1" d="M48.27,16.73c-.92-5.54-1.84-11.08-2.76-16.62"/>
  <path class="cls-1" d="M54.74,16.73c-.92-5.54-1.84-11.08-2.76-16.62"/>
  <path class="cls-1" d="M64.49,16.73c-.92-5.54-1.84-11.08-2.76-16.62"/>
  <path class="cls-1" d="M73.7,16.73c-.92-5.54-1.84-11.08-2.76-16.62"/>
  <path class="cls-16" d="M236.7,199l-108.91,29.18c-.11.03-.23-.04-.26-.15l-12.45-46.69c-.03-.11.04-.23.15-.26l108.91-29.18c.11-.03.23.04.26.15l12.45,46.69c.03.11-.04.23-.15.26Z"/>
  <path class="cls-11" d="M121.62,205.89c36.53-9.43,73.06-18.86,109.59-28.29"/>
  <path class="cls-11" d="M167.34,167.05c4.06,15.78,8.11,31.57,12.17,47.35"/>
  <path class="cls-18" d="M117.04,165.72c-4.31,5.48-8.62,10.97-12.94,16.45,4.85,14.54,14.39,23.3,22.66,22.4,3.8-.41,8.31-2.96,9.57-6.93,1.79-5.65-3.08-13.93-13.32-18.37,6.31,3.45,13.25,6.73,14.62,5.02.48-.6.12-1.63-.08-2.18-2.53-6.96-17.64-14.9-20.52-16.39Z"/>
  <g>
    <path class="cls-6" d="M173.43,178.94c.17,8.54.33,17.07.5,25.61"/>
    <path class="cls-3" d="M186.2,191.24c-8.52.17-17.03.33-25.55.5"/>
    <path class="cls-10" d="M183.21,182.97c-6.36,5.68-12.72,11.37-19.07,17.05"/>
    <path class="cls-9" d="M183.46,197.48c-7.22-4.53-14.44-9.06-21.66-13.59"/>
  </g>
</svg>