<?xml version="1.0" encoding="UTF-8"?>
<svg id="Layer_1" data-name="Layer 1" xmlns="http://www.w3.org/2000/svg" xmlns:xlink="http://www.w3.org/1999/xlink" viewBox="0 0 242.04 386.56">
  <defs>
    <style>
      .cls-1 {
        stroke: #a05558;
        stroke-width: 1.29px;
      }

      .cls-1, .cls-2, .cls-3, .cls-4, .cls-5, .cls-6, .cls-7, .cls-8, .cls-9, .cls-10, .cls-11, .cls-12, .cls-13 {
        stroke-miterlimit: 10;
      }

      .cls-2, .cls-3, .cls-4, .cls-5, .cls-6, .cls-7, .cls-8, .cls-9, .cls-11, .cls-12, .cls-13 {
        fill: none;
      }

      .cls-2, .cls-3, .cls-7, .cls-11, .cls-13 {
        stroke-linecap: round;
      }

      .cls-2, .cls-9 {
        stroke-width: 1.72px;
      }

      .cls-2, .cls-11, .cls-13 {
        stroke: #fff;
      }

      .cls-3 {
        stroke-width: 6.87px;
      }

      .cls-3, .cls-7, .cls-10, .cls-12 {
        stroke: #000;
      }

      .cls-14 {
        fill: #188975;
      }

      .cls-4 {
        stroke: url(#Gold_Dust);
      }

      .cls-4, .cls-5, .cls-6, .cls-8 {
        stroke-width: 2.32px;
      }

      .cls-15 {
        fill: #534741;
      }

      .cls-5 {
        stroke: url(#Gold_Dust-2);
      }

      .cls-16 {
        fill: #a05558;
      }

      .cls-17 {
        fill: #fff;
      }

      .cls-6 {
        stroke: url(#Gold_Dust-3);
      }

      .cls-18 {
        fill: #764339;
      }

      .cls-7 {
        stroke-width: 3.43px;
      }

      .cls-8 {
        stroke: url(#Gold_Dust-4);
      }

      .cls-9 {
        stroke: #c69c6d;
      }

      .cls-19 {
        fill: #c1272d;
      }

      .cls-20 {
        fill: #006837;
      }

      .cls-10 {
        fill: #a05757;
      }

      .cls-10, .cls-12 {
        stroke-width: .43px;
      }

      .cls-21 {
        fill: #deb299;
      }

      .cls-11 {
        stroke-width: 3.99px;
      }

      .cls-22 {
        fill: #e6e6e6;
      }

      .cls-13 {
        stroke-width: 3.48px;
      }
    </style>
    <linearGradient id="Gold_Dust" data-name="Gold Dust" x1="895.22" y1="186.2" x2="898.03" y2="186.2" gradientTransform="translate(969.68) rotate(-180) scale(1 -1)" gradientUnits="userSpaceOnUse">
      <stop offset="0" stop-color="#ff7300"/>
      <stop offset=".18" stop-color="#f97c00"/>
      <stop offset=".47" stop-color="#ea9502"/>
      <stop offset=".55" stop-color="#e59e03"/>
      <stop offset=".87" stop-color="#e5c500"/>
      <stop offset=".99" stop-color="#bf6f00"/>
    </linearGradient>
    <linearGradient id="Gold_Dust-2" data-name="Gold Dust" x1="883.93" y1="185.96" x2="908.84" y2="185.96" xlink:href="#Gold_Dust"/>
    <linearGradient id="Gold_Dust-3" data-name="Gold Dust" x1="886.57" y1="185.96" x2="906.68" y2="185.96" xlink:href="#Gold_Dust"/>
    <linearGradient id="Gold_Dust-4" data-name="Gold Dust" x1="884.45" y1="185.17" x2="906.76" y2="185.17" xlink:href="#Gold_Dust"/>
  </defs>
  <path class="cls-16" d="M127.64,54.4c1.66-1.23,3.34-2.32,3.69-1.98.38.37-1.08,2.08-.65,2.57.72.82,5.77-3.09,6.72-2.13.63.63-1.45,2.48-.9,4.62.72,2.85,5.48,3.72,5.25,4.62-.16.6-2.2-.11-3.35,1-1.87,1.8.56,6.56-.66,7.22-.73.39-1.66-1.3-3.1-1.05-2.03.34-2.49,4.13-3.74,4.01-.63-.06-1.07-1.07-1.22-1.68-.54-2.28,1.64-4.46,1.37-4.68-.21-.17-1.4,1.17-3.37,2.64-1.77,1.32-2.71,2.03-3.34,1.75-1.37-.61-.42-5.51-.12-7.07.46-2.34,1.37-5.79,3.42-9.82Z"/>
  <path class="cls-16" d="M153.64,255.76c2.06,1.91,5.03,4.54,8.74,7.5,2.85,2.27,7.8,6.22,12.63,9.06,4.4,2.59,12.01,6.21,23.26,7.64-.92,5.11-1.84,10.23-2.76,15.34-4.26-.94-7.96-1.63-10.94-2.13-8.38-1.42-10.27-1.25-13.67-2.97-1.23-.62-1.49-.9-8.35-6.43-2.63-2.12-5.29-4.21-7.91-6.34-3.88-3.16-10.5-8.35-22.46-17.13,7.15-1.52,14.3-3.04,21.45-4.55Z"/>
  <path class="cls-16" d="M123.92,259.6c-2.46,10.16-4.32,18.65-5.61,24.84-3.03,14.41-3.46,18.43-3.68,21.09-.82,10.05.09,18.35,1,23.83-5.18.49-10.36.98-15.54,1.47-.24-4.35-.57-8.1-.89-11.09-.71-6.73-1.27-9.22-1.1-11.84.03-.44.18-1.34.29-2.11.55-3.79,1.11-6.52,1.21-7.02.94-4.78.34-11.46.44-16.09.09-4.27.85-10.35,3.94-17.82,6.65-1.75,13.29-3.5,19.94-5.25Z"/>
  <path class="cls-14" d="M122.12,117.86c-11.74.14-13.46,8.24-34.44,16.46-13.6,5.32-17.19,3.61-27.85,7.35-10.88,3.82-25.33,11.99-39.77,31.4,4.7,5.98,9.4,11.96,14.09,17.94,3.9-1.62,9.94-4.54,16.29-9.61,7.92-6.33,10.15-11.08,14.13-10.83,6.4.4,10.95,14.94,12.25,19.18,5.51,17.96,3.65,30.46,4.07,54.8.12,6.99.47,17.43,1.59,30.24,4.8,3.13,26.64,16.66,55.96,11.67,28.63-4.87,44.62-24.03,48.27-28.65-5.14-13.07-10.94-26.73-17.51-40.85-7.34-15.78-14.86-30.47-22.35-44.07-5.24,3.6-6.27,4.19-6.33,4.12-.16-.22,10.31-5.09,14.42-14.37,4.34-9.8-.23-20.43-1.17-22.61-5.26-12.23-18.45-22.33-31.67-22.18Z"/>
  <path class="cls-10" d="M20.49,174.06l12.59,15.95c-4.72,14.09-14,22.59-22.05,21.72-3.69-.4-8.09-2.87-9.31-6.72-1.74-5.48,3-13.5,12.96-17.81-6.14,3.35-12.89,6.52-14.23,4.86-.47-.58-.12-1.58.07-2.11,2.46-6.75,17.16-14.45,19.97-15.89Z"/>
  <path class="cls-12" d="M133.62,145.99c.59.37,3.7,2.37,4.01,5.58.37,3.87-3.43,8.34-9.47,9.12"/>
  <g>
    <g>
      <path class="cls-3" d="M136.85,364.14c-2.22,3.43-7.98,11.3-18.62,15.82-16.5,7-31.65.4-34.27-.79"/>
      <path class="cls-7" d="M118.73,376.12c-1.21-4.46-2.42-8.92-3.63-13.38"/>
    </g>
    <path class="cls-7" d="M106.66,380.14c-.9-4.53-1.81-9.06-2.71-13.6"/>
  </g>
  <g>
    <g>
      <path class="cls-3" d="M233.78,283.96c1.89,3.62,5.89,12.51,4.56,23.99-2.06,17.79-15.29,27.68-17.63,29.37"/>
      <path class="cls-7" d="M235.26,305.61c-4.48-1.15-8.96-2.31-13.44-3.46"/>
    </g>
    <path class="cls-7" d="M232.79,318.08c-4.39-1.46-8.78-2.91-13.17-4.37"/>
  </g>
  <path d="M115.45,326.76c-5.52,1.12-11.04,2.24-16.57,3.36,2.49,5.38,4.61,12.16,1.57,16.5-.62.88-1.35,1.38-9.45,5.35-5.59,2.74-8.4,4.11-9.11,4.24-9.3,1.67-16.75-9.65-18.3-8.35-1.71,1.42,4.53,17.5,17.95,21.75,3.76,1.19,7.01,1.3,8.5,1.06,9.79-1.56,14.19-5.33,22.9-8.12,2.83-.9,7.27-2.08,13.1-2.54.04-3.13-.18-6.73-.91-10.67-1.9-10.25-6.34-17.89-9.68-22.58Z"/>
  <path class="cls-1" d="M201.4,17.63c1.23-5.3,2.46-10.61,3.7-15.91"/>
  <path class="cls-1" d="M195.08,16.22c.9-5.37,1.79-10.74,2.69-16.11"/>
  <path class="cls-1" d="M188.78,16.22c.9-5.37,1.79-10.74,2.69-16.11"/>
  <path class="cls-1" d="M179.29,16.22c.9-5.37,1.79-10.74,2.69-16.11"/>
  <path class="cls-1" d="M170.33,16.22c.9-5.37,1.79-10.74,2.69-16.11"/>
  <rect class="cls-20" x="15.78" y="160.64" width="110.1" height="47.28" rx=".21" ry=".21" transform="translate(91.73 380.59) rotate(-165.05)"/>
  <path class="cls-9" d="M123.7,199.64c-35.54-9.15-71.09-18.29-106.63-27.44"/>
  <path class="cls-9" d="M79.22,161.98c-3.95,15.3-7.89,30.61-11.84,45.91"/>
  <path class="cls-10" d="M128.16,160.69l12.59,15.95c-4.72,14.09-14,22.59-22.05,21.72-3.69-.4-8.09-2.87-9.31-6.72-1.74-5.48,3-13.5,12.96-17.81-6.14,3.35-12.89,6.52-14.23,4.86-.47-.58-.12-1.58.07-2.11,2.46-6.75,17.16-14.45,19.97-15.89Z"/>
  <g>
    <path class="cls-4" d="M73.3,173.78c-.16,8.28-.32,16.56-.48,24.83"/>
    <path class="cls-5" d="M60.87,185.72c8.29.16,16.58.32,24.86.48"/>
    <path class="cls-6" d="M63.78,177.69c6.19,5.51,12.37,11.02,18.56,16.53"/>
    <path class="cls-8" d="M63.54,191.76c7.03-4.39,14.05-8.79,21.08-13.18"/>
  </g>
  <path class="cls-21" d="M89.77,66.09c7.32,6.6,8.27,17.86,8.52,20.85.33,3.97.94,11.09-3.31,17.64-2.53,3.91-5.59,5.75-11.4,9.16-10.76,6.32-16.14,9.47-22.29,8.84-13.34-1.39-20.54-17.4-21.63-19.82-1.68-3.73-6.14-13.66-2.5-23.27,6.86-18.08,38.88-25.78,52.6-13.41Z"/>
  <path class="cls-14" d="M90.16,54.37c-8.04-.83-19.39-.92-31.82,3.08-17.78,5.72-26.88,16.31-31.37,13.06-3.51-2.55-1.47-12.95,1.45-19.29,0,0,.72-1.56,1.55-2.91,4.99-8.1,26.51-24.67,49.71-19.37,4.84,1.11,13.73,6.44,31.32,17.06,8.39,5.07,15.28,9.41,20.07,12.47-1.8,3.05-3.59,6.09-5.39,9.14-11.84-4.41-23.68-8.82-35.53-13.24Z"/>
  <path class="cls-21" d="M36.71,90.87c-6.37-5.06-8.18-5.64-8.63-5.21-.95.91,2.93,7.3,6.62,11.76,2.46,2.97,3.54,3.53,4.72,6.1,1.41,3.07,1.27,5.32,2.88,5.95,1.34.53,3.44-.23,3.92-1.5.74-1.96-2.77-4.04-5.92-8.94-2.07-3.22-3.07-6.23-3.59-8.16Z"/>
  <path class="cls-21" d="M92.73,69.98c1.58-7.04,2.51-8.45,3.06-8.4,1.16.1,2.04,6.68,1.98,11.82-.04,3.42-.48,4.41.14,6.85.74,2.91,2.09,4.38,1.33,5.72-.63,1.11-2.5,1.75-3.55,1.14-1.6-.95-.34-4.33-.89-9.48-.36-3.37-1.35-6.02-2.07-7.64Z"/>
  <path class="cls-18" d="M88.07,62.24c1.42,1.03,3.4,3.24,4.73,4.99,1.04,1.36,2.3,3.04,1.84,3.66-.37.49-1.69.13-2.66-.22-1.27-.47-2.54-.94-3.81-1.41-.44,1.78-1.98,2.73-3,2.48-1.1-.27-2.1-2.08-1.32-4-1.7,1.27-3.4,2.53-5.1,3.8-.31-1.21-.63-2.42-.94-3.63-.55,1.29-1.11,2.58-1.66,3.87-1.09-1.06-2.18-2.13-3.28-3.19-1.99,3.8-3.29,5.59-3.91,5.38-.54-.18-.55-1.89-.05-5.11-2.53,5.39-4.18,7.97-4.96,7.72-.61-.19-.69-2.1-.23-5.74-2.95,6.23-4.7,7.62-5.8,7.41-1.51-.29-2.24-3.68-2.76-3.54-.55.15.6,3.85-.62,4.68-.91.62-2.86-.57-4.83-2.14-.71,1.56-1.41,3.12-2.12,4.68-1.3-.75-2.61-1.51-3.91-2.26.36,1.22.72,2.44,1.08,3.66-1.66-.72-3.32-1.45-4.98-2.17.57,3.9.48,5.06.2,5.13-.53.14-1.74-3.38-2.53-3.19-.56.13-.16,1.98-1.34,3.79-.57.87-1.31,1.42-1.84,1.74.16-2.37.33-4.73.49-7.1,1.23-2.61,3.37-6.36,7.03-9.87,6.4-6.12,13.89-7.49,28.87-10.25,6.56-1.21,13.48-2.02,17.39.83Z"/>
  <path class="cls-16" d="M76.64,52.93c5.2-.74,6.35-1.26,8.89-.96,1.71.2,5.66.66,6.6,3.09.76,1.97-.69,4.61-2.4,6.13-2.44,2.17-4.79,1.53-15.13,2.14-6.65.39-8.85.84-11.14,1.72-2.76,1.05-2.57,1.55-6.4,3.55-7.75,4.04-9.59,2.58-14.99,6.06-3.95,2.54-4.3,4.18-7.2,4.59-3.11.43-7.12-.83-8.04-3.37-1.34-3.67,4.35-8.4,6.14-9.89,4.49-3.74,9.33-5.08,13.84-6.29,6.15-1.65,5.91-.5,11.54-2.24,5-1.55,6.46-2.85,11.54-3.74,2.53-.45,2.17-.12,6.76-.78Z"/>
  <g>
    <ellipse class="cls-22" cx="76.41" cy="83.51" rx="6.03" ry="3.18" transform="translate(-35.01 63.53) rotate(-37.38)"/>
    <circle class="cls-15" cx="76.41" cy="83.51" r="1.46" transform="translate(-15.53 17.48) rotate(-11.86)"/>
    <circle class="cls-17" cx="76.79" cy="81.61" r=".94" transform="translate(-15.13 17.52) rotate(-11.86)"/>
    <path d="M77.04,79.83c.7-.27,1.81-.6,3.23-.64-.28-.06-.83-.15-1.51-.13-2.98.09-5.55,2.29-6.75,4.52-.51.94-.82,1.97-.77,1.99.04.02.41-.97,1.04-1.95,1.67-2.58,4.28-3.61,4.76-3.79Z"/>
  </g>
  <g>
    <ellipse class="cls-22" cx="55.67" cy="90.76" rx="6.38" ry="3.36" transform="translate(-6.48 4.31) rotate(-4.19)"/>
    <circle class="cls-15" cx="55.67" cy="90.76" r="1.54" transform="translate(-49.12 109.6) rotate(-68.67)"/>
    <circle class="cls-17" cx="57.1" cy="89.29" r=".99" transform="translate(-46.84 110.01) rotate(-68.67)"/>
    <path d="M58.36,87.86c.77.17,1.94.52,3.23,1.3-.22-.22-.64-.61-1.26-.99-2.69-1.65-6.24-1.18-8.59.09-1,.54-1.87,1.27-1.84,1.32.03.04.92-.62,2.05-1.12,2.97-1.31,5.87-.72,6.41-.6Z"/>
  </g>
  <path class="cls-19" d="M61.68,105.32c1.57.67,3.58,1.36,5.97,1.79,3.54.64,6.59.49,8.75.2"/>
  <g>
    <path class="cls-16" d="M84.75,137.24c-15.21,7.93-28.14,8.62-31.87,3.37-2.24-3.16-1.23-8.55.87-12.12,3.74-6.34,11.04-7.06,19.37-10.01,4.67-1.65,12.02-6.76,26.73-16.96,10.24-7.1,24.84-17.23,33.4-24.95,9.28-8.37,26.45-27.44,34.98-66.9,12.48,2.23,24.96,4.46,37.44,6.7-.67,5.79-2.33,14.36-7.01,23.51-5.38,10.52-11.87,16.17-24.03,27.68-22.88,21.66-18.65,19.4-29.34,28.74-12.78,11.16-32.55,26.39-60.54,40.93Z"/>
    <path class="cls-2" d="M91.06,132.54c-7.69-3.78-15.36-7.57-23.06-11.35h-.02"/>
    <path class="cls-2" d="M114.01,119.13c-7.69-3.78-15.36-7.57-23.06-11.35h-.02"/>
    <path class="cls-2" d="M132.74,105.53c-7.55-3.71-15.09-7.43-22.64-11.16"/>
    <path class="cls-2" d="M151.22,90.08c-7.15-3.53-14.27-7.04-21.41-10.55"/>
    <path class="cls-2" d="M145.67,64.98h.02c6.98,3.43,13.94,6.87,20.91,10.28"/>
    <path class="cls-2" d="M186.15,56.56c-10.53-2.65-21.07-5.31-31.64-7.95"/>
    <path class="cls-2" d="M201.48,33.53c-12.98-1.12-25.98-2.26-39-3.37"/>
  </g>
  <path class="cls-11" d="M115.42,299.37c-5.09-2.51-10.19-5.02-15.29-7.53"/>
  <path class="cls-11" d="M114.37,310.16c-5.15-2.54-10.3-5.07-15.46-7.61"/>
  <path class="cls-11" d="M114.79,323.01l-16.12-7.94"/>
  <path class="cls-13" d="M180.71,275.24c-6.68,2.34-13.36,4.68-20.04,7.03"/>
  <path class="cls-13" d="M194.88,279.46c-8.74,3.07-17.5,6.13-26.26,9.22"/>
  <path d="M193.29,279.06c-2,5.26-4.01,10.52-6.01,15.78,5.89.77,12.75,2.62,14.8,7.49.69,1.64.23,4.72-.53,10.84-.56,4.49-.85,6.76-1.49,7.62-4.38,5.89-20.12-.78-20.69.8-.69,1.89,20.38,16.66,32.04,9,2.6-1.7,4.24-3.83,5.44-6.6,3.92-9.1,3.08-14.83,5.38-23.67.75-2.87,2.13-7.25,4.86-12.42-2.63-1.7-5.8-3.45-9.52-4.94-9.68-3.88-18.53-4.21-24.28-3.9Z"/>
</svg>