<?xml version="1.0" encoding="UTF-8"?>
<svg id="Layer_1" data-name="Layer 1" xmlns="http://www.w3.org/2000/svg" viewBox="0 0 121.66 129.38">
  <defs>
    <style>
      .cls-1 {
        fill: #fff;
      }

      .cls-2 {
        fill: #c69c6d;
      }

      .cls-3 {
        fill: #fcee21;
      }

      .cls-4 {
        fill: #8c6239;
      }
    </style>
  </defs>
  <path class="cls-2" d="M9.45,2.19C7.91.03,4.93-.63,2.63.65.26,1.96-.68,4.92.52,7.35c12.95,25.79,25.91,51.58,38.86,77.37,3.68-1.38,7.35-2.75,11.03-4.13C36.76,54.46,23.1,28.33,9.45,2.19Z"/>
  <g>
    <path class="cls-4" d="M116.72,54.19c-14.51,2.33-32.24,4.05-52.43,3.62-21.26-.45-39.74-3.16-54.65-6.34-2.15,5.68-11.25,31.51,1.95,56.9,4.81,9.26,11.16,15.7,16.21,19.88,19.99.38,39.98.75,59.96,1.13,6.11-2.24,13.12-5.97,19.17-12.28,22.45-23.44,10.56-60.63,9.79-62.92Z"/>
    <path class="cls-1" d="M119.31,65.02c1.7-1.66,2.17-3.13,2.3-4.11.46-3.42-2.54-5.34-2-9.62.19-1.51.61-1.66.36-2.39-.87-2.46-5.73-1.02-9.01-4.21-2.23-2.17-1.51-4.33-3.43-5.06-2.12-.79-3.41,1.67-6.86,2.11-4.25.54-5.3-2.82-10.29-3.37-4.68-.51-5.31,2.26-10.72,2.53-5.98.29-6.56-3.03-12.44-3.37-7.82-.45-9.22,5.28-16.3,4.63-6.78-.62-9.6-6.26-13.3-4.63-3.04,1.33-2.08,5.55-5.15,6.74-3.04,1.18-5.05-2.56-11.58-3.79-1.27-.24-7.33-1.26-11.58,2.11-6.34,5.03-4.66,16.73-2.69,17.18.73.17,2.05-1.12,4.55-6.71,25.56,6.13,43.56,6.33,55.61,5.2,8.26-.78,16.6-.45,24.87-1.14,12.9-1.08,22.1-2.62,25.95,2.33,1.43,1.84,1.7,4.03,1.7,5.58Z"/>
    <ellipse class="cls-3" cx="64.63" cy="41.46" rx="8.29" ry="5.27"/>
    <ellipse class="cls-4" cx="76.47" cy="41.46" rx=".56" ry=".55"/>
    <ellipse class="cls-4" cx="75.35" cy="43.46" rx=".56" ry=".55"/>
    <ellipse class="cls-4" cx="80.17" cy="44.01" rx=".56" ry=".55"/>
    <ellipse class="cls-4" cx="81.48" cy="45.66" rx=".56" ry=".55"/>
    <ellipse class="cls-4" cx="82.04" cy="42.91" rx=".56" ry=".55"/>
    <ellipse class="cls-4" cx="75.35" cy="47.27" rx=".56" ry=".55"/>
    <ellipse class="cls-4" cx="72.93" cy="45.66" rx=".56" ry=".55"/>
    <ellipse class="cls-4" cx="72.37" cy="47.27" rx=".56" ry=".55"/>
    <ellipse class="cls-4" cx="69.71" cy="46.73" rx=".56" ry=".55"/>
    <ellipse class="cls-4" cx="70.27" cy="49.37" rx=".56" ry=".55"/>
    <ellipse class="cls-4" cx="66.41" cy="47.82" rx=".56" ry=".55"/>
    <ellipse class="cls-4" cx="66.41" cy="50.2" rx=".56" ry=".55"/>
    <ellipse class="cls-4" cx="62.01" cy="47.82" rx=".56" ry=".55"/>
    <ellipse class="cls-4" cx="57.59" cy="46.18" rx=".56" ry=".55"/>
    <ellipse class="cls-4" cx="53.84" cy="50.75" rx=".56" ry=".55"/>
    <ellipse class="cls-4" cx="53.28" cy="46.73" rx=".56" ry=".55"/>
    <ellipse class="cls-4" cx="55.78" cy="48.82" rx=".56" ry=".55"/>
    <ellipse class="cls-4" cx="54.4" cy="44.56" rx=".56" ry=".55"/>
    <ellipse class="cls-4" cx="50.97" cy="47.27" rx=".56" ry=".55"/>
    <ellipse class="cls-4" cx="49.85" cy="44.01" rx=".56" ry=".55"/>
    <ellipse class="cls-4" cx="46.12" cy="45.11" rx=".56" ry=".55"/>
    <ellipse class="cls-4" cx="49.29" cy="47.27" rx=".56" ry=".55"/>
    <ellipse class="cls-4" cx="49.85" cy="49.92" rx=".56" ry=".55"/>
    <ellipse class="cls-4" cx="45.56" cy="48.27" rx=".56" ry=".55"/>
    <ellipse class="cls-4" cx="44.44" cy="46.73" rx=".56" ry=".55"/>
    <ellipse class="cls-4" cx="78.14" cy="49.37" rx=".56" ry=".55"/>
    <ellipse class="cls-4" cx="86.29" cy="42.36" rx=".56" ry=".55"/>
    <ellipse class="cls-4" cx="84.68" cy="45.63" rx=".56" ry=".55"/>
    <ellipse class="cls-4" cx="43.1" cy="42.91" rx=".56" ry=".55"/>
    <ellipse class="cls-4" cx="60.38" cy="49.92" rx=".56" ry=".55"/>
    <ellipse class="cls-4" cx="64.08" cy="50.75" rx=".56" ry=".55"/>
    <ellipse class="cls-4" cx="73.49" cy="49.65" rx=".56" ry=".55"/>
    <ellipse class="cls-4" cx="77.02" cy="44.56" rx=".56" ry=".55"/>
    <ellipse class="cls-4" cx="79.05" cy="46.73" rx=".56" ry=".55"/>
    <ellipse class="cls-4" cx="81.48" cy="48.84" rx=".56" ry=".55"/>
    <ellipse class="cls-4" cx="78.14" cy="42.36" rx=".56" ry=".55"/>
  </g>
</svg>