<?xml version="1.0" encoding="UTF-8"?>
<svg id="Layer_1" data-name="Layer 1" xmlns="http://www.w3.org/2000/svg" xmlns:xlink="http://www.w3.org/1999/xlink" viewBox="0 0 601.65 321.76">
  <defs>
    <style>
      .cls-1 {
        stroke: #c69c6d;
      }

      .cls-1, .cls-2, .cls-3, .cls-4, .cls-5, .cls-6, .cls-7, .cls-8, .cls-9, .cls-10, .cls-11 {
        stroke-miterlimit: 10;
      }

      .cls-1, .cls-3, .cls-4, .cls-6, .cls-7, .cls-8, .cls-9, .cls-10, .cls-11 {
        fill: none;
      }

      .cls-1, .cls-6 {
        stroke-width: .79px;
      }

      .cls-2 {
        stroke: #a05558;
        stroke-width: .59px;
      }

      .cls-12 {
        fill: #534741;
      }

      .cls-3 {
        stroke: url(#Gold_Dust-4);
      }

      .cls-3, .cls-8, .cls-9, .cls-11 {
        stroke-width: .8px;
      }

      .cls-13, .cls-5 {
        fill: #a05558;
      }

      .cls-14 {
        fill: #fff;
      }

      .cls-4 {
        stroke-width: 3.17px;
      }

      .cls-4, .cls-5, .cls-7, .cls-10 {
        stroke: #000;
      }

      .cls-4, .cls-6, .cls-10 {
        stroke-linecap: round;
      }

      .cls-5 {
        stroke-width: .13px;
      }

      .cls-6 {
        stroke: #fff;
      }

      .cls-7 {
        stroke-width: .2px;
      }

      .cls-8 {
        stroke: url(#Gold_Dust-2);
      }

      .cls-9 {
        stroke: url(#Gold_Dust-3);
      }

      .cls-15 {
        fill: #c69c6d;
        font-family: OpenSans-Bold, 'Open Sans';
        font-size: 46.41px;
        font-weight: 700;
      }

      .cls-16 {
        fill: #178876;
      }

      .cls-17 {
        fill: #c1272d;
      }

      .cls-18 {
        fill: #006837;
      }

      .cls-19 {
        fill: #deb299;
      }

      .cls-10 {
        stroke-width: 1.59px;
      }

      .cls-11 {
        stroke: url(#Gold_Dust);
      }

      .cls-20 {
        fill: #ccc;
      }

      .cls-21 {
        fill: #f7931e;
      }

      .cls-22 {
        fill: #e6e6e6;
      }
    </style>
    <linearGradient id="Gold_Dust" data-name="Gold Dust" x1="311.81" y1="196.43" x2="312.84" y2="196.43" gradientUnits="userSpaceOnUse">
      <stop offset="0" stop-color="#ff7300"/>
      <stop offset=".18" stop-color="#f97c00"/>
      <stop offset=".47" stop-color="#ea9502"/>
      <stop offset=".55" stop-color="#e59e03"/>
      <stop offset=".87" stop-color="#e5c500"/>
      <stop offset=".99" stop-color="#bf6f00"/>
    </linearGradient>
    <linearGradient id="Gold_Dust-2" data-name="Gold Dust" x1="306.47" y1="196.32" x2="317.95" y2="196.32" xlink:href="#Gold_Dust"/>
    <linearGradient id="Gold_Dust-3" data-name="Gold Dust" x1="307.78" y1="196.32" x2="316.87" y2="196.32" xlink:href="#Gold_Dust"/>
    <linearGradient id="Gold_Dust-4" data-name="Gold Dust" x1="306.78" y1="195.95" x2="316.93" y2="195.95" xlink:href="#Gold_Dust"/>
  </defs>
  <rect class="cls-16" width="601.65" height="321.76" rx="7.54" ry="7.54"/>
  <text class="cls-15" transform="translate(211.27 87.25)"><tspan x="0" y="0">Winner</tspan></text>
  <g>
    <path class="cls-20" d="M287.16,135.58c-.77-.57-1.54-1.08-1.7-.91-.17.17.5.96.3,1.19-.33.38-2.66-1.43-3.1-.99-.29.29.67,1.15.42,2.14-.33,1.32-2.53,1.72-2.42,2.14.07.28,1.01-.05,1.54.46.86.83-.26,3.03.31,3.34.34.18.77-.6,1.43-.49.94.16,1.15,1.91,1.73,1.86.29-.03.49-.49.56-.78.25-1.06-.76-2.06-.63-2.16.1-.08.65.54,1.55,1.22.82.61,1.25.94,1.54.81.63-.28.19-2.55.05-3.27-.21-1.08-.63-2.68-1.58-4.54Z"/>
    <path class="cls-19" d="M305.39,140.58c-3.37,3.05-3.81,8.26-3.93,9.65-.15,1.84-.43,5.13,1.52,8.16,1.17,1.81,2.58,2.66,5.26,4.24,4.96,2.92,7.44,4.38,10.28,4.09,6.15-.64,9.47-8.05,9.97-9.17.77-1.73,2.83-6.32,1.15-10.77-3.16-8.36-17.92-11.93-24.25-6.2Z"/>
    <path class="cls-13" d="M305.21,135.16c3.71-.38,8.94-.43,14.67,1.42,8.2,2.65,12.39,7.55,14.46,6.04,1.8-1.31.81-6.58-1.38-10.27-4.29-7.23-14.64-10.86-22.92-8.96-2.23.51-6.33,2.98-14.44,7.89-3.87,2.34-7.04,4.35-9.25,5.77.83,1.41,1.66,2.82,2.49,4.23,5.46-2.04,10.92-4.08,16.38-6.12Z"/>
    <ellipse class="cls-17" cx="312.63" cy="158.38" rx="1.92" ry="1.39" transform="translate(45.78 385.56) rotate(-67.28)"/>
    <path class="cls-19" d="M329.47,155c1.97-1.57,2.53-1.75,2.67-1.61.29.28-.91,2.26-2.04,3.65-.76.92-1.09,1.09-1.46,1.89-.44.95-.39,1.65-.89,1.84-.41.16-1.06-.07-1.21-.47-.23-.61.85-1.25,1.83-2.77.64-1,.95-1.93,1.11-2.53Z"/>
    <path class="cls-19" d="M302.96,144.14c-.56-2.48-.88-2.97-1.07-2.95-.41.04-.71,2.35-.69,4.15.01,1.2.17,1.55-.05,2.41-.26,1.02-.73,1.54-.46,2.01.22.39.88.62,1.24.4.56-.33.12-1.52.31-3.33.13-1.19.47-2.12.72-2.69Z"/>
    <path class="cls-21" d="M306.17,138.8c-.66.48-1.57,1.5-2.18,2.31-.48.63-1.06,1.41-.85,1.69.17.23.78.06,1.23-.1.59-.22,1.17-.43,1.76-.65.2.83.91,1.26,1.38,1.15.51-.13.97-.96.61-1.85.78.59,1.57,1.17,2.35,1.76.14-.56.29-1.12.43-1.68.25.6.51,1.19.76,1.79.5-.49,1.01-.98,1.51-1.48.92,1.76,1.52,2.59,1.8,2.49.25-.08.26-.87.02-2.36,1.17,2.49,1.93,3.69,2.29,3.57.28-.09.32-.97.1-2.66,1.36,2.88,2.17,3.52,2.68,3.43.7-.13,1.03-1.7,1.27-1.64.25.07-.28,1.78.28,2.16.42.28,1.32-.26,2.23-.99.33.72.65,1.44.98,2.17.6-.35,1.2-.7,1.8-1.05-.17.56-.33,1.13-.5,1.69.76-.33,1.53-.67,2.29-1-.26,1.81-.22,2.34-.09,2.38.25.06.8-1.56,1.16-1.48.26.06.07.92.62,1.75.26.4.6.66.85.8-.08-1.09-.15-2.19-.23-3.28-.57-1.21-1.55-2.94-3.24-4.57-2.95-2.83-6.4-3.47-13.31-4.74-3.03-.56-6.21-.93-8.02.38Z"/>
    <path class="cls-20" d="M311.44,134.49c-2.4-.34-2.93-.58-4.1-.44-.79.09-2.61.3-3.04,1.43-.35.91.32,2.13,1.11,2.83,1.12,1.01,2.21.71,6.97.99,3.07.18,4.08.39,5.14.8,1.27.49,1.18.72,2.95,1.64,3.57,1.87,4.42,1.19,6.91,2.81,1.82,1.18,1.98,1.94,3.32,2.12,1.43.2,3.28-.39,3.71-1.56.62-1.7-2.01-3.89-2.83-4.58-2.07-1.73-4.3-2.35-6.38-2.91-2.84-.76-2.73-.23-5.32-1.04-2.31-.72-2.98-1.32-5.32-1.73-1.17-.21-1-.06-3.11-.36Z"/>
    <g>
      <ellipse class="cls-22" cx="310.82" cy="148.12" rx="1.47" ry="2.78" transform="translate(42.73 364.16) rotate(-64.34)"/>
      <circle class="cls-12" cx="310.82" cy="148.12" r=".67"/>
      <circle class="cls-14" cx="310.47" cy="147.29" r=".43"/>
      <path d="M310.19,146.51c-.34-.05-.87-.1-1.52.02.12-.05.36-.15.67-.2,1.35-.24,2.72.51,3.47,1.4.32.38.56.82.54.83-.02.01-.27-.4-.66-.78-1-1.01-2.27-1.23-2.51-1.26Z"/>
    </g>
    <path class="cls-20" d="M275.17,228.74c-.95.88-2.32,2.1-4.03,3.47-1.31,1.05-3.6,2.88-5.82,4.19-2.03,1.2-5.53,2.87-10.73,3.54.42,2.37.85,4.73,1.27,7.1,1.96-.43,3.67-.75,5.04-.99,3.86-.65,4.73-.58,6.3-1.37.57-.29.69-.42,3.85-2.97,1.21-.98,2.44-1.95,3.65-2.93,1.79-1.46,4.84-3.86,10.35-7.92-3.3-.7-6.59-1.4-9.89-2.11Z"/>
    <path class="cls-20" d="M288.87,230.51c1.13,4.7,1.99,8.63,2.59,11.49,1.39,6.67,1.6,8.53,1.7,9.76.38,4.65-.04,8.49-.46,11.02,2.39.23,4.78.45,7.16.68.11-2.01.26-3.75.41-5.13.33-3.11.59-4.26.51-5.48-.01-.2-.08-.62-.13-.98-.25-1.75-.51-3.01-.56-3.25-.43-2.21-.16-5.3-.2-7.44-.04-1.98-.39-4.79-1.82-8.24-3.06-.81-6.13-1.62-9.19-2.43Z"/>
    <g>
      <ellipse class="cls-22" cx="321.22" cy="152.63" rx="1.56" ry="2.94" transform="translate(44.56 376.09) rotate(-64.34)"/>
      <circle class="cls-12" cx="321.22" cy="152.63" r=".71"/>
      <circle class="cls-14" cx="320.85" cy="151.75" r=".46"/>
      <path d="M320.55,150.92c-.36-.06-.92-.1-1.61.02.13-.06.38-.16.71-.22,1.43-.26,2.88.54,3.68,1.49.34.4.59.86.57.88-.02.01-.29-.42-.69-.83-1.06-1.06-2.4-1.3-2.65-1.34Z"/>
    </g>
    <path class="cls-5" d="M289.7,164.94c5.41.06,6.21,3.81,15.88,7.61,6.27,2.46,7.93,1.67,12.84,3.4,5.01,1.77,11.68,5.55,18.33,14.53-2.17,2.77-4.33,5.53-6.5,8.3-1.8-.75-4.58-2.1-7.51-4.45-3.65-2.93-4.68-5.13-6.51-5.01-3,.19-5.12,7.11-5.65,8.87-2.6,8.65-1.44,14.49-1.62,24.52-.07,3.78-.35,9.22-1.35,15.83-2.63,1.14-13.09,5.33-25.68,1.35-12.33-3.89-18.49-13.01-20.05-15.49.29-3.83,1.17-9.34,3.86-15.39,4.12-9.29,10.34-14.99,13.85-17.76.8.55,1.58,1.08,1.61,1.04.07-.1-4.8-2.46-6.65-6.65-2-4.53.11-9.45.54-10.46,2.42-5.66,8.51-10.33,14.6-10.26Z"/>
    <path class="cls-20" d="M336.56,190.94c-1.93,2.46-3.87,4.92-5.8,7.38,2.18,6.52,6.45,10.45,10.17,10.05,1.7-.18,3.73-1.33,4.29-3.11.8-2.53-1.38-6.25-5.98-8.24,2.83,1.55,5.94,3.02,6.56,2.25.22-.27.06-.73-.03-.98-1.13-3.12-7.91-6.68-9.21-7.35Z"/>
    <path class="cls-7" d="M284.4,177.95c-.27.17-1.71,1.1-1.85,2.58-.17,1.79,1.58,3.86,4.37,4.22"/>
    <path class="cls-5" d="M306.93,173.91c7.01,3.67,12.98,3.99,14.69,1.56,1.03-1.46.57-3.96-.4-5.61-1.72-2.93-5.09-3.26-8.93-4.63-2.15-.77-5.54-3.13-12.32-7.85-4.72-3.29-11.45-7.97-15.4-11.54-4.28-3.87-12.2-12.7-16.13-30.95-5.75,1.03-11.51,2.07-17.26,3.1.31,2.68,1.07,6.64,3.23,10.88,2.48,4.87,5.47,7.48,11.08,12.81,10.55,10.02,8.6,8.98,13.53,13.3,5.89,5.17,15.01,12.21,27.91,18.94Z"/>
    <path class="cls-6" d="M314.66,166.48h0c-3.55,1.75-7.09,3.51-10.63,5.25"/>
    <path class="cls-6" d="M304.08,160.27h0c-3.55,1.75-7.09,3.51-10.63,5.25"/>
    <path class="cls-6" d="M295.25,154.07c-3.48,1.73-6.96,3.44-10.44,5.16"/>
    <path class="cls-6" d="M286.16,147.21c-3.29,1.62-6.57,3.25-9.87,4.88"/>
    <path class="cls-6" d="M269.2,145.23c3.21-1.58,6.42-3.17,9.64-4.75h0"/>
    <path class="cls-6" d="M274.77,132.9c-4.87,1.22-9.73,2.45-14.59,3.68"/>
    <path class="cls-6" d="M271.1,124.37c-6,.51-11.99,1.04-17.98,1.56"/>
    <g>
      <g>
        <path class="cls-4" d="M282.91,278.87c1.02,1.59,3.68,5.23,8.59,7.32,7.61,3.24,14.59.18,15.8-.37"/>
        <path class="cls-10" d="M291.27,284.42c.56-2.06,1.12-4.13,1.67-6.19"/>
      </g>
      <path class="cls-10" d="M296.83,286.28c.42-2.1.83-4.19,1.25-6.29"/>
    </g>
    <g>
      <g>
        <path class="cls-4" d="M238.23,241.78c-.87,1.68-2.72,5.79-2.1,11.1.95,8.23,7.05,12.81,8.13,13.59"/>
        <path class="cls-10" d="M237.55,251.8c2.07-.53,4.13-1.07,6.2-1.6"/>
      </g>
      <path class="cls-10" d="M238.68,257.57c2.02-.67,4.05-1.35,6.07-2.02"/>
    </g>
    <path d="M292.78,261.58l7.64,1.55c-1.15,2.49-2.12,5.63-.72,7.63.74,1.06,1.57.99,4.36,2.47,2.95,1.57,6.2,3.3,6.18,5.45,0,1.52-1.66,2.61-1.82,2.72-1.26.8-2.66.69-3.92.49-4.51-.72-6.54-2.47-10.56-3.76-1.3-.42-3.35-.96-6.04-1.17-.02-1.45.08-3.12.42-4.94.87-4.74,2.92-8.28,4.47-10.45Z"/>
    <path d="M256.89,239.52c.92,2.43,1.85,4.87,2.77,7.3-2.71.36-5.88,1.21-6.82,3.47-.5,1.19,0,1.86.24,5.01.25,3.33.53,7.01-1.29,8.15-1.29.81-3.09-.01-3.26-.09-1.35-.63-2-1.88-2.51-3.06-1.81-4.21-1.42-6.86-2.48-10.95-.34-1.33-.98-3.35-2.24-5.74,1.21-.79,2.67-1.59,4.39-2.28,4.46-1.79,8.54-1.95,11.19-1.8Z"/>
    <path class="cls-2" d="M253.15,118.57c-.57-2.45-1.14-4.91-1.7-7.36"/>
    <path class="cls-2" d="M256.07,117.92c-.41-2.48-.83-4.97-1.24-7.45"/>
    <path class="cls-2" d="M258.97,117.92c-.41-2.48-.83-4.97-1.24-7.45"/>
    <path class="cls-2" d="M263.35,117.92c-.41-2.48-.83-4.97-1.24-7.45"/>
    <path class="cls-2" d="M267.48,117.92c-.41-2.48-.83-4.97-1.24-7.45"/>
    <path class="cls-18" d="M340.6,199.69l-48.86,13.09c-.05.01-.1-.02-.12-.07l-5.59-20.95c-.01-.05.02-.1.07-.12l48.86-13.09c.05-.01.1.02.12.07l5.59,20.95c.01.05-.02.1-.07.12Z"/>
    <path class="cls-1" d="M288.97,202.77c16.39-4.23,32.77-8.46,49.16-12.69"/>
    <path class="cls-1" d="M309.48,185.35c1.82,7.08,3.64,14.16,5.46,21.24"/>
    <path class="cls-20" d="M286.92,184.75c-1.93,2.46-3.87,4.92-5.8,7.38,2.18,6.52,6.45,10.45,10.17,10.05,1.7-.18,3.73-1.33,4.29-3.11.8-2.53-1.38-6.25-5.98-8.24,2.83,1.55,5.94,3.02,6.56,2.25.22-.27.06-.73-.03-.98-1.13-3.12-7.91-6.68-9.21-7.35Z"/>
    <g>
      <path class="cls-11" d="M312.21,190.68c.07,3.83.15,7.66.22,11.49"/>
      <path class="cls-8" d="M317.94,196.2c-3.82.07-7.64.15-11.46.22"/>
      <path class="cls-9" d="M316.6,192.49c-2.85,2.55-5.7,5.1-8.56,7.65"/>
      <path class="cls-3" d="M316.71,199c-3.24-2.03-6.48-4.06-9.72-6.1"/>
    </g>
  </g>
</svg>